<?xml version="1.0" encoding="UTF-8" standalone="no"?>
<!DOCTYPE svg PUBLIC "-//W3C//DTD SVG 1.1//EN"
 "http://www.w3.org/Graphics/SVG/1.1/DTD/svg11.dtd">
<!-- Generated by graphviz version 4.0.0 (20220529.0937)
 -->
<!-- Title: SystemModel::Bus::getTypeOfBus Pages: 1 -->
<svg width="264pt" height="104pt"
 viewBox="0.00 0.00 264.00 104.00" xmlns="http://www.w3.org/2000/svg" xmlns:xlink="http://www.w3.org/1999/xlink">
<g id="graph0" class="graph" transform="scale(1 1) rotate(0) translate(4 100)">
<title>SystemModel::Bus::getTypeOfBus</title>
<!-- Node1 -->
<g id="node1" class="node">
<title>Node1</title>
<g id="a_node1"><a xlink:title=" ">
<polygon fill="#bfbfbf" stroke="black" points="116,-33 116,-63 256,-63 256,-33 116,-33"/>
<text text-anchor="start" x="124" y="-51" font-family="Helvetica,sans-Serif" font-size="10.00">SystemModel::Bus::getType</text>
<text text-anchor="middle" x="186" y="-40" font-family="Helvetica,sans-Serif" font-size="10.00">OfBus</text>
</a>
</g>
</g>
<!-- Node2 -->
<g id="node2" class="node">
<title>Node2</title>
<g id="a_node2"><a xlink:href="export_8cpp.html#aab0355bdced3f8dc218a973c1047656c" target="_top" xlink:title="Exports SystemModel to the main.html file">
<polygon fill="none" stroke="black" points="0,-76.5 0,-95.5 80,-95.5 80,-76.5 0,-76.5"/>
<text text-anchor="middle" x="40" y="-83.5" font-family="Helvetica,sans-Serif" font-size="10.00">exportToHTML</text>
</a>
</g>
</g>
<!-- Node1&#45;&gt;Node2 -->
<g id="edge1" class="edge">
<title>Node1&#45;&gt;Node2</title>
<path fill="none" stroke="midnightblue" d="M118.35,-65.59C104.18,-69.33 89.73,-73.14 77.22,-76.44"/>
<polygon fill="midnightblue" stroke="midnightblue" points="119.31,-68.95 128.09,-63.02 117.53,-62.19 119.31,-68.95"/>
</g>
<!-- Node3 -->
<g id="node3" class="node">
<title>Node3</title>
<g id="a_node3"><a xlink:href="export_8cpp.html#a3670fd8e8918396eab76c759773bf210" target="_top" xlink:title="Exports SystemModel to the main.tex file">
<polygon fill="none" stroke="black" points="1,-38.5 1,-57.5 79,-57.5 79,-38.5 1,-38.5"/>
<text text-anchor="middle" x="40" y="-45.5" font-family="Helvetica,sans-Serif" font-size="10.00">exportToLatex</text>
</a>
</g>
</g>
<!-- Node1&#45;&gt;Node3 -->
<g id="edge2" class="edge">
<title>Node1&#45;&gt;Node3</title>
<path fill="none" stroke="midnightblue" d="M105.83,-48C96.54,-48 87.4,-48 79.06,-48"/>
<polygon fill="midnightblue" stroke="midnightblue" points="105.95,-51.5 115.95,-48 105.95,-44.5 105.95,-51.5"/>
</g>
<!-- Node4 -->
<g id="node4" class="node">
<title>Node4</title>
<g id="a_node4"><a xlink:href="export_8cpp.html#a878215740a86c16b0277e838fe4dc24f" target="_top" xlink:title="Exports SystemModel to the .tex file">
<polygon fill="none" stroke="black" points="6,-0.5 6,-19.5 74,-19.5 74,-0.5 6,-0.5"/>
<text text-anchor="middle" x="40" y="-7.5" font-family="Helvetica,sans-Serif" font-size="10.00">exportToTxt</text>
</a>
</g>
</g>
<!-- Node1&#45;&gt;Node4 -->
<g id="edge3" class="edge">
<title>Node1&#45;&gt;Node4</title>
<path fill="none" stroke="midnightblue" d="M118.15,-30.36C102.93,-26.34 87.39,-22.24 74.29,-18.78"/>
<polygon fill="midnightblue" stroke="midnightblue" points="117.53,-33.81 128.09,-32.98 119.31,-27.05 117.53,-33.81"/>
</g>
</g>
</svg>
