<?xml version="1.0" encoding="UTF-8" standalone="no"?>
<!DOCTYPE svg PUBLIC "-//W3C//DTD SVG 1.1//EN"
 "http://www.w3.org/Graphics/SVG/1.1/DTD/svg11.dtd">
<!-- Generated by graphviz version 4.0.0 (20220529.0937)
 -->
<!-- Title: SystemModel::Bus::setActivePower Pages: 1 -->
<svg width="344pt" height="39pt"
 viewBox="0.00 0.00 344.00 39.00" xmlns="http://www.w3.org/2000/svg" xmlns:xlink="http://www.w3.org/1999/xlink">
<g id="graph0" class="graph" transform="scale(1 1) rotate(0) translate(4 35)">
<title>SystemModel::Bus::setActivePower</title>
<!-- Node1 -->
<g id="node1" class="node">
<title>Node1</title>
<g id="a_node1"><a xlink:title="Sets the value at which the active power for the given bus should be maintained.">
<polygon fill="#bfbfbf" stroke="black" points="190,-0.5 190,-30.5 336,-30.5 336,-0.5 190,-0.5"/>
<text text-anchor="start" x="198" y="-18.5" font-family="Helvetica,sans-Serif" font-size="10.00">SystemModel::Bus::setActive</text>
<text text-anchor="middle" x="263" y="-7.5" font-family="Helvetica,sans-Serif" font-size="10.00">Power</text>
</a>
</g>
</g>
<!-- Node2 -->
<g id="node2" class="node">
<title>Node2</title>
<g id="a_node2"><a xlink:href="import_8cpp.html#aae2b99c7c85a430f4ab2915c0e66483d" target="_top" xlink:title="Imports SystemModel from the .txt file">
<polygon fill="none" stroke="black" points="74,-6 74,-25 154,-25 154,-6 74,-6"/>
<text text-anchor="middle" x="114" y="-13" font-family="Helvetica,sans-Serif" font-size="10.00">importFromTxt</text>
</a>
</g>
</g>
<!-- Node1&#45;&gt;Node2 -->
<g id="edge1" class="edge">
<title>Node1&#45;&gt;Node2</title>
<path fill="none" stroke="midnightblue" d="M179.68,-15.5C170.77,-15.5 162.04,-15.5 154.01,-15.5"/>
<polygon fill="midnightblue" stroke="midnightblue" points="179.79,-19 189.79,-15.5 179.79,-12 179.79,-19"/>
</g>
<!-- Node3 -->
<g id="node3" class="node">
<title>Node3</title>
<g id="a_node3"><a xlink:href="main_8cpp.html#ae66f6b31b5ad750f1fe042a706a4e3d4" target="_top" xlink:title=" ">
<polygon fill="none" stroke="black" points="0,-6 0,-25 38,-25 38,-6 0,-6"/>
<text text-anchor="middle" x="19" y="-13" font-family="Helvetica,sans-Serif" font-size="10.00">main</text>
</a>
</g>
</g>
<!-- Node2&#45;&gt;Node3 -->
<g id="edge2" class="edge">
<title>Node2&#45;&gt;Node3</title>
<path fill="none" stroke="midnightblue" d="M63.65,-15.5C54.62,-15.5 45.73,-15.5 38.36,-15.5"/>
<polygon fill="midnightblue" stroke="midnightblue" points="63.83,-19 73.83,-15.5 63.83,-12 63.83,-19"/>
</g>
</g>
</svg>
