<?xml version="1.0" encoding="UTF-8" standalone="no"?>
<!DOCTYPE svg PUBLIC "-//W3C//DTD SVG 1.1//EN"
 "http://www.w3.org/Graphics/SVG/1.1/DTD/svg11.dtd">
<!-- Generated by graphviz version 4.0.0 (20220529.0937)
 -->
<!-- Title: SystemModel::SystemModel::getDerivativesOfBusFunctions Pages: 1 -->
<svg width="356pt" height="39pt"
 viewBox="0.00 0.00 356.00 39.00" xmlns="http://www.w3.org/2000/svg" xmlns:xlink="http://www.w3.org/1999/xlink">
<g id="graph0" class="graph" transform="scale(1 1) rotate(0) translate(4 35)">
<title>SystemModel::SystemModel::getDerivativesOfBusFunctions</title>
<!-- Node1 -->
<g id="node1" class="node">
<title>Node1</title>
<g id="a_node1"><a xlink:title="Gets the derivates of the bus functions (dfi_P/dx and dfi_Q/dx) for the desired bus (two rows of the ...">
<polygon fill="#bfbfbf" stroke="black" points="196,-0.5 196,-30.5 348,-30.5 348,-0.5 196,-0.5"/>
<text text-anchor="start" x="204" y="-18.5" font-family="Helvetica,sans-Serif" font-size="10.00">SystemModel::SystemModel</text>
<text text-anchor="middle" x="272" y="-7.5" font-family="Helvetica,sans-Serif" font-size="10.00">::getDerivativesOfBusFunctions</text>
</a>
</g>
</g>
<!-- Node2 -->
<g id="node2" class="node">
<title>Node2</title>
<g id="a_node2"><a xlink:href="newton_raphson_8cpp.html#ab389b0b2ae2bef9ae5c669fdf20a7e75" target="_top" xlink:title="Newton Raphson method">
<polygon fill="none" stroke="black" points="74,-6 74,-25 160,-25 160,-6 74,-6"/>
<text text-anchor="middle" x="117" y="-13" font-family="Helvetica,sans-Serif" font-size="10.00">newtonRaphson</text>
</a>
</g>
</g>
<!-- Node1&#45;&gt;Node2 -->
<g id="edge1" class="edge">
<title>Node1&#45;&gt;Node2</title>
<path fill="none" stroke="midnightblue" d="M185.82,-15.5C176.97,-15.5 168.28,-15.5 160.23,-15.5"/>
<polygon fill="midnightblue" stroke="midnightblue" points="185.84,-19 195.84,-15.5 185.84,-12 185.84,-19"/>
</g>
<!-- Node3 -->
<g id="node3" class="node">
<title>Node3</title>
<g id="a_node3"><a xlink:href="main_8cpp.html#ae66f6b31b5ad750f1fe042a706a4e3d4" target="_top" xlink:title=" ">
<polygon fill="none" stroke="black" points="0,-6 0,-25 38,-25 38,-6 0,-6"/>
<text text-anchor="middle" x="19" y="-13" font-family="Helvetica,sans-Serif" font-size="10.00">main</text>
</a>
</g>
</g>
<!-- Node2&#45;&gt;Node3 -->
<g id="edge2" class="edge">
<title>Node2&#45;&gt;Node3</title>
<path fill="none" stroke="midnightblue" d="M63.89,-15.5C54.68,-15.5 45.68,-15.5 38.24,-15.5"/>
<polygon fill="midnightblue" stroke="midnightblue" points="63.89,-19 73.89,-15.5 63.89,-12 63.89,-19"/>
</g>
</g>
</svg>
