<?xml version="1.0" encoding="UTF-8" standalone="no"?>
<!DOCTYPE svg PUBLIC "-//W3C//DTD SVG 1.1//EN"
 "http://www.w3.org/Graphics/SVG/1.1/DTD/svg11.dtd">
<!-- Generated by graphviz version 4.0.0 (20220529.0937)
 -->
<!-- Title: SystemModel::Bus::getVoltageMagnitude Pages: 1 -->
<svg width="276pt" height="104pt"
 viewBox="0.00 0.00 276.00 104.00" xmlns="http://www.w3.org/2000/svg" xmlns:xlink="http://www.w3.org/1999/xlink">
<g id="graph0" class="graph" transform="scale(1 1) rotate(0) translate(4 100)">
<title>SystemModel::Bus::getVoltageMagnitude</title>
<!-- Node1 -->
<g id="node1" class="node">
<title>Node1</title>
<g id="a_node1"><a xlink:title="Gets the value at which the voltage magnitude for the given bus should be maintained.">
<polygon fill="#bfbfbf" stroke="black" points="116,-33 116,-63 268,-63 268,-33 116,-33"/>
<text text-anchor="start" x="124" y="-51" font-family="Helvetica,sans-Serif" font-size="10.00">SystemModel::Bus::getVoltage</text>
<text text-anchor="middle" x="192" y="-40" font-family="Helvetica,sans-Serif" font-size="10.00">Magnitude</text>
</a>
</g>
</g>
<!-- Node2 -->
<g id="node2" class="node">
<title>Node2</title>
<g id="a_node2"><a xlink:href="export_8cpp.html#aab0355bdced3f8dc218a973c1047656c" target="_top" xlink:title="Exports SystemModel to the main.html file">
<polygon fill="none" stroke="black" points="0,-76.5 0,-95.5 80,-95.5 80,-76.5 0,-76.5"/>
<text text-anchor="middle" x="40" y="-83.5" font-family="Helvetica,sans-Serif" font-size="10.00">exportToHTML</text>
</a>
</g>
</g>
<!-- Node1&#45;&gt;Node2 -->
<g id="edge1" class="edge">
<title>Node1&#45;&gt;Node2</title>
<path fill="none" stroke="midnightblue" d="M122,-65.48C107.1,-69.25 91.89,-73.11 78.72,-76.44"/>
<polygon fill="midnightblue" stroke="midnightblue" points="122.88,-68.87 131.72,-63.02 121.16,-62.08 122.88,-68.87"/>
</g>
<!-- Node3 -->
<g id="node3" class="node">
<title>Node3</title>
<g id="a_node3"><a xlink:href="export_8cpp.html#a3670fd8e8918396eab76c759773bf210" target="_top" xlink:title="Exports SystemModel to the main.tex file">
<polygon fill="none" stroke="black" points="1,-38.5 1,-57.5 79,-57.5 79,-38.5 1,-38.5"/>
<text text-anchor="middle" x="40" y="-45.5" font-family="Helvetica,sans-Serif" font-size="10.00">exportToLatex</text>
</a>
</g>
</g>
<!-- Node1&#45;&gt;Node3 -->
<g id="edge2" class="edge">
<title>Node1&#45;&gt;Node3</title>
<path fill="none" stroke="midnightblue" d="M105.3,-48C96.27,-48 87.44,-48 79.37,-48"/>
<polygon fill="midnightblue" stroke="midnightblue" points="105.56,-51.5 115.56,-48 105.56,-44.5 105.56,-51.5"/>
</g>
<!-- Node4 -->
<g id="node4" class="node">
<title>Node4</title>
<g id="a_node4"><a xlink:href="export_8cpp.html#a878215740a86c16b0277e838fe4dc24f" target="_top" xlink:title="Exports SystemModel to the .tex file">
<polygon fill="none" stroke="black" points="6,-0.5 6,-19.5 74,-19.5 74,-0.5 6,-0.5"/>
<text text-anchor="middle" x="40" y="-7.5" font-family="Helvetica,sans-Serif" font-size="10.00">exportToTxt</text>
</a>
</g>
</g>
<!-- Node1&#45;&gt;Node4 -->
<g id="edge3" class="edge">
<title>Node1&#45;&gt;Node4</title>
<path fill="none" stroke="midnightblue" d="M121.56,-30.41C105.14,-26.25 88.36,-22 74.39,-18.46"/>
<polygon fill="midnightblue" stroke="midnightblue" points="121.16,-33.92 131.72,-32.98 122.88,-27.13 121.16,-33.92"/>
</g>
</g>
</svg>
