<?xml version="1.0" encoding="UTF-8" standalone="no"?>
<!DOCTYPE svg PUBLIC "-//W3C//DTD SVG 1.1//EN"
 "http://www.w3.org/Graphics/SVG/1.1/DTD/svg11.dtd">
<!-- Generated by graphviz version 4.0.0 (20220529.0937)
 -->
<!-- Title: SystemModel::SystemModel::getBranches Pages: 1 -->
<svg width="317pt" height="142pt"
 viewBox="0.00 0.00 317.00 142.00" xmlns="http://www.w3.org/2000/svg" xmlns:xlink="http://www.w3.org/1999/xlink">
<g id="graph0" class="graph" transform="scale(1 1) rotate(0) translate(4 138)">
<title>SystemModel::SystemModel::getBranches</title>
<!-- Node1 -->
<g id="node1" class="node">
<title>Node1</title>
<g id="a_node1"><a xlink:title=" ">
<polygon fill="#bfbfbf" stroke="black" points="166,-52 166,-82 309,-82 309,-52 166,-52"/>
<text text-anchor="start" x="174" y="-70" font-family="Helvetica,sans-Serif" font-size="10.00">SystemModel::SystemModel</text>
<text text-anchor="middle" x="237.5" y="-59" font-family="Helvetica,sans-Serif" font-size="10.00">::getBranches</text>
</a>
</g>
</g>
<!-- Node2 -->
<g id="node2" class="node">
<title>Node2</title>
<g id="a_node2"><a xlink:href="export_8cpp.html#aab0355bdced3f8dc218a973c1047656c" target="_top" xlink:title="Exports SystemModel to the main.html file">
<polygon fill="none" stroke="black" points="25,-114.5 25,-133.5 105,-133.5 105,-114.5 25,-114.5"/>
<text text-anchor="middle" x="65" y="-121.5" font-family="Helvetica,sans-Serif" font-size="10.00">exportToHTML</text>
</a>
</g>
</g>
<!-- Node1&#45;&gt;Node2 -->
<g id="edge1" class="edge">
<title>Node1&#45;&gt;Node2</title>
<path fill="none" stroke="midnightblue" d="M186.38,-85.51C168.64,-91.9 148.5,-98.96 130,-105 120.08,-108.24 109.23,-111.55 99.32,-114.48"/>
<polygon fill="midnightblue" stroke="midnightblue" points="187.75,-88.74 195.97,-82.04 185.37,-82.16 187.75,-88.74"/>
</g>
<!-- Node3 -->
<g id="node3" class="node">
<title>Node3</title>
<g id="a_node3"><a xlink:href="export_8cpp.html#a3670fd8e8918396eab76c759773bf210" target="_top" xlink:title="Exports SystemModel to the main.tex file">
<polygon fill="none" stroke="black" points="26,-76.5 26,-95.5 104,-95.5 104,-76.5 26,-76.5"/>
<text text-anchor="middle" x="65" y="-83.5" font-family="Helvetica,sans-Serif" font-size="10.00">exportToLatex</text>
</a>
</g>
</g>
<!-- Node1&#45;&gt;Node3 -->
<g id="edge2" class="edge">
<title>Node1&#45;&gt;Node3</title>
<path fill="none" stroke="midnightblue" d="M155.24,-76.06C137.44,-78.04 119.41,-80.05 104.25,-81.74"/>
<polygon fill="midnightblue" stroke="midnightblue" points="156.12,-79.48 165.67,-74.89 155.35,-72.52 156.12,-79.48"/>
</g>
<!-- Node4 -->
<g id="node4" class="node">
<title>Node4</title>
<g id="a_node4"><a xlink:href="export_8cpp.html#a878215740a86c16b0277e838fe4dc24f" target="_top" xlink:title="Exports SystemModel to the .tex file">
<polygon fill="none" stroke="black" points="31,-38.5 31,-57.5 99,-57.5 99,-38.5 31,-38.5"/>
<text text-anchor="middle" x="65" y="-45.5" font-family="Helvetica,sans-Serif" font-size="10.00">exportToTxt</text>
</a>
</g>
</g>
<!-- Node1&#45;&gt;Node4 -->
<g id="edge3" class="edge">
<title>Node1&#45;&gt;Node4</title>
<path fill="none" stroke="midnightblue" d="M155.61,-57.99C135.65,-55.76 115.37,-53.5 99.17,-51.7"/>
<polygon fill="midnightblue" stroke="midnightblue" points="155.35,-61.48 165.67,-59.11 156.12,-54.52 155.35,-61.48"/>
</g>
<!-- Node5 -->
<g id="node5" class="node">
<title>Node5</title>
<g id="a_node5"><a xlink:href="namespace_system_model.html#aea8bc330a108d18045e08a1a12853ae6" target="_top" xlink:title="Output stream operator overload">
<polygon fill="none" stroke="black" points="0,-0.5 0,-19.5 130,-19.5 130,-0.5 0,-0.5"/>
<text text-anchor="middle" x="65" y="-7.5" font-family="Helvetica,sans-Serif" font-size="10.00">SystemModel::operator&lt;&lt;</text>
</a>
</g>
</g>
<!-- Node1&#45;&gt;Node5 -->
<g id="edge4" class="edge">
<title>Node1&#45;&gt;Node5</title>
<path fill="none" stroke="midnightblue" d="M186.38,-48.49C168.64,-42.1 148.5,-35.04 130,-29 120.08,-25.76 109.23,-22.45 99.32,-19.52"/>
<polygon fill="midnightblue" stroke="midnightblue" points="185.37,-51.84 195.97,-51.96 187.75,-45.26 185.37,-51.84"/>
</g>
</g>
</svg>
