<?xml version="1.0" encoding="UTF-8" standalone="no"?>
<!DOCTYPE svg PUBLIC "-//W3C//DTD SVG 1.1//EN"
 "http://www.w3.org/Graphics/SVG/1.1/DTD/svg11.dtd">
<!-- Generated by graphviz version 4.0.0 (20220529.0937)
 -->
<!-- Title: SystemModel::SystemModel::getBus Pages: 1 -->
<svg width="341pt" height="142pt"
 viewBox="0.00 0.00 341.00 142.00" xmlns="http://www.w3.org/2000/svg" xmlns:xlink="http://www.w3.org/1999/xlink">
<g id="graph0" class="graph" transform="scale(1 1) rotate(0) translate(4 138)">
<title>SystemModel::SystemModel::getBus</title>
<!-- Node1 -->
<g id="node1" class="node">
<title>Node1</title>
<g id="a_node1"><a xlink:title="Gets the bus with the given bus number">
<polygon fill="#bfbfbf" stroke="black" points="190,-52 190,-82 333,-82 333,-52 190,-52"/>
<text text-anchor="start" x="198" y="-70" font-family="Helvetica,sans-Serif" font-size="10.00">SystemModel::SystemModel</text>
<text text-anchor="middle" x="261.5" y="-59" font-family="Helvetica,sans-Serif" font-size="10.00">::getBus</text>
</a>
</g>
</g>
<!-- Node2 -->
<g id="node2" class="node">
<title>Node2</title>
<g id="a_node2"><a xlink:href="export_8cpp.html#aab0355bdced3f8dc218a973c1047656c" target="_top" xlink:title="Exports SystemModel to the main.html file">
<polygon fill="none" stroke="black" points="74,-114.5 74,-133.5 154,-133.5 154,-114.5 74,-114.5"/>
<text text-anchor="middle" x="114" y="-121.5" font-family="Helvetica,sans-Serif" font-size="10.00">exportToHTML</text>
</a>
</g>
</g>
<!-- Node1&#45;&gt;Node2 -->
<g id="edge1" class="edge">
<title>Node1&#45;&gt;Node2</title>
<path fill="none" stroke="midnightblue" d="M212.43,-85.83C188.05,-95.38 159.47,-106.58 139.6,-114.36"/>
<polygon fill="midnightblue" stroke="midnightblue" points="213.86,-89.03 221.89,-82.13 211.3,-82.51 213.86,-89.03"/>
</g>
<!-- Node3 -->
<g id="node3" class="node">
<title>Node3</title>
<g id="a_node3"><a xlink:href="export_8cpp.html#a3670fd8e8918396eab76c759773bf210" target="_top" xlink:title="Exports SystemModel to the main.tex file">
<polygon fill="none" stroke="black" points="75,-76.5 75,-95.5 153,-95.5 153,-76.5 75,-76.5"/>
<text text-anchor="middle" x="114" y="-83.5" font-family="Helvetica,sans-Serif" font-size="10.00">exportToLatex</text>
</a>
</g>
</g>
<!-- Node1&#45;&gt;Node3 -->
<g id="edge2" class="edge">
<title>Node1&#45;&gt;Node3</title>
<path fill="none" stroke="midnightblue" d="M179.85,-77.53C170.65,-78.73 161.61,-79.91 153.34,-80.99"/>
<polygon fill="midnightblue" stroke="midnightblue" points="180.42,-80.99 189.88,-76.22 179.51,-74.05 180.42,-80.99"/>
</g>
<!-- Node4 -->
<g id="node4" class="node">
<title>Node4</title>
<g id="a_node4"><a xlink:href="export_8cpp.html#a878215740a86c16b0277e838fe4dc24f" target="_top" xlink:title="Exports SystemModel to the .tex file">
<polygon fill="none" stroke="black" points="80,-38.5 80,-57.5 148,-57.5 148,-38.5 80,-38.5"/>
<text text-anchor="middle" x="114" y="-45.5" font-family="Helvetica,sans-Serif" font-size="10.00">exportToTxt</text>
</a>
</g>
</g>
<!-- Node1&#45;&gt;Node4 -->
<g id="edge3" class="edge">
<title>Node1&#45;&gt;Node4</title>
<path fill="none" stroke="midnightblue" d="M179.95,-56.48C168.69,-55.01 157.69,-53.57 148.03,-52.31"/>
<polygon fill="midnightblue" stroke="midnightblue" points="179.51,-59.95 189.88,-57.78 180.42,-53.01 179.51,-59.95"/>
</g>
<!-- Node5 -->
<g id="node5" class="node">
<title>Node5</title>
<g id="a_node5"><a xlink:href="import_8cpp.html#aae2b99c7c85a430f4ab2915c0e66483d" target="_top" xlink:title="Imports SystemModel from the .txt file">
<polygon fill="none" stroke="black" points="74,-0.5 74,-19.5 154,-19.5 154,-0.5 74,-0.5"/>
<text text-anchor="middle" x="114" y="-7.5" font-family="Helvetica,sans-Serif" font-size="10.00">importFromTxt</text>
</a>
</g>
</g>
<!-- Node1&#45;&gt;Node5 -->
<g id="edge4" class="edge">
<title>Node1&#45;&gt;Node5</title>
<path fill="none" stroke="midnightblue" d="M212.43,-48.17C188.05,-38.62 159.47,-27.42 139.6,-19.64"/>
<polygon fill="midnightblue" stroke="midnightblue" points="211.3,-51.49 221.89,-51.87 213.86,-44.97 211.3,-51.49"/>
</g>
<!-- Node6 -->
<g id="node6" class="node">
<title>Node6</title>
<g id="a_node6"><a xlink:href="main_8cpp.html#ae66f6b31b5ad750f1fe042a706a4e3d4" target="_top" xlink:title=" ">
<polygon fill="none" stroke="black" points="0,-0.5 0,-19.5 38,-19.5 38,-0.5 0,-0.5"/>
<text text-anchor="middle" x="19" y="-7.5" font-family="Helvetica,sans-Serif" font-size="10.00">main</text>
</a>
</g>
</g>
<!-- Node5&#45;&gt;Node6 -->
<g id="edge5" class="edge">
<title>Node5&#45;&gt;Node6</title>
<path fill="none" stroke="midnightblue" d="M63.65,-10C54.62,-10 45.73,-10 38.36,-10"/>
<polygon fill="midnightblue" stroke="midnightblue" points="63.83,-13.5 73.83,-10 63.83,-6.5 63.83,-13.5"/>
</g>
</g>
</svg>
