<?xml version="1.0" encoding="UTF-8" standalone="no"?>
<!DOCTYPE svg PUBLIC "-//W3C//DTD SVG 1.1//EN"
 "http://www.w3.org/Graphics/SVG/1.1/DTD/svg11.dtd">
<!-- Generated by graphviz version 4.0.0 (20220529.0937)
 -->
<!-- Title: SystemModel::SystemModel::getNumberOfBuses Pages: 1 -->
<svg width="347pt" height="142pt"
 viewBox="0.00 0.00 347.00 142.00" xmlns="http://www.w3.org/2000/svg" xmlns:xlink="http://www.w3.org/1999/xlink">
<g id="graph0" class="graph" transform="scale(1 1) rotate(0) translate(4 138)">
<title>SystemModel::SystemModel::getNumberOfBuses</title>
<!-- Node1 -->
<g id="node1" class="node">
<title>Node1</title>
<g id="a_node1"><a xlink:title=" ">
<polygon fill="#bfbfbf" stroke="black" points="196,-52 196,-82 339,-82 339,-52 196,-52"/>
<text text-anchor="start" x="204" y="-70" font-family="Helvetica,sans-Serif" font-size="10.00">SystemModel::SystemModel</text>
<text text-anchor="middle" x="267.5" y="-59" font-family="Helvetica,sans-Serif" font-size="10.00">::getNumberOfBuses</text>
</a>
</g>
</g>
<!-- Node2 -->
<g id="node2" class="node">
<title>Node2</title>
<g id="a_node2"><a xlink:href="export_8cpp.html#aab0355bdced3f8dc218a973c1047656c" target="_top" xlink:title="Exports SystemModel to the main.html file">
<polygon fill="none" stroke="black" points="77,-114.5 77,-133.5 157,-133.5 157,-114.5 77,-114.5"/>
<text text-anchor="middle" x="117" y="-121.5" font-family="Helvetica,sans-Serif" font-size="10.00">exportToHTML</text>
</a>
</g>
</g>
<!-- Node1&#45;&gt;Node2 -->
<g id="edge1" class="edge">
<title>Node1&#45;&gt;Node2</title>
<path fill="none" stroke="midnightblue" d="M217.44,-85.83C192.56,-95.38 163.39,-106.58 143.11,-114.36"/>
<polygon fill="midnightblue" stroke="midnightblue" points="219.01,-88.98 227.09,-82.13 216.5,-82.44 219.01,-88.98"/>
</g>
<!-- Node3 -->
<g id="node3" class="node">
<title>Node3</title>
<g id="a_node3"><a xlink:href="export_8cpp.html#a3670fd8e8918396eab76c759773bf210" target="_top" xlink:title="Exports SystemModel to the main.tex file">
<polygon fill="none" stroke="black" points="78,-76.5 78,-95.5 156,-95.5 156,-76.5 78,-76.5"/>
<text text-anchor="middle" x="117" y="-83.5" font-family="Helvetica,sans-Serif" font-size="10.00">exportToLatex</text>
</a>
</g>
</g>
<!-- Node1&#45;&gt;Node3 -->
<g id="edge2" class="edge">
<title>Node1&#45;&gt;Node3</title>
<path fill="none" stroke="midnightblue" d="M185.53,-77.36C175.36,-78.66 165.36,-79.94 156.3,-81.1"/>
<polygon fill="midnightblue" stroke="midnightblue" points="186.25,-80.8 195.73,-76.05 185.37,-73.85 186.25,-80.8"/>
</g>
<!-- Node4 -->
<g id="node4" class="node">
<title>Node4</title>
<g id="a_node4"><a xlink:href="export_8cpp.html#a878215740a86c16b0277e838fe4dc24f" target="_top" xlink:title="Exports SystemModel to the .tex file">
<polygon fill="none" stroke="black" points="83,-38.5 83,-57.5 151,-57.5 151,-38.5 83,-38.5"/>
<text text-anchor="middle" x="117" y="-45.5" font-family="Helvetica,sans-Serif" font-size="10.00">exportToTxt</text>
</a>
</g>
</g>
<!-- Node1&#45;&gt;Node4 -->
<g id="edge3" class="edge">
<title>Node1&#45;&gt;Node4</title>
<path fill="none" stroke="midnightblue" d="M185.53,-56.64C173.43,-55.09 161.56,-53.57 151.23,-52.25"/>
<polygon fill="midnightblue" stroke="midnightblue" points="185.37,-60.15 195.73,-57.95 186.25,-53.2 185.37,-60.15"/>
</g>
<!-- Node5 -->
<g id="node5" class="node">
<title>Node5</title>
<g id="a_node5"><a xlink:href="newton_raphson_8cpp.html#ab389b0b2ae2bef9ae5c669fdf20a7e75" target="_top" xlink:title="Newton Raphson method">
<polygon fill="none" stroke="black" points="74,-0.5 74,-19.5 160,-19.5 160,-0.5 74,-0.5"/>
<text text-anchor="middle" x="117" y="-7.5" font-family="Helvetica,sans-Serif" font-size="10.00">newtonRaphson</text>
</a>
</g>
</g>
<!-- Node1&#45;&gt;Node5 -->
<g id="edge4" class="edge">
<title>Node1&#45;&gt;Node5</title>
<path fill="none" stroke="midnightblue" d="M217.44,-48.17C192.56,-38.62 163.39,-27.42 143.11,-19.64"/>
<polygon fill="midnightblue" stroke="midnightblue" points="216.5,-51.56 227.09,-51.87 219.01,-45.02 216.5,-51.56"/>
</g>
<!-- Node6 -->
<g id="node6" class="node">
<title>Node6</title>
<g id="a_node6"><a xlink:href="main_8cpp.html#ae66f6b31b5ad750f1fe042a706a4e3d4" target="_top" xlink:title=" ">
<polygon fill="none" stroke="black" points="0,-0.5 0,-19.5 38,-19.5 38,-0.5 0,-0.5"/>
<text text-anchor="middle" x="19" y="-7.5" font-family="Helvetica,sans-Serif" font-size="10.00">main</text>
</a>
</g>
</g>
<!-- Node5&#45;&gt;Node6 -->
<g id="edge5" class="edge">
<title>Node5&#45;&gt;Node6</title>
<path fill="none" stroke="midnightblue" d="M63.89,-10C54.68,-10 45.68,-10 38.24,-10"/>
<polygon fill="midnightblue" stroke="midnightblue" points="63.89,-13.5 73.89,-10 63.89,-6.5 63.89,-13.5"/>
</g>
</g>
</svg>
