<?xml version="1.0" encoding="UTF-8" standalone="no"?>
<!DOCTYPE svg PUBLIC "-//W3C//DTD SVG 1.1//EN"
 "http://www.w3.org/Graphics/SVG/1.1/DTD/svg11.dtd">
<!-- Generated by graphviz version 4.0.0 (20220529.0937)
 -->
<!-- Title: export.cpp Pages: 1 -->
<svg width="383pt" height="196pt"
 viewBox="0.00 0.00 383.00 196.00" xmlns="http://www.w3.org/2000/svg" xmlns:xlink="http://www.w3.org/1999/xlink">
<g id="graph0" class="graph" transform="scale(1 1) rotate(0) translate(4 192)">
<title>export.cpp</title>
<!-- Node1 -->
<g id="node1" class="node">
<title>Node1</title>
<g id="a_node1"><a xlink:title=" ">
<polygon fill="#bfbfbf" stroke="black" points="173,-168.5 173,-187.5 235,-187.5 235,-168.5 173,-168.5"/>
<text text-anchor="middle" x="204" y="-175.5" font-family="Helvetica,sans-Serif" font-size="10.00">export.cpp</text>
</a>
</g>
</g>
<!-- Node2 -->
<g id="node2" class="node">
<title>Node2</title>
<g id="a_node2"><a xlink:href="export_8h.html" target="_top" xlink:title=" ">
<polygon fill="none" stroke="black" points="105,-112.5 105,-131.5 157,-131.5 157,-112.5 105,-112.5"/>
<text text-anchor="middle" x="131" y="-119.5" font-family="Helvetica,sans-Serif" font-size="10.00">export.h</text>
</a>
</g>
</g>
<!-- Node1&#45;&gt;Node2 -->
<g id="edge1" class="edge">
<title>Node1&#45;&gt;Node2</title>
<path fill="none" stroke="midnightblue" d="M192.27,-168.32C181.16,-160.11 164.26,-147.6 151.02,-137.81"/>
<polygon fill="midnightblue" stroke="midnightblue" points="153.06,-134.97 142.94,-131.83 148.9,-140.59 153.06,-134.97"/>
</g>
<!-- Node3 -->
<g id="node3" class="node">
<title>Node3</title>
<g id="a_node3"><a xlink:title=" ">
<polygon fill="none" stroke="#bfbfbf" points="39.5,-56.5 39.5,-75.5 88.5,-75.5 88.5,-56.5 39.5,-56.5"/>
<text text-anchor="middle" x="64" y="-63.5" font-family="Helvetica,sans-Serif" font-size="10.00">fstream</text>
</a>
</g>
</g>
<!-- Node1&#45;&gt;Node3 -->
<g id="edge14" class="edge">
<title>Node1&#45;&gt;Node3</title>
<path fill="none" stroke="midnightblue" d="M172.8,-170.33C149.27,-163.92 117.47,-152.16 96,-132 82.56,-119.37 74.02,-99.89 69.17,-85.54"/>
<polygon fill="midnightblue" stroke="midnightblue" points="72.45,-84.3 66.17,-75.77 65.76,-86.36 72.45,-84.3"/>
</g>
<!-- Node4 -->
<g id="node4" class="node">
<title>Node4</title>
<g id="a_node4"><a xlink:title=" ">
<polygon fill="none" stroke="#bfbfbf" points="107,-56.5 107,-75.5 161,-75.5 161,-56.5 107,-56.5"/>
<text text-anchor="middle" x="134" y="-63.5" font-family="Helvetica,sans-Serif" font-size="10.00">iostream</text>
</a>
</g>
</g>
<!-- Node1&#45;&gt;Node4 -->
<g id="edge13" class="edge">
<title>Node1&#45;&gt;Node4</title>
<path fill="none" stroke="midnightblue" d="M199.32,-168.44C192.37,-155.87 178.77,-131.76 166,-112 159.89,-102.54 152.64,-92.28 146.6,-83.95"/>
<polygon fill="midnightblue" stroke="midnightblue" points="149.35,-81.79 140.61,-75.8 143.71,-85.94 149.35,-81.79"/>
</g>
<!-- Node5 -->
<g id="node5" class="node">
<title>Node5</title>
<g id="a_node5"><a xlink:href="system_model_8h.html" target="_top" xlink:title=" ">
<polygon fill="none" stroke="black" points="179.5,-56.5 179.5,-75.5 262.5,-75.5 262.5,-56.5 179.5,-56.5"/>
<text text-anchor="middle" x="221" y="-63.5" font-family="Helvetica,sans-Serif" font-size="10.00">systemModel.h</text>
</a>
</g>
</g>
<!-- Node1&#45;&gt;Node5 -->
<g id="edge11" class="edge">
<title>Node1&#45;&gt;Node5</title>
<path fill="none" stroke="midnightblue" d="M205.33,-168.37C208.08,-150.62 214.41,-109.67 218.13,-85.6"/>
<polygon fill="midnightblue" stroke="midnightblue" points="221.6,-86.01 219.67,-75.59 214.69,-84.94 221.6,-86.01"/>
</g>
<!-- Node11 -->
<g id="node11" class="node">
<title>Node11</title>
<g id="a_node11"><a xlink:title=" ">
<polygon fill="none" stroke="#bfbfbf" points="334,-0.5 334,-19.5 372,-19.5 372,-0.5 334,-0.5"/>
<text text-anchor="middle" x="353" y="-7.5" font-family="Helvetica,sans-Serif" font-size="10.00">tuple</text>
</a>
</g>
</g>
<!-- Node1&#45;&gt;Node11 -->
<g id="edge15" class="edge">
<title>Node1&#45;&gt;Node11</title>
<path fill="none" stroke="midnightblue" d="M212.01,-168.08C235.97,-141.38 307.34,-61.87 338.35,-27.32"/>
<polygon fill="midnightblue" stroke="midnightblue" points="341.23,-29.35 345.31,-19.57 336.02,-24.67 341.23,-29.35"/>
</g>
<!-- Node12 -->
<g id="node12" class="node">
<title>Node12</title>
<g id="a_node12"><a xlink:title=" ">
<polygon fill="none" stroke="#bfbfbf" points="319,-112.5 319,-131.5 375,-131.5 375,-112.5 319,-112.5"/>
<text text-anchor="middle" x="347" y="-119.5" font-family="Helvetica,sans-Serif" font-size="10.00">algorithm</text>
</a>
</g>
</g>
<!-- Node1&#45;&gt;Node12 -->
<g id="edge12" class="edge">
<title>Node1&#45;&gt;Node12</title>
<path fill="none" stroke="midnightblue" d="M226.66,-168.44C250.4,-159.48 287.91,-145.31 314.74,-135.18"/>
<polygon fill="midnightblue" stroke="midnightblue" points="316.33,-138.32 324.45,-131.52 313.86,-131.77 316.33,-138.32"/>
</g>
<!-- Node2&#45;&gt;Node3 -->
<g id="edge2" class="edge">
<title>Node2&#45;&gt;Node3</title>
<path fill="none" stroke="midnightblue" d="M120.24,-112.32C110.23,-104.26 95.11,-92.08 83.07,-82.37"/>
<polygon fill="midnightblue" stroke="midnightblue" points="84.94,-79.38 74.96,-75.83 80.55,-84.83 84.94,-79.38"/>
</g>
<!-- Node2&#45;&gt;Node4 -->
<g id="edge3" class="edge">
<title>Node2&#45;&gt;Node4</title>
<path fill="none" stroke="midnightblue" d="M131.5,-112.08C131.89,-105.01 132.45,-94.86 132.95,-85.99"/>
<polygon fill="midnightblue" stroke="midnightblue" points="136.45,-85.93 133.51,-75.75 129.46,-85.54 136.45,-85.93"/>
</g>
<!-- Node2&#45;&gt;Node5 -->
<g id="edge4" class="edge">
<title>Node2&#45;&gt;Node5</title>
<path fill="none" stroke="midnightblue" d="M145.46,-112.32C159.5,-103.9 181.05,-90.97 197.54,-81.07"/>
<polygon fill="midnightblue" stroke="midnightblue" points="199.8,-83.8 206.58,-75.65 196.2,-77.8 199.8,-83.8"/>
</g>
<!-- Node6 -->
<g id="node6" class="node">
<title>Node6</title>
<g id="a_node6"><a xlink:title=" ">
<polygon fill="none" stroke="#bfbfbf" points="134,-0.5 134,-19.5 176,-19.5 176,-0.5 134,-0.5"/>
<text text-anchor="middle" x="155" y="-7.5" font-family="Helvetica,sans-Serif" font-size="10.00">vector</text>
</a>
</g>
</g>
<!-- Node5&#45;&gt;Node6 -->
<g id="edge5" class="edge">
<title>Node5&#45;&gt;Node6</title>
<path fill="none" stroke="midnightblue" d="M210.4,-56.32C200.54,-48.26 185.65,-36.08 173.78,-26.37"/>
<polygon fill="midnightblue" stroke="midnightblue" points="175.75,-23.46 165.8,-19.83 171.32,-28.88 175.75,-23.46"/>
</g>
<!-- Node7 -->
<g id="node7" class="node">
<title>Node7</title>
<g id="a_node7"><a xlink:title=" ">
<polygon fill="none" stroke="#bfbfbf" points="194.5,-0.5 194.5,-19.5 247.5,-19.5 247.5,-0.5 194.5,-0.5"/>
<text text-anchor="middle" x="221" y="-7.5" font-family="Helvetica,sans-Serif" font-size="10.00">complex</text>
</a>
</g>
</g>
<!-- Node5&#45;&gt;Node7 -->
<g id="edge6" class="edge">
<title>Node5&#45;&gt;Node7</title>
<path fill="none" stroke="midnightblue" d="M221,-56.08C221,-49.01 221,-38.86 221,-29.99"/>
<polygon fill="midnightblue" stroke="midnightblue" points="224.5,-29.75 221,-19.75 217.5,-29.75 224.5,-29.75"/>
</g>
<!-- Node8 -->
<g id="node8" class="node">
<title>Node8</title>
<g id="a_node8"><a xlink:title=" ">
<polygon fill="none" stroke="#bfbfbf" points="266,-0.5 266,-19.5 316,-19.5 316,-0.5 266,-0.5"/>
<text text-anchor="middle" x="291" y="-7.5" font-family="Helvetica,sans-Serif" font-size="10.00">optional</text>
</a>
</g>
</g>
<!-- Node5&#45;&gt;Node8 -->
<g id="edge7" class="edge">
<title>Node5&#45;&gt;Node8</title>
<path fill="none" stroke="midnightblue" d="M232.25,-56.32C242.8,-48.18 258.8,-35.84 271.44,-26.09"/>
<polygon fill="midnightblue" stroke="midnightblue" points="273.77,-28.71 279.55,-19.83 269.49,-23.17 273.77,-28.71"/>
</g>
<!-- Node9 -->
<g id="node9" class="node">
<title>Node9</title>
<g id="a_node9"><a xlink:title=" ">
<polygon fill="none" stroke="#bfbfbf" points="0,-0.5 0,-19.5 58,-19.5 58,-0.5 0,-0.5"/>
<text text-anchor="middle" x="29" y="-7.5" font-family="Helvetica,sans-Serif" font-size="10.00">functional</text>
</a>
</g>
</g>
<!-- Node5&#45;&gt;Node9 -->
<g id="edge8" class="edge">
<title>Node5&#45;&gt;Node9</title>
<path fill="none" stroke="midnightblue" d="M190.58,-56.44C157.33,-47.09 103.98,-32.09 67.76,-21.9"/>
<polygon fill="midnightblue" stroke="midnightblue" points="68.6,-18.5 58.02,-19.16 66.7,-25.24 68.6,-18.5"/>
</g>
<!-- Node10 -->
<g id="node10" class="node">
<title>Node10</title>
<g id="a_node10"><a xlink:title=" ">
<polygon fill="none" stroke="#bfbfbf" points="76,-0.5 76,-19.5 116,-19.5 116,-0.5 76,-0.5"/>
<text text-anchor="middle" x="96" y="-7.5" font-family="Helvetica,sans-Serif" font-size="10.00">utility</text>
</a>
</g>
</g>
<!-- Node5&#45;&gt;Node10 -->
<g id="edge9" class="edge">
<title>Node5&#45;&gt;Node10</title>
<path fill="none" stroke="midnightblue" d="M201.19,-56.44C180.71,-47.6 148.52,-33.69 125.14,-23.59"/>
<polygon fill="midnightblue" stroke="midnightblue" points="126.28,-20.27 115.71,-19.52 123.51,-26.7 126.28,-20.27"/>
</g>
<!-- Node5&#45;&gt;Node11 -->
<g id="edge10" class="edge">
<title>Node5&#45;&gt;Node11</title>
<path fill="none" stroke="midnightblue" d="M241.92,-56.44C264.25,-47.31 299.78,-32.77 324.62,-22.61"/>
<polygon fill="midnightblue" stroke="midnightblue" points="325.97,-25.84 333.9,-18.82 323.32,-19.36 325.97,-25.84"/>
</g>
</g>
</svg>
