<?xml version="1.0" encoding="UTF-8" standalone="no"?>
<!DOCTYPE svg PUBLIC "-//W3C//DTD SVG 1.1//EN"
 "http://www.w3.org/Graphics/SVG/1.1/DTD/svg11.dtd">
<!-- Generated by graphviz version 4.0.0 (20220529.0937)
 -->
<!-- Title: exportToLatex Pages: 1 -->
<svg width="278pt" height="480pt"
 viewBox="0.00 0.00 278.00 480.00" xmlns="http://www.w3.org/2000/svg" xmlns:xlink="http://www.w3.org/1999/xlink">
<g id="graph0" class="graph" transform="scale(1 1) rotate(0) translate(4 476)">
<title>exportToLatex</title>
<!-- Node1 -->
<g id="node1" class="node">
<title>Node1</title>
<g id="a_node1"><a xlink:title="Exports SystemModel to the main.tex file">
<polygon fill="#bfbfbf" stroke="black" points="0,-226 0,-245 78,-245 78,-226 0,-226"/>
<text text-anchor="middle" x="39" y="-233" font-family="Helvetica,sans-Serif" font-size="10.00">exportToLatex</text>
</a>
</g>
</g>
<!-- Node2 -->
<g id="node2" class="node">
<title>Node2</title>
<g id="a_node2"><a xlink:href="class_system_model_1_1_bus.html#ab98a448ce881b4d848d9a5f7503cf958" target="_top" xlink:title="Gets the value at which the active power for the given bus should be maintained.">
<polygon fill="none" stroke="black" points="119,-441.5 119,-471.5 265,-471.5 265,-441.5 119,-441.5"/>
<text text-anchor="start" x="127" y="-459.5" font-family="Helvetica,sans-Serif" font-size="10.00">SystemModel::Bus::getActive</text>
<text text-anchor="middle" x="192" y="-448.5" font-family="Helvetica,sans-Serif" font-size="10.00">Power</text>
</a>
</g>
</g>
<!-- Node1&#45;&gt;Node2 -->
<g id="edge1" class="edge">
<title>Node1&#45;&gt;Node2</title>
<path fill="none" stroke="midnightblue" d="M40.73,-245.33C43.64,-277.22 57.16,-378.82 114,-432.5 115.26,-433.69 116.58,-434.82 117.95,-435.9"/>
<polygon fill="midnightblue" stroke="midnightblue" points="116,-438.81 126.26,-441.46 119.89,-432.99 116,-438.81"/>
</g>
<!-- Node3 -->
<g id="node3" class="node">
<title>Node3</title>
<g id="a_node3"><a xlink:href="class_system_model_1_1_system_model.html#afefb1be12e73649fa402951743ef0490" target="_top" xlink:title=" ">
<polygon fill="none" stroke="black" points="120.5,-392.5 120.5,-422.5 263.5,-422.5 263.5,-392.5 120.5,-392.5"/>
<text text-anchor="start" x="128.5" y="-410.5" font-family="Helvetica,sans-Serif" font-size="10.00">SystemModel::SystemModel</text>
<text text-anchor="middle" x="192" y="-399.5" font-family="Helvetica,sans-Serif" font-size="10.00">::getAdmittanceMatrix</text>
</a>
</g>
</g>
<!-- Node1&#45;&gt;Node3 -->
<g id="edge2" class="edge">
<title>Node1&#45;&gt;Node3</title>
<path fill="none" stroke="midnightblue" d="M42.03,-245.08C48.08,-271.28 68.48,-344.79 114,-383.5 115.52,-384.79 117.11,-386.02 118.76,-387.17"/>
<polygon fill="midnightblue" stroke="midnightblue" points="117.04,-390.23 127.4,-392.43 120.68,-384.24 117.04,-390.23"/>
</g>
<!-- Node4 -->
<g id="node4" class="node">
<title>Node4</title>
<g id="a_node4"><a xlink:href="class_system_model_1_1_system_model.html#a6dcd8db16543251dfc280b489a39d3db" target="_top" xlink:title=" ">
<polygon fill="none" stroke="black" points="120.5,-343.5 120.5,-373.5 263.5,-373.5 263.5,-343.5 120.5,-343.5"/>
<text text-anchor="start" x="128.5" y="-361.5" font-family="Helvetica,sans-Serif" font-size="10.00">SystemModel::SystemModel</text>
<text text-anchor="middle" x="192" y="-350.5" font-family="Helvetica,sans-Serif" font-size="10.00">::getBranches</text>
</a>
</g>
</g>
<!-- Node1&#45;&gt;Node4 -->
<g id="edge3" class="edge">
<title>Node1&#45;&gt;Node4</title>
<path fill="none" stroke="midnightblue" d="M44.63,-245.26C54.53,-265.08 79.66,-310.22 114,-334.5 116.1,-335.99 118.3,-337.38 120.56,-338.69"/>
<polygon fill="midnightblue" stroke="midnightblue" points="119.11,-341.88 129.6,-343.34 122.31,-335.66 119.11,-341.88"/>
</g>
<!-- Node5 -->
<g id="node5" class="node">
<title>Node5</title>
<g id="a_node5"><a xlink:href="class_system_model_1_1_system_model.html#abff800354c4ef998f396f313de1e6e70" target="_top" xlink:title="Gets the bus with the given bus number">
<polygon fill="none" stroke="black" points="120.5,-294.5 120.5,-324.5 263.5,-324.5 263.5,-294.5 120.5,-294.5"/>
<text text-anchor="start" x="128.5" y="-312.5" font-family="Helvetica,sans-Serif" font-size="10.00">SystemModel::SystemModel</text>
<text text-anchor="middle" x="192" y="-301.5" font-family="Helvetica,sans-Serif" font-size="10.00">::getBus</text>
</a>
</g>
</g>
<!-- Node1&#45;&gt;Node5 -->
<g id="edge4" class="edge">
<title>Node1&#45;&gt;Node5</title>
<path fill="none" stroke="midnightblue" d="M51.9,-245.16C65.99,-256.21 90.52,-274.21 114,-285.5 117.83,-287.34 121.84,-289.09 125.93,-290.73"/>
<polygon fill="midnightblue" stroke="midnightblue" points="124.97,-294.11 135.56,-294.37 127.45,-287.56 124.97,-294.11"/>
</g>
<!-- Node6 -->
<g id="node6" class="node">
<title>Node6</title>
<g id="a_node6"><a xlink:href="class_system_model_1_1_system_model.html#aeac1243543078dfac02052bc1c94bb21" target="_top" xlink:title=" ">
<polygon fill="none" stroke="black" points="120.5,-245.5 120.5,-275.5 263.5,-275.5 263.5,-245.5 120.5,-245.5"/>
<text text-anchor="start" x="128.5" y="-263.5" font-family="Helvetica,sans-Serif" font-size="10.00">SystemModel::SystemModel</text>
<text text-anchor="middle" x="192" y="-252.5" font-family="Helvetica,sans-Serif" font-size="10.00">::getCapacitorBanks</text>
</a>
</g>
</g>
<!-- Node1&#45;&gt;Node6 -->
<g id="edge5" class="edge">
<title>Node1&#45;&gt;Node6</title>
<path fill="none" stroke="midnightblue" d="M78.1,-241.81C88.04,-243.45 99.13,-245.29 110.37,-247.15"/>
<polygon fill="midnightblue" stroke="midnightblue" points="109.82,-250.61 120.26,-248.79 110.97,-243.7 109.82,-250.61"/>
</g>
<!-- Node7 -->
<g id="node7" class="node">
<title>Node7</title>
<g id="a_node7"><a xlink:href="class_system_model_1_1_system_model.html#a33c3e50a81ee0a32624237515f111b09" target="_top" xlink:title=" ">
<polygon fill="none" stroke="black" points="120.5,-196.5 120.5,-226.5 263.5,-226.5 263.5,-196.5 120.5,-196.5"/>
<text text-anchor="start" x="128.5" y="-214.5" font-family="Helvetica,sans-Serif" font-size="10.00">SystemModel::SystemModel</text>
<text text-anchor="middle" x="192" y="-203.5" font-family="Helvetica,sans-Serif" font-size="10.00">::getNumberOfBuses</text>
</a>
</g>
</g>
<!-- Node1&#45;&gt;Node7 -->
<g id="edge6" class="edge">
<title>Node1&#45;&gt;Node7</title>
<path fill="none" stroke="midnightblue" d="M78.1,-229.44C88.04,-227.86 99.13,-226.1 110.37,-224.32"/>
<polygon fill="midnightblue" stroke="midnightblue" points="110.93,-227.77 120.26,-222.74 109.83,-220.86 110.93,-227.77"/>
</g>
<!-- Node8 -->
<g id="node8" class="node">
<title>Node8</title>
<g id="a_node8"><a xlink:href="class_system_model_1_1_bus.html#abb4365fd778d0ec14a91c1b589730fc5" target="_top" xlink:title="Gets the value at which the rective power for the given bus should be maintained.">
<polygon fill="none" stroke="black" points="114,-147.5 114,-177.5 270,-177.5 270,-147.5 114,-147.5"/>
<text text-anchor="start" x="122" y="-165.5" font-family="Helvetica,sans-Serif" font-size="10.00">SystemModel::Bus::getReactive</text>
<text text-anchor="middle" x="192" y="-154.5" font-family="Helvetica,sans-Serif" font-size="10.00">Power</text>
</a>
</g>
</g>
<!-- Node1&#45;&gt;Node8 -->
<g id="edge7" class="edge">
<title>Node1&#45;&gt;Node8</title>
<path fill="none" stroke="midnightblue" d="M52.5,-225.93C66.75,-215.37 91.05,-198.43 114,-187.5 118.64,-185.29 123.52,-183.2 128.49,-181.24"/>
<polygon fill="midnightblue" stroke="midnightblue" points="129.96,-184.43 138.09,-177.64 127.5,-177.88 129.96,-184.43"/>
</g>
<!-- Node9 -->
<g id="node9" class="node">
<title>Node9</title>
<g id="a_node9"><a xlink:href="class_system_model_1_1_bus.html#a9d9ceefec6428e1a56bbdba29952dd3f" target="_top" xlink:title=" ">
<polygon fill="none" stroke="black" points="122,-98.5 122,-128.5 262,-128.5 262,-98.5 122,-98.5"/>
<text text-anchor="start" x="130" y="-116.5" font-family="Helvetica,sans-Serif" font-size="10.00">SystemModel::Bus::getType</text>
<text text-anchor="middle" x="192" y="-105.5" font-family="Helvetica,sans-Serif" font-size="10.00">OfBus</text>
</a>
</g>
</g>
<!-- Node1&#45;&gt;Node9 -->
<g id="edge8" class="edge">
<title>Node1&#45;&gt;Node9</title>
<path fill="none" stroke="midnightblue" d="M44.71,-225.97C54.74,-206.61 80.13,-162.5 114,-138.5 116.69,-136.59 119.54,-134.82 122.5,-133.18"/>
<polygon fill="midnightblue" stroke="midnightblue" points="124.22,-136.23 131.61,-128.64 121.1,-129.97 124.22,-136.23"/>
</g>
<!-- Node10 -->
<g id="node10" class="node">
<title>Node10</title>
<g id="a_node10"><a xlink:href="class_system_model_1_1_bus.html#a7a9aa30d65cf94cdfcb180899c14bece" target="_top" xlink:title="Gets the value at which the voltage magnitude for the given bus should be maintained.">
<polygon fill="none" stroke="black" points="116,-49.5 116,-79.5 268,-79.5 268,-49.5 116,-49.5"/>
<text text-anchor="start" x="124" y="-67.5" font-family="Helvetica,sans-Serif" font-size="10.00">SystemModel::Bus::getVoltage</text>
<text text-anchor="middle" x="192" y="-56.5" font-family="Helvetica,sans-Serif" font-size="10.00">Magnitude</text>
</a>
</g>
</g>
<!-- Node1&#45;&gt;Node10 -->
<g id="edge9" class="edge">
<title>Node1&#45;&gt;Node10</title>
<path fill="none" stroke="midnightblue" d="M42.18,-225.7C48.51,-199.6 69.31,-127.75 114,-89.5 115.96,-87.82 118.04,-86.25 120.21,-84.79"/>
<polygon fill="midnightblue" stroke="midnightblue" points="122.09,-87.74 128.94,-79.66 118.55,-81.71 122.09,-87.74"/>
</g>
<!-- Node11 -->
<g id="node11" class="node">
<title>Node11</title>
<g id="a_node11"><a xlink:href="class_system_model_1_1_bus.html#a5834ba72064d3e866662c4faedfeb308" target="_top" xlink:title="Gets the value at which the voltage phase for the given bus should be maintained.">
<polygon fill="none" stroke="black" points="116,-0.5 116,-30.5 268,-30.5 268,-0.5 116,-0.5"/>
<text text-anchor="start" x="124" y="-18.5" font-family="Helvetica,sans-Serif" font-size="10.00">SystemModel::Bus::getVoltage</text>
<text text-anchor="middle" x="192" y="-7.5" font-family="Helvetica,sans-Serif" font-size="10.00">Phase</text>
</a>
</g>
</g>
<!-- Node1&#45;&gt;Node11 -->
<g id="edge10" class="edge">
<title>Node1&#45;&gt;Node11</title>
<path fill="none" stroke="midnightblue" d="M40.79,-225.79C43.88,-194.3 57.89,-93.94 114,-40.5 115.65,-38.92 117.41,-37.45 119.24,-36.07"/>
<polygon fill="midnightblue" stroke="midnightblue" points="121.24,-38.94 127.75,-30.58 117.45,-33.06 121.24,-38.94"/>
</g>
</g>
</svg>
