<?xml version="1.0" encoding="UTF-8" standalone="no"?>
<!DOCTYPE svg PUBLIC "-//W3C//DTD SVG 1.1//EN"
 "http://www.w3.org/Graphics/SVG/1.1/DTD/svg11.dtd">
<!-- Generated by graphviz version 4.0.0 (20220529.0937)
 -->
<!-- Title: exportToTxt Pages: 1 -->
<svg width="268pt" height="431pt"
 viewBox="0.00 0.00 268.00 431.00" xmlns="http://www.w3.org/2000/svg" xmlns:xlink="http://www.w3.org/1999/xlink">
<g id="graph0" class="graph" transform="scale(1 1) rotate(0) translate(4 427)">
<title>exportToTxt</title>
<!-- Node1 -->
<g id="node1" class="node">
<title>Node1</title>
<g id="a_node1"><a xlink:title="Exports SystemModel to the .tex file">
<polygon fill="#bfbfbf" stroke="black" points="0,-202 0,-221 68,-221 68,-202 0,-202"/>
<text text-anchor="middle" x="34" y="-209" font-family="Helvetica,sans-Serif" font-size="10.00">exportToTxt</text>
</a>
</g>
</g>
<!-- Node2 -->
<g id="node2" class="node">
<title>Node2</title>
<g id="a_node2"><a xlink:href="class_system_model_1_1_bus.html#ab98a448ce881b4d848d9a5f7503cf958" target="_top" xlink:title="Gets the value at which the active power for the given bus should be maintained.">
<polygon fill="none" stroke="black" points="109,-392.5 109,-422.5 255,-422.5 255,-392.5 109,-392.5"/>
<text text-anchor="start" x="117" y="-410.5" font-family="Helvetica,sans-Serif" font-size="10.00">SystemModel::Bus::getActive</text>
<text text-anchor="middle" x="182" y="-399.5" font-family="Helvetica,sans-Serif" font-size="10.00">Power</text>
</a>
</g>
</g>
<!-- Node1&#45;&gt;Node2 -->
<g id="edge1" class="edge">
<title>Node1&#45;&gt;Node2</title>
<path fill="none" stroke="midnightblue" d="M36.02,-221.31C39.59,-250.46 54.13,-337.44 104,-383.5 105.27,-384.68 106.6,-385.79 107.98,-386.86"/>
<polygon fill="midnightblue" stroke="midnightblue" points="106.07,-389.79 116.34,-392.37 109.92,-383.94 106.07,-389.79"/>
</g>
<!-- Node3 -->
<g id="node3" class="node">
<title>Node3</title>
<g id="a_node3"><a xlink:href="class_system_model_1_1_system_model.html#a6dcd8db16543251dfc280b489a39d3db" target="_top" xlink:title=" ">
<polygon fill="none" stroke="black" points="110.5,-343.5 110.5,-373.5 253.5,-373.5 253.5,-343.5 110.5,-343.5"/>
<text text-anchor="start" x="118.5" y="-361.5" font-family="Helvetica,sans-Serif" font-size="10.00">SystemModel::SystemModel</text>
<text text-anchor="middle" x="182" y="-350.5" font-family="Helvetica,sans-Serif" font-size="10.00">::getBranches</text>
</a>
</g>
</g>
<!-- Node1&#45;&gt;Node3 -->
<g id="edge2" class="edge">
<title>Node1&#45;&gt;Node3</title>
<path fill="none" stroke="midnightblue" d="M37.68,-221.11C44.62,-244.2 65.38,-303.21 104,-334.5 105.59,-335.79 107.25,-337.01 108.97,-338.16"/>
<polygon fill="midnightblue" stroke="midnightblue" points="107.56,-341.4 117.96,-343.41 111.09,-335.35 107.56,-341.4"/>
</g>
<!-- Node4 -->
<g id="node4" class="node">
<title>Node4</title>
<g id="a_node4"><a xlink:href="class_system_model_1_1_system_model.html#abff800354c4ef998f396f313de1e6e70" target="_top" xlink:title="Gets the bus with the given bus number">
<polygon fill="none" stroke="black" points="110.5,-294.5 110.5,-324.5 253.5,-324.5 253.5,-294.5 110.5,-294.5"/>
<text text-anchor="start" x="118.5" y="-312.5" font-family="Helvetica,sans-Serif" font-size="10.00">SystemModel::SystemModel</text>
<text text-anchor="middle" x="182" y="-301.5" font-family="Helvetica,sans-Serif" font-size="10.00">::getBus</text>
</a>
</g>
</g>
<!-- Node1&#45;&gt;Node4 -->
<g id="edge3" class="edge">
<title>Node1&#45;&gt;Node4</title>
<path fill="none" stroke="midnightblue" d="M41.45,-221.17C52.45,-236.93 76.34,-268.11 104,-285.5 106.64,-287.16 109.41,-288.71 112.25,-290.17"/>
<polygon fill="midnightblue" stroke="midnightblue" points="111.03,-293.45 121.57,-294.47 113.96,-287.1 111.03,-293.45"/>
</g>
<!-- Node5 -->
<g id="node5" class="node">
<title>Node5</title>
<g id="a_node5"><a xlink:href="class_system_model_1_1_system_model.html#aeac1243543078dfac02052bc1c94bb21" target="_top" xlink:title=" ">
<polygon fill="none" stroke="black" points="110.5,-245.5 110.5,-275.5 253.5,-275.5 253.5,-245.5 110.5,-245.5"/>
<text text-anchor="start" x="118.5" y="-263.5" font-family="Helvetica,sans-Serif" font-size="10.00">SystemModel::SystemModel</text>
<text text-anchor="middle" x="182" y="-252.5" font-family="Helvetica,sans-Serif" font-size="10.00">::getCapacitorBanks</text>
</a>
</g>
</g>
<!-- Node1&#45;&gt;Node5 -->
<g id="edge4" class="edge">
<title>Node1&#45;&gt;Node5</title>
<path fill="none" stroke="midnightblue" d="M60.46,-221.04C73.44,-225.82 89.51,-231.62 104,-236.5 109.83,-238.47 115.94,-240.46 122.04,-242.42"/>
<polygon fill="midnightblue" stroke="midnightblue" points="121.01,-245.77 131.6,-245.47 123.13,-239.1 121.01,-245.77"/>
</g>
<!-- Node6 -->
<g id="node6" class="node">
<title>Node6</title>
<g id="a_node6"><a xlink:href="class_system_model_1_1_system_model.html#a33c3e50a81ee0a32624237515f111b09" target="_top" xlink:title=" ">
<polygon fill="none" stroke="black" points="110.5,-196.5 110.5,-226.5 253.5,-226.5 253.5,-196.5 110.5,-196.5"/>
<text text-anchor="start" x="118.5" y="-214.5" font-family="Helvetica,sans-Serif" font-size="10.00">SystemModel::SystemModel</text>
<text text-anchor="middle" x="182" y="-203.5" font-family="Helvetica,sans-Serif" font-size="10.00">::getNumberOfBuses</text>
</a>
</g>
</g>
<!-- Node1&#45;&gt;Node6 -->
<g id="edge5" class="edge">
<title>Node1&#45;&gt;Node6</title>
<path fill="none" stroke="midnightblue" d="M68.13,-211.5C77.89,-211.5 89.02,-211.5 100.4,-211.5"/>
<polygon fill="midnightblue" stroke="midnightblue" points="100.44,-215 110.44,-211.5 100.44,-208 100.44,-215"/>
</g>
<!-- Node7 -->
<g id="node7" class="node">
<title>Node7</title>
<g id="a_node7"><a xlink:href="class_system_model_1_1_bus.html#abb4365fd778d0ec14a91c1b589730fc5" target="_top" xlink:title="Gets the value at which the rective power for the given bus should be maintained.">
<polygon fill="none" stroke="black" points="104,-147.5 104,-177.5 260,-177.5 260,-147.5 104,-147.5"/>
<text text-anchor="start" x="112" y="-165.5" font-family="Helvetica,sans-Serif" font-size="10.00">SystemModel::Bus::getReactive</text>
<text text-anchor="middle" x="182" y="-154.5" font-family="Helvetica,sans-Serif" font-size="10.00">Power</text>
</a>
</g>
</g>
<!-- Node1&#45;&gt;Node7 -->
<g id="edge6" class="edge">
<title>Node1&#45;&gt;Node7</title>
<path fill="none" stroke="midnightblue" d="M62.16,-201.91C74.85,-197.46 90.17,-192.15 104,-187.5 110.53,-185.3 117.39,-183.03 124.21,-180.79"/>
<polygon fill="midnightblue" stroke="midnightblue" points="125.71,-183.98 134.12,-177.55 123.53,-177.33 125.71,-183.98"/>
</g>
<!-- Node8 -->
<g id="node8" class="node">
<title>Node8</title>
<g id="a_node8"><a xlink:href="class_system_model_1_1_bus.html#a9d9ceefec6428e1a56bbdba29952dd3f" target="_top" xlink:title=" ">
<polygon fill="none" stroke="black" points="112,-98.5 112,-128.5 252,-128.5 252,-98.5 112,-98.5"/>
<text text-anchor="start" x="120" y="-116.5" font-family="Helvetica,sans-Serif" font-size="10.00">SystemModel::Bus::getType</text>
<text text-anchor="middle" x="182" y="-105.5" font-family="Helvetica,sans-Serif" font-size="10.00">OfBus</text>
</a>
</g>
</g>
<!-- Node1&#45;&gt;Node8 -->
<g id="edge7" class="edge">
<title>Node1&#45;&gt;Node8</title>
<path fill="none" stroke="midnightblue" d="M41.51,-202C52.58,-186.52 76.58,-155.83 104,-138.5 107.31,-136.41 110.82,-134.47 114.44,-132.69"/>
<polygon fill="midnightblue" stroke="midnightblue" points="115.93,-135.85 123.61,-128.55 113.05,-129.47 115.93,-135.85"/>
</g>
<!-- Node9 -->
<g id="node9" class="node">
<title>Node9</title>
<g id="a_node9"><a xlink:href="class_system_model_1_1_bus.html#a7a9aa30d65cf94cdfcb180899c14bece" target="_top" xlink:title="Gets the value at which the voltage magnitude for the given bus should be maintained.">
<polygon fill="none" stroke="black" points="106,-49.5 106,-79.5 258,-79.5 258,-49.5 106,-49.5"/>
<text text-anchor="start" x="114" y="-67.5" font-family="Helvetica,sans-Serif" font-size="10.00">SystemModel::Bus::getVoltage</text>
<text text-anchor="middle" x="182" y="-56.5" font-family="Helvetica,sans-Serif" font-size="10.00">Magnitude</text>
</a>
</g>
</g>
<!-- Node1&#45;&gt;Node9 -->
<g id="edge8" class="edge">
<title>Node1&#45;&gt;Node9</title>
<path fill="none" stroke="midnightblue" d="M37.73,-202C44.77,-179.15 65.75,-120.75 104,-89.5 106.05,-87.83 108.21,-86.27 110.46,-84.81"/>
<polygon fill="midnightblue" stroke="midnightblue" points="112.53,-87.65 119.51,-79.68 109.08,-81.56 112.53,-87.65"/>
</g>
<!-- Node10 -->
<g id="node10" class="node">
<title>Node10</title>
<g id="a_node10"><a xlink:href="class_system_model_1_1_bus.html#a5834ba72064d3e866662c4faedfeb308" target="_top" xlink:title="Gets the value at which the voltage phase for the given bus should be maintained.">
<polygon fill="none" stroke="black" points="106,-0.5 106,-30.5 258,-30.5 258,-0.5 106,-0.5"/>
<text text-anchor="start" x="114" y="-18.5" font-family="Helvetica,sans-Serif" font-size="10.00">SystemModel::Bus::getVoltage</text>
<text text-anchor="middle" x="182" y="-7.5" font-family="Helvetica,sans-Serif" font-size="10.00">Phase</text>
</a>
</g>
</g>
<!-- Node1&#45;&gt;Node10 -->
<g id="edge9" class="edge">
<title>Node1&#45;&gt;Node10</title>
<path fill="none" stroke="midnightblue" d="M36.07,-201.78C39.76,-172.86 54.6,-86.57 104,-40.5 105.67,-38.94 107.44,-37.48 109.29,-36.11"/>
<polygon fill="midnightblue" stroke="midnightblue" points="111.28,-38.99 117.83,-30.67 107.52,-33.09 111.28,-38.99"/>
</g>
</g>
</svg>
