<?xml version="1.0" encoding="UTF-8" standalone="no"?>
<!DOCTYPE svg PUBLIC "-//W3C//DTD SVG 1.1//EN"
 "http://www.w3.org/Graphics/SVG/1.1/DTD/svg11.dtd">
<!-- Generated by graphviz version 4.0.0 (20220529.0937)
 -->
<!-- Title: exportToHTML Pages: 1 -->
<svg width="280pt" height="480pt"
 viewBox="0.00 0.00 280.00 480.00" xmlns="http://www.w3.org/2000/svg" xmlns:xlink="http://www.w3.org/1999/xlink">
<g id="graph0" class="graph" transform="scale(1 1) rotate(0) translate(4 476)">
<title>exportToHTML</title>
<!-- Node1 -->
<g id="node1" class="node">
<title>Node1</title>
<g id="a_node1"><a xlink:title="Exports SystemModel to the main.html file">
<polygon fill="#bfbfbf" stroke="black" points="0,-226 0,-245 80,-245 80,-226 0,-226"/>
<text text-anchor="middle" x="40" y="-233" font-family="Helvetica,sans-Serif" font-size="10.00">exportToHTML</text>
</a>
</g>
</g>
<!-- Node2 -->
<g id="node2" class="node">
<title>Node2</title>
<g id="a_node2"><a xlink:href="class_system_model_1_1_bus.html#ab98a448ce881b4d848d9a5f7503cf958" target="_top" xlink:title="Gets the value at which the active power for the given bus should be maintained.">
<polygon fill="none" stroke="black" points="121,-441.5 121,-471.5 267,-471.5 267,-441.5 121,-441.5"/>
<text text-anchor="start" x="129" y="-459.5" font-family="Helvetica,sans-Serif" font-size="10.00">SystemModel::Bus::getActive</text>
<text text-anchor="middle" x="194" y="-448.5" font-family="Helvetica,sans-Serif" font-size="10.00">Power</text>
</a>
</g>
</g>
<!-- Node1&#45;&gt;Node2 -->
<g id="edge1" class="edge">
<title>Node1&#45;&gt;Node2</title>
<path fill="none" stroke="midnightblue" d="M41.79,-245.34C44.87,-277.24 58.94,-378.85 116,-432.5 117.26,-433.69 118.58,-434.82 119.95,-435.89"/>
<polygon fill="midnightblue" stroke="midnightblue" points="118.02,-438.8 128.28,-441.44 121.9,-432.98 118.02,-438.8"/>
</g>
<!-- Node3 -->
<g id="node3" class="node">
<title>Node3</title>
<g id="a_node3"><a xlink:href="class_system_model_1_1_system_model.html#afefb1be12e73649fa402951743ef0490" target="_top" xlink:title=" ">
<polygon fill="none" stroke="black" points="122.5,-392.5 122.5,-422.5 265.5,-422.5 265.5,-392.5 122.5,-392.5"/>
<text text-anchor="start" x="130.5" y="-410.5" font-family="Helvetica,sans-Serif" font-size="10.00">SystemModel::SystemModel</text>
<text text-anchor="middle" x="194" y="-399.5" font-family="Helvetica,sans-Serif" font-size="10.00">::getAdmittanceMatrix</text>
</a>
</g>
</g>
<!-- Node1&#45;&gt;Node3 -->
<g id="edge2" class="edge">
<title>Node1&#45;&gt;Node3</title>
<path fill="none" stroke="midnightblue" d="M43.1,-245.08C49.33,-271.29 70.25,-344.81 116,-383.5 117.52,-384.79 119.12,-386.01 120.77,-387.16"/>
<polygon fill="midnightblue" stroke="midnightblue" points="119.06,-390.22 129.42,-392.4 122.68,-384.23 119.06,-390.22"/>
</g>
<!-- Node4 -->
<g id="node4" class="node">
<title>Node4</title>
<g id="a_node4"><a xlink:href="class_system_model_1_1_system_model.html#a6dcd8db16543251dfc280b489a39d3db" target="_top" xlink:title=" ">
<polygon fill="none" stroke="black" points="122.5,-343.5 122.5,-373.5 265.5,-373.5 265.5,-343.5 122.5,-343.5"/>
<text text-anchor="start" x="130.5" y="-361.5" font-family="Helvetica,sans-Serif" font-size="10.00">SystemModel::SystemModel</text>
<text text-anchor="middle" x="194" y="-350.5" font-family="Helvetica,sans-Serif" font-size="10.00">::getBranches</text>
</a>
</g>
</g>
<!-- Node1&#45;&gt;Node4 -->
<g id="edge3" class="edge">
<title>Node1&#45;&gt;Node4</title>
<path fill="none" stroke="midnightblue" d="M45.73,-245.26C55.82,-265.08 81.42,-310.21 116,-334.5 118.16,-336.01 120.41,-337.44 122.74,-338.77"/>
<polygon fill="midnightblue" stroke="midnightblue" points="121.52,-342.08 132.02,-343.49 124.69,-335.84 121.52,-342.08"/>
</g>
<!-- Node5 -->
<g id="node5" class="node">
<title>Node5</title>
<g id="a_node5"><a xlink:href="class_system_model_1_1_system_model.html#abff800354c4ef998f396f313de1e6e70" target="_top" xlink:title="Gets the bus with the given bus number">
<polygon fill="none" stroke="black" points="122.5,-294.5 122.5,-324.5 265.5,-324.5 265.5,-294.5 122.5,-294.5"/>
<text text-anchor="start" x="130.5" y="-312.5" font-family="Helvetica,sans-Serif" font-size="10.00">SystemModel::SystemModel</text>
<text text-anchor="middle" x="194" y="-301.5" font-family="Helvetica,sans-Serif" font-size="10.00">::getBus</text>
</a>
</g>
</g>
<!-- Node1&#45;&gt;Node5 -->
<g id="edge4" class="edge">
<title>Node1&#45;&gt;Node5</title>
<path fill="none" stroke="midnightblue" d="M53.08,-245.15C67.39,-256.19 92.27,-274.18 116,-285.5 120.02,-287.42 124.23,-289.23 128.52,-290.93"/>
<polygon fill="midnightblue" stroke="midnightblue" points="127.4,-294.25 137.99,-294.48 129.85,-287.69 127.4,-294.25"/>
</g>
<!-- Node6 -->
<g id="node6" class="node">
<title>Node6</title>
<g id="a_node6"><a xlink:href="class_system_model_1_1_system_model.html#aeac1243543078dfac02052bc1c94bb21" target="_top" xlink:title=" ">
<polygon fill="none" stroke="black" points="122.5,-245.5 122.5,-275.5 265.5,-275.5 265.5,-245.5 122.5,-245.5"/>
<text text-anchor="start" x="130.5" y="-263.5" font-family="Helvetica,sans-Serif" font-size="10.00">SystemModel::SystemModel</text>
<text text-anchor="middle" x="194" y="-252.5" font-family="Helvetica,sans-Serif" font-size="10.00">::getCapacitorBanks</text>
</a>
</g>
</g>
<!-- Node1&#45;&gt;Node6 -->
<g id="edge5" class="edge">
<title>Node1&#45;&gt;Node6</title>
<path fill="none" stroke="midnightblue" d="M80.14,-241.94C90.14,-243.58 101.27,-245.41 112.52,-247.26"/>
<polygon fill="midnightblue" stroke="midnightblue" points="111.99,-250.72 122.42,-248.89 113.13,-243.82 111.99,-250.72"/>
</g>
<!-- Node7 -->
<g id="node7" class="node">
<title>Node7</title>
<g id="a_node7"><a xlink:href="class_system_model_1_1_system_model.html#a33c3e50a81ee0a32624237515f111b09" target="_top" xlink:title=" ">
<polygon fill="none" stroke="black" points="122.5,-196.5 122.5,-226.5 265.5,-226.5 265.5,-196.5 122.5,-196.5"/>
<text text-anchor="start" x="130.5" y="-214.5" font-family="Helvetica,sans-Serif" font-size="10.00">SystemModel::SystemModel</text>
<text text-anchor="middle" x="194" y="-203.5" font-family="Helvetica,sans-Serif" font-size="10.00">::getNumberOfBuses</text>
</a>
</g>
</g>
<!-- Node1&#45;&gt;Node7 -->
<g id="edge6" class="edge">
<title>Node1&#45;&gt;Node7</title>
<path fill="none" stroke="midnightblue" d="M80.14,-229.32C90.14,-227.74 101.27,-225.98 112.52,-224.21"/>
<polygon fill="midnightblue" stroke="midnightblue" points="113.09,-227.66 122.42,-222.64 112,-220.75 113.09,-227.66"/>
</g>
<!-- Node8 -->
<g id="node8" class="node">
<title>Node8</title>
<g id="a_node8"><a xlink:href="class_system_model_1_1_bus.html#abb4365fd778d0ec14a91c1b589730fc5" target="_top" xlink:title="Gets the value at which the rective power for the given bus should be maintained.">
<polygon fill="none" stroke="black" points="116,-147.5 116,-177.5 272,-177.5 272,-147.5 116,-147.5"/>
<text text-anchor="start" x="124" y="-165.5" font-family="Helvetica,sans-Serif" font-size="10.00">SystemModel::Bus::getReactive</text>
<text text-anchor="middle" x="194" y="-154.5" font-family="Helvetica,sans-Serif" font-size="10.00">Power</text>
</a>
</g>
</g>
<!-- Node1&#45;&gt;Node8 -->
<g id="edge7" class="edge">
<title>Node1&#45;&gt;Node8</title>
<path fill="none" stroke="midnightblue" d="M53.69,-225.94C68.15,-215.39 92.8,-198.47 116,-187.5 120.84,-185.21 125.95,-183.05 131.14,-181.03"/>
<polygon fill="midnightblue" stroke="midnightblue" points="132.37,-184.3 140.52,-177.54 129.93,-177.74 132.37,-184.3"/>
</g>
<!-- Node9 -->
<g id="node9" class="node">
<title>Node9</title>
<g id="a_node9"><a xlink:href="class_system_model_1_1_bus.html#a9d9ceefec6428e1a56bbdba29952dd3f" target="_top" xlink:title=" ">
<polygon fill="none" stroke="black" points="124,-98.5 124,-128.5 264,-128.5 264,-98.5 124,-98.5"/>
<text text-anchor="start" x="132" y="-116.5" font-family="Helvetica,sans-Serif" font-size="10.00">SystemModel::Bus::getType</text>
<text text-anchor="middle" x="194" y="-105.5" font-family="Helvetica,sans-Serif" font-size="10.00">OfBus</text>
</a>
</g>
</g>
<!-- Node1&#45;&gt;Node9 -->
<g id="edge8" class="edge">
<title>Node1&#45;&gt;Node9</title>
<path fill="none" stroke="midnightblue" d="M45.81,-225.97C56.04,-206.62 81.88,-162.51 116,-138.5 118.84,-136.5 121.86,-134.65 124.98,-132.94"/>
<polygon fill="midnightblue" stroke="midnightblue" points="126.6,-136.05 134.03,-128.5 123.51,-129.77 126.6,-136.05"/>
</g>
<!-- Node10 -->
<g id="node10" class="node">
<title>Node10</title>
<g id="a_node10"><a xlink:href="class_system_model_1_1_bus.html#a7a9aa30d65cf94cdfcb180899c14bece" target="_top" xlink:title="Gets the value at which the voltage magnitude for the given bus should be maintained.">
<polygon fill="none" stroke="black" points="118,-49.5 118,-79.5 270,-79.5 270,-49.5 118,-49.5"/>
<text text-anchor="start" x="126" y="-67.5" font-family="Helvetica,sans-Serif" font-size="10.00">SystemModel::Bus::getVoltage</text>
<text text-anchor="middle" x="194" y="-56.5" font-family="Helvetica,sans-Serif" font-size="10.00">Magnitude</text>
</a>
</g>
</g>
<!-- Node1&#45;&gt;Node10 -->
<g id="edge9" class="edge">
<title>Node1&#45;&gt;Node10</title>
<path fill="none" stroke="midnightblue" d="M43.25,-225.7C49.77,-199.59 71.08,-127.73 116,-89.5 117.97,-87.83 120.05,-86.26 122.22,-84.81"/>
<polygon fill="midnightblue" stroke="midnightblue" points="124.1,-87.76 130.96,-79.68 120.56,-81.72 124.1,-87.76"/>
</g>
<!-- Node11 -->
<g id="node11" class="node">
<title>Node11</title>
<g id="a_node11"><a xlink:href="class_system_model_1_1_bus.html#a5834ba72064d3e866662c4faedfeb308" target="_top" xlink:title="Gets the value at which the voltage phase for the given bus should be maintained.">
<polygon fill="none" stroke="black" points="118,-0.5 118,-30.5 270,-30.5 270,-0.5 118,-0.5"/>
<text text-anchor="start" x="126" y="-18.5" font-family="Helvetica,sans-Serif" font-size="10.00">SystemModel::Bus::getVoltage</text>
<text text-anchor="middle" x="194" y="-7.5" font-family="Helvetica,sans-Serif" font-size="10.00">Phase</text>
</a>
</g>
</g>
<!-- Node1&#45;&gt;Node11 -->
<g id="edge10" class="edge">
<title>Node1&#45;&gt;Node11</title>
<path fill="none" stroke="midnightblue" d="M41.85,-225.79C45.11,-194.29 59.67,-93.91 116,-40.5 117.66,-38.93 119.41,-37.46 121.25,-36.08"/>
<polygon fill="midnightblue" stroke="midnightblue" points="123.25,-38.95 129.77,-30.6 119.46,-33.07 123.25,-38.95"/>
</g>
</g>
</svg>
