<?xml version="1.0" encoding="UTF-8" standalone="no"?>
<!DOCTYPE svg PUBLIC "-//W3C//DTD SVG 1.1//EN"
 "http://www.w3.org/Graphics/SVG/1.1/DTD/svg11.dtd">
<!-- Generated by graphviz version 4.0.0 (20220529.0937)
 -->
<!-- Title: import.cpp Pages: 1 -->
<svg width="558pt" height="140pt"
 viewBox="0.00 0.00 558.00 140.00" xmlns="http://www.w3.org/2000/svg" xmlns:xlink="http://www.w3.org/1999/xlink">
<g id="graph0" class="graph" transform="scale(1 1) rotate(0) translate(4 136)">
<title>import.cpp</title>
<!-- Node1 -->
<g id="node1" class="node">
<title>Node1</title>
<g id="a_node1"><a xlink:title=" ">
<polygon fill="#bfbfbf" stroke="black" points="140,-112.5 140,-131.5 202,-131.5 202,-112.5 140,-112.5"/>
<text text-anchor="middle" x="171" y="-119.5" font-family="Helvetica,sans-Serif" font-size="10.00">import.cpp</text>
</a>
</g>
</g>
<!-- Node2 -->
<g id="node2" class="node">
<title>Node2</title>
<g id="a_node2"><a xlink:title=" ">
<polygon fill="none" stroke="#bfbfbf" points="0,-56.5 0,-75.5 56,-75.5 56,-56.5 0,-56.5"/>
<text text-anchor="middle" x="28" y="-63.5" font-family="Helvetica,sans-Serif" font-size="10.00">algorithm</text>
</a>
</g>
</g>
<!-- Node1&#45;&gt;Node2 -->
<g id="edge1" class="edge">
<title>Node1&#45;&gt;Node2</title>
<path fill="none" stroke="midnightblue" d="M148.34,-112.44C124.6,-103.48 87.09,-89.31 60.26,-79.18"/>
<polygon fill="midnightblue" stroke="midnightblue" points="61.14,-75.77 50.55,-75.52 58.67,-82.32 61.14,-75.77"/>
</g>
<!-- Node3 -->
<g id="node3" class="node">
<title>Node3</title>
<g id="a_node3"><a xlink:title=" ">
<polygon fill="none" stroke="#bfbfbf" points="74,-56.5 74,-75.5 128,-75.5 128,-56.5 74,-56.5"/>
<text text-anchor="middle" x="101" y="-63.5" font-family="Helvetica,sans-Serif" font-size="10.00">iostream</text>
</a>
</g>
</g>
<!-- Node1&#45;&gt;Node3 -->
<g id="edge2" class="edge">
<title>Node1&#45;&gt;Node3</title>
<path fill="none" stroke="midnightblue" d="M159.75,-112.32C149.2,-104.18 133.2,-91.84 120.56,-82.09"/>
<polygon fill="midnightblue" stroke="midnightblue" points="122.51,-79.17 112.45,-75.83 118.23,-84.71 122.51,-79.17"/>
</g>
<!-- Node4 -->
<g id="node4" class="node">
<title>Node4</title>
<g id="a_node4"><a xlink:title=" ">
<polygon fill="none" stroke="#bfbfbf" points="146.5,-56.5 146.5,-75.5 195.5,-75.5 195.5,-56.5 146.5,-56.5"/>
<text text-anchor="middle" x="171" y="-63.5" font-family="Helvetica,sans-Serif" font-size="10.00">fstream</text>
</a>
</g>
</g>
<!-- Node1&#45;&gt;Node4 -->
<g id="edge3" class="edge">
<title>Node1&#45;&gt;Node4</title>
<path fill="none" stroke="midnightblue" d="M171,-112.08C171,-105.01 171,-94.86 171,-85.99"/>
<polygon fill="midnightblue" stroke="midnightblue" points="174.5,-85.75 171,-75.75 167.5,-85.75 174.5,-85.75"/>
</g>
<!-- Node5 -->
<g id="node5" class="node">
<title>Node5</title>
<g id="a_node5"><a xlink:title=" ">
<polygon fill="none" stroke="#bfbfbf" points="178,-0.5 178,-19.5 216,-19.5 216,-0.5 178,-0.5"/>
<text text-anchor="middle" x="197" y="-7.5" font-family="Helvetica,sans-Serif" font-size="10.00">tuple</text>
</a>
</g>
</g>
<!-- Node1&#45;&gt;Node5 -->
<g id="edge4" class="edge">
<title>Node1&#45;&gt;Node5</title>
<path fill="none" stroke="midnightblue" d="M180.02,-112.34C188.07,-103.93 199.3,-90.36 204,-76 208.97,-60.83 206.36,-42.71 203.01,-29.46"/>
<polygon fill="midnightblue" stroke="midnightblue" points="206.31,-28.28 200.17,-19.65 199.59,-30.23 206.31,-28.28"/>
</g>
<!-- Node6 -->
<g id="node6" class="node">
<title>Node6</title>
<g id="a_node6"><a xlink:href="system_model_8h.html" target="_top" xlink:title=" ">
<polygon fill="none" stroke="black" points="279.5,-56.5 279.5,-75.5 362.5,-75.5 362.5,-56.5 279.5,-56.5"/>
<text text-anchor="middle" x="321" y="-63.5" font-family="Helvetica,sans-Serif" font-size="10.00">systemModel.h</text>
</a>
</g>
</g>
<!-- Node1&#45;&gt;Node6 -->
<g id="edge5" class="edge">
<title>Node1&#45;&gt;Node6</title>
<path fill="none" stroke="midnightblue" d="M194.77,-112.44C219.89,-103.4 259.71,-89.06 287.9,-78.92"/>
<polygon fill="midnightblue" stroke="midnightblue" points="289.12,-82.2 297.34,-75.52 286.75,-75.61 289.12,-82.2"/>
</g>
<!-- Node6&#45;&gt;Node5 -->
<g id="edge11" class="edge">
<title>Node6&#45;&gt;Node5</title>
<path fill="none" stroke="midnightblue" d="M301.35,-56.44C280.92,-47.54 248.72,-33.52 225.49,-23.41"/>
<polygon fill="midnightblue" stroke="midnightblue" points="226.71,-20.12 216.15,-19.34 223.92,-26.54 226.71,-20.12"/>
</g>
<!-- Node7 -->
<g id="node7" class="node">
<title>Node7</title>
<g id="a_node7"><a xlink:title=" ">
<polygon fill="none" stroke="#bfbfbf" points="234,-0.5 234,-19.5 276,-19.5 276,-0.5 234,-0.5"/>
<text text-anchor="middle" x="255" y="-7.5" font-family="Helvetica,sans-Serif" font-size="10.00">vector</text>
</a>
</g>
</g>
<!-- Node6&#45;&gt;Node7 -->
<g id="edge6" class="edge">
<title>Node6&#45;&gt;Node7</title>
<path fill="none" stroke="midnightblue" d="M310.4,-56.32C300.54,-48.26 285.65,-36.08 273.78,-26.37"/>
<polygon fill="midnightblue" stroke="midnightblue" points="275.75,-23.46 265.8,-19.83 271.32,-28.88 275.75,-23.46"/>
</g>
<!-- Node8 -->
<g id="node8" class="node">
<title>Node8</title>
<g id="a_node8"><a xlink:title=" ">
<polygon fill="none" stroke="#bfbfbf" points="294.5,-0.5 294.5,-19.5 347.5,-19.5 347.5,-0.5 294.5,-0.5"/>
<text text-anchor="middle" x="321" y="-7.5" font-family="Helvetica,sans-Serif" font-size="10.00">complex</text>
</a>
</g>
</g>
<!-- Node6&#45;&gt;Node8 -->
<g id="edge7" class="edge">
<title>Node6&#45;&gt;Node8</title>
<path fill="none" stroke="midnightblue" d="M321,-56.08C321,-49.01 321,-38.86 321,-29.99"/>
<polygon fill="midnightblue" stroke="midnightblue" points="324.5,-29.75 321,-19.75 317.5,-29.75 324.5,-29.75"/>
</g>
<!-- Node9 -->
<g id="node9" class="node">
<title>Node9</title>
<g id="a_node9"><a xlink:title=" ">
<polygon fill="none" stroke="#bfbfbf" points="366,-0.5 366,-19.5 416,-19.5 416,-0.5 366,-0.5"/>
<text text-anchor="middle" x="391" y="-7.5" font-family="Helvetica,sans-Serif" font-size="10.00">optional</text>
</a>
</g>
</g>
<!-- Node6&#45;&gt;Node9 -->
<g id="edge8" class="edge">
<title>Node6&#45;&gt;Node9</title>
<path fill="none" stroke="midnightblue" d="M332.25,-56.32C342.8,-48.18 358.8,-35.84 371.44,-26.09"/>
<polygon fill="midnightblue" stroke="midnightblue" points="373.77,-28.71 379.55,-19.83 369.49,-23.17 373.77,-28.71"/>
</g>
<!-- Node10 -->
<g id="node10" class="node">
<title>Node10</title>
<g id="a_node10"><a xlink:title=" ">
<polygon fill="none" stroke="#bfbfbf" points="434,-0.5 434,-19.5 492,-19.5 492,-0.5 434,-0.5"/>
<text text-anchor="middle" x="463" y="-7.5" font-family="Helvetica,sans-Serif" font-size="10.00">functional</text>
</a>
</g>
</g>
<!-- Node6&#45;&gt;Node10 -->
<g id="edge9" class="edge">
<title>Node6&#45;&gt;Node10</title>
<path fill="none" stroke="midnightblue" d="M343.5,-56.44C367.08,-47.48 404.32,-33.31 430.96,-23.18"/>
<polygon fill="midnightblue" stroke="midnightblue" points="432.5,-26.34 440.6,-19.52 430.01,-19.8 432.5,-26.34"/>
</g>
<!-- Node11 -->
<g id="node11" class="node">
<title>Node11</title>
<g id="a_node11"><a xlink:title=" ">
<polygon fill="none" stroke="#bfbfbf" points="510,-0.5 510,-19.5 550,-19.5 550,-0.5 510,-0.5"/>
<text text-anchor="middle" x="530" y="-7.5" font-family="Helvetica,sans-Serif" font-size="10.00">utility</text>
</a>
</g>
</g>
<!-- Node6&#45;&gt;Node11 -->
<g id="edge10" class="edge">
<title>Node6&#45;&gt;Node11</title>
<path fill="none" stroke="midnightblue" d="M357.7,-56.46C392.12,-48.31 445.23,-35.38 499.9,-20.2"/>
<polygon fill="midnightblue" stroke="midnightblue" points="501.07,-23.5 509.76,-17.44 499.19,-16.76 501.07,-23.5"/>
</g>
</g>
</svg>
