<?xml version="1.0" encoding="UTF-8" standalone="no"?>
<!DOCTYPE svg PUBLIC "-//W3C//DTD SVG 1.1//EN"
 "http://www.w3.org/Graphics/SVG/1.1/DTD/svg11.dtd">
<!-- Generated by graphviz version 4.0.0 (20220529.0937)
 -->
<!-- Title: importFromTxt Pages: 1 -->
<svg width="280pt" height="431pt"
 viewBox="0.00 0.00 280.00 431.00" xmlns="http://www.w3.org/2000/svg" xmlns:xlink="http://www.w3.org/1999/xlink">
<g id="graph0" class="graph" transform="scale(1 1) rotate(0) translate(4 427)">
<title>importFromTxt</title>
<!-- Node1 -->
<g id="node1" class="node">
<title>Node1</title>
<g id="a_node1"><a xlink:title="Imports SystemModel from the .txt file">
<polygon fill="#bfbfbf" stroke="black" points="0,-202 0,-221 80,-221 80,-202 0,-202"/>
<text text-anchor="middle" x="40" y="-209" font-family="Helvetica,sans-Serif" font-size="10.00">importFromTxt</text>
</a>
</g>
</g>
<!-- Node2 -->
<g id="node2" class="node">
<title>Node2</title>
<g id="a_node2"><a xlink:href="class_system_model_1_1_system_model.html#ad2d6d4881b62a3fffaeb582c0cdb0e2b" target="_top" xlink:title="Adds a bus to the system">
<polygon fill="none" stroke="black" points="122.5,-392.5 122.5,-422.5 265.5,-422.5 265.5,-392.5 122.5,-392.5"/>
<text text-anchor="start" x="130.5" y="-410.5" font-family="Helvetica,sans-Serif" font-size="10.00">SystemModel::SystemModel</text>
<text text-anchor="middle" x="194" y="-399.5" font-family="Helvetica,sans-Serif" font-size="10.00">::addBus</text>
</a>
</g>
</g>
<!-- Node1&#45;&gt;Node2 -->
<g id="edge1" class="edge">
<title>Node1&#45;&gt;Node2</title>
<path fill="none" stroke="midnightblue" d="M42.39,-221.32C47.06,-250.52 64.82,-337.62 116,-383.5 117.33,-384.69 118.71,-385.82 120.14,-386.89"/>
<polygon fill="midnightblue" stroke="midnightblue" points="118.52,-390.01 128.83,-392.45 122.29,-384.11 118.52,-390.01"/>
</g>
<!-- Node3 -->
<g id="node3" class="node">
<title>Node3</title>
<g id="a_node3"><a xlink:href="class_system_model_1_1_system_model.html#ab3ef26563cd9f4a7761b6a7d37d80579" target="_top" xlink:title="Adds a capacitor bank to a bus">
<polygon fill="none" stroke="black" points="122.5,-343.5 122.5,-373.5 265.5,-373.5 265.5,-343.5 122.5,-343.5"/>
<text text-anchor="start" x="130.5" y="-361.5" font-family="Helvetica,sans-Serif" font-size="10.00">SystemModel::SystemModel</text>
<text text-anchor="middle" x="194" y="-350.5" font-family="Helvetica,sans-Serif" font-size="10.00">::addCapacitorBank</text>
</a>
</g>
</g>
<!-- Node1&#45;&gt;Node3 -->
<g id="edge2" class="edge">
<title>Node1&#45;&gt;Node3</title>
<path fill="none" stroke="midnightblue" d="M44.17,-221.12C52.27,-244.22 75.97,-303.26 116,-334.5 117.79,-335.9 119.67,-337.22 121.61,-338.46"/>
<polygon fill="midnightblue" stroke="midnightblue" points="120.05,-341.6 130.48,-343.43 123.47,-335.49 120.05,-341.6"/>
</g>
<!-- Node4 -->
<g id="node4" class="node">
<title>Node4</title>
<g id="a_node4"><a xlink:href="class_system_model_1_1_system_model.html#a6f9a78e32b73d5c8395167b5af8c2183" target="_top" xlink:title="Adds a line between buses">
<polygon fill="none" stroke="black" points="122.5,-294.5 122.5,-324.5 265.5,-324.5 265.5,-294.5 122.5,-294.5"/>
<text text-anchor="start" x="130.5" y="-312.5" font-family="Helvetica,sans-Serif" font-size="10.00">SystemModel::SystemModel</text>
<text text-anchor="middle" x="194" y="-301.5" font-family="Helvetica,sans-Serif" font-size="10.00">::addLine</text>
</a>
</g>
</g>
<!-- Node1&#45;&gt;Node4 -->
<g id="edge3" class="edge">
<title>Node1&#45;&gt;Node4</title>
<path fill="none" stroke="midnightblue" d="M48.21,-221.15C60.45,-236.86 86.83,-268 116,-285.5 118.82,-287.19 121.77,-288.78 124.81,-290.26"/>
<polygon fill="midnightblue" stroke="midnightblue" points="123.56,-293.53 134.12,-294.4 126.4,-287.14 123.56,-293.53"/>
</g>
<!-- Node5 -->
<g id="node5" class="node">
<title>Node5</title>
<g id="a_node5"><a xlink:href="class_system_model_1_1_system_model.html#a2173148573d8333b7f70367c2f6929c0" target="_top" xlink:title="Adds a transformer between buses">
<polygon fill="none" stroke="black" points="122.5,-245.5 122.5,-275.5 265.5,-275.5 265.5,-245.5 122.5,-245.5"/>
<text text-anchor="start" x="130.5" y="-263.5" font-family="Helvetica,sans-Serif" font-size="10.00">SystemModel::SystemModel</text>
<text text-anchor="middle" x="194" y="-252.5" font-family="Helvetica,sans-Serif" font-size="10.00">::addTransformer</text>
</a>
</g>
</g>
<!-- Node1&#45;&gt;Node5 -->
<g id="edge4" class="edge">
<title>Node1&#45;&gt;Node5</title>
<path fill="none" stroke="midnightblue" d="M69.09,-221.01C83.16,-225.73 100.46,-231.49 116,-236.5 121.95,-238.42 128.16,-240.4 134.37,-242.36"/>
<polygon fill="midnightblue" stroke="midnightblue" points="133.48,-245.75 144.07,-245.41 135.58,-239.07 133.48,-245.75"/>
</g>
<!-- Node6 -->
<g id="node6" class="node">
<title>Node6</title>
<g id="a_node6"><a xlink:href="class_system_model_1_1_system_model.html#abff800354c4ef998f396f313de1e6e70" target="_top" xlink:title="Gets the bus with the given bus number">
<polygon fill="none" stroke="black" points="122.5,-196.5 122.5,-226.5 265.5,-226.5 265.5,-196.5 122.5,-196.5"/>
<text text-anchor="start" x="130.5" y="-214.5" font-family="Helvetica,sans-Serif" font-size="10.00">SystemModel::SystemModel</text>
<text text-anchor="middle" x="194" y="-203.5" font-family="Helvetica,sans-Serif" font-size="10.00">::getBus</text>
</a>
</g>
</g>
<!-- Node1&#45;&gt;Node6 -->
<g id="edge5" class="edge">
<title>Node1&#45;&gt;Node6</title>
<path fill="none" stroke="midnightblue" d="M80.14,-211.5C90.04,-211.5 101.04,-211.5 112.18,-211.5"/>
<polygon fill="midnightblue" stroke="midnightblue" points="112.42,-215 122.42,-211.5 112.42,-208 112.42,-215"/>
</g>
<!-- Node7 -->
<g id="node7" class="node">
<title>Node7</title>
<g id="a_node7"><a xlink:href="class_system_model_1_1_bus.html#a1c76cf1637e5ae9418e16841204edd17" target="_top" xlink:title="Sets the value at which the active power for the given bus should be maintained.">
<polygon fill="none" stroke="black" points="121,-147.5 121,-177.5 267,-177.5 267,-147.5 121,-147.5"/>
<text text-anchor="start" x="129" y="-165.5" font-family="Helvetica,sans-Serif" font-size="10.00">SystemModel::Bus::setActive</text>
<text text-anchor="middle" x="194" y="-154.5" font-family="Helvetica,sans-Serif" font-size="10.00">Power</text>
</a>
</g>
</g>
<!-- Node1&#45;&gt;Node7 -->
<g id="edge6" class="edge">
<title>Node1&#45;&gt;Node7</title>
<path fill="none" stroke="midnightblue" d="M70.67,-201.94C89.41,-195.89 114.22,-187.89 136.61,-180.68"/>
<polygon fill="midnightblue" stroke="midnightblue" points="137.91,-183.94 146.35,-177.54 135.76,-177.27 137.91,-183.94"/>
</g>
<!-- Node8 -->
<g id="node8" class="node">
<title>Node8</title>
<g id="a_node8"><a xlink:href="class_system_model_1_1_bus.html#a745e78bff5f75e376f5878e5ebb13a16" target="_top" xlink:title="Sets the value at which the rective power for the given bus should be maintained.">
<polygon fill="none" stroke="black" points="116,-98.5 116,-128.5 272,-128.5 272,-98.5 116,-98.5"/>
<text text-anchor="start" x="124" y="-116.5" font-family="Helvetica,sans-Serif" font-size="10.00">SystemModel::Bus::setReactive</text>
<text text-anchor="middle" x="194" y="-105.5" font-family="Helvetica,sans-Serif" font-size="10.00">Power</text>
</a>
</g>
</g>
<!-- Node1&#45;&gt;Node8 -->
<g id="edge7" class="edge">
<title>Node1&#45;&gt;Node8</title>
<path fill="none" stroke="midnightblue" d="M48.67,-201.52C61.15,-185.93 87.37,-155.77 116,-138.5 119.42,-136.44 123.03,-134.52 126.75,-132.75"/>
<polygon fill="midnightblue" stroke="midnightblue" points="128.4,-135.85 136.16,-128.63 125.6,-129.43 128.4,-135.85"/>
</g>
<!-- Node9 -->
<g id="node9" class="node">
<title>Node9</title>
<g id="a_node9"><a xlink:href="class_system_model_1_1_bus.html#ac8f1b4d9404014e3b2fc917f87c86787" target="_top" xlink:title="Sets the value at which the voltage amplitude for the given bus should be maintained.">
<polygon fill="none" stroke="black" points="118,-49.5 118,-79.5 270,-79.5 270,-49.5 118,-49.5"/>
<text text-anchor="start" x="126" y="-67.5" font-family="Helvetica,sans-Serif" font-size="10.00">SystemModel::Bus::setVoltage</text>
<text text-anchor="middle" x="194" y="-56.5" font-family="Helvetica,sans-Serif" font-size="10.00">Magnitude</text>
</a>
</g>
</g>
<!-- Node1&#45;&gt;Node9 -->
<g id="edge8" class="edge">
<title>Node1&#45;&gt;Node9</title>
<path fill="none" stroke="midnightblue" d="M44.21,-201.99C52.42,-179.14 76.34,-120.71 116,-89.5 118.28,-87.71 120.69,-86.04 123.2,-84.49"/>
<polygon fill="midnightblue" stroke="midnightblue" points="124.94,-87.53 132.04,-79.67 121.59,-81.38 124.94,-87.53"/>
</g>
<!-- Node10 -->
<g id="node10" class="node">
<title>Node10</title>
<g id="a_node10"><a xlink:href="class_system_model_1_1_bus.html#a58934af7e72174885c70bb948af5d08a" target="_top" xlink:title="Sets the value at which the voltage phase for the given bus should be maintained.">
<polygon fill="none" stroke="black" points="118,-0.5 118,-30.5 270,-30.5 270,-0.5 118,-0.5"/>
<text text-anchor="start" x="126" y="-18.5" font-family="Helvetica,sans-Serif" font-size="10.00">SystemModel::Bus::setVoltage</text>
<text text-anchor="middle" x="194" y="-7.5" font-family="Helvetica,sans-Serif" font-size="10.00">Phase</text>
</a>
</g>
</g>
<!-- Node1&#45;&gt;Node10 -->
<g id="edge9" class="edge">
<title>Node1&#45;&gt;Node10</title>
<path fill="none" stroke="midnightblue" d="M42.44,-201.76C47.22,-172.8 65.29,-86.4 116,-40.5 117.74,-38.93 119.57,-37.46 121.49,-36.08"/>
<polygon fill="midnightblue" stroke="midnightblue" points="123.67,-38.84 130.33,-30.6 119.99,-32.89 123.67,-38.84"/>
</g>
</g>
</svg>
