<?xml version="1.0" encoding="UTF-8" standalone="no"?>
<!DOCTYPE svg PUBLIC "-//W3C//DTD SVG 1.1//EN"
 "http://www.w3.org/Graphics/SVG/1.1/DTD/svg11.dtd">
<!-- Generated by graphviz version 4.0.0 (20220529.0937)
 -->
<!-- Title: main Pages: 1 -->
<svg width="632pt" height="675pt"
 viewBox="0.00 0.00 632.00 674.50" xmlns="http://www.w3.org/2000/svg" xmlns:xlink="http://www.w3.org/1999/xlink">
<g id="graph0" class="graph" transform="scale(1 1) rotate(0) translate(4 670.5)">
<title>main</title>
<!-- Node1 -->
<g id="node1" class="node">
<title>Node1</title>
<g id="a_node1"><a xlink:title=" ">
<polygon fill="#bfbfbf" stroke="black" points="0,-254.5 0,-273.5 38,-273.5 38,-254.5 0,-254.5"/>
<text text-anchor="middle" x="19" y="-261.5" font-family="Helvetica,sans-Serif" font-size="10.00">main</text>
</a>
</g>
</g>
<!-- Node2 -->
<g id="node2" class="node">
<title>Node2</title>
<g id="a_node2"><a xlink:href="import_8cpp.html#aae2b99c7c85a430f4ab2915c0e66483d" target="_top" xlink:title="Imports SystemModel from the .txt file">
<polygon fill="none" stroke="black" points="77,-420.5 77,-439.5 157,-439.5 157,-420.5 77,-420.5"/>
<text text-anchor="middle" x="117" y="-427.5" font-family="Helvetica,sans-Serif" font-size="10.00">importFromTxt</text>
</a>
</g>
</g>
<!-- Node1&#45;&gt;Node2 -->
<g id="edge1" class="edge">
<title>Node1&#45;&gt;Node2</title>
<path fill="none" stroke="midnightblue" d="M25.72,-273.89C41.36,-300.94 85.05,-376.49 105.37,-411.61"/>
<polygon fill="midnightblue" stroke="midnightblue" points="102.4,-413.47 110.43,-420.37 108.46,-409.96 102.4,-413.47"/>
</g>
<!-- Node12 -->
<g id="node12" class="node">
<title>Node12</title>
<g id="a_node12"><a xlink:href="newton_raphson_8cpp.html#ab389b0b2ae2bef9ae5c669fdf20a7e75" target="_top" xlink:title="Newton Raphson method">
<polygon fill="none" stroke="black" points="74,-137.5 74,-156.5 160,-156.5 160,-137.5 74,-137.5"/>
<text text-anchor="middle" x="117" y="-144.5" font-family="Helvetica,sans-Serif" font-size="10.00">newtonRaphson</text>
</a>
</g>
</g>
<!-- Node1&#45;&gt;Node12 -->
<g id="edge11" class="edge">
<title>Node1&#45;&gt;Node12</title>
<path fill="none" stroke="midnightblue" d="M27.86,-254.43C43.96,-234.8 80.92,-189.75 101.5,-164.67"/>
<polygon fill="midnightblue" stroke="midnightblue" points="104.4,-166.66 108.04,-156.71 98.99,-162.22 104.4,-166.66"/>
</g>
<!-- Node3 -->
<g id="node3" class="node">
<title>Node3</title>
<g id="a_node3"><a xlink:href="class_system_model_1_1_system_model.html#ad2d6d4881b62a3fffaeb582c0cdb0e2b" target="_top" xlink:title="Adds a bus to the system">
<polygon fill="none" stroke="black" points="202.5,-636 202.5,-666 345.5,-666 345.5,-636 202.5,-636"/>
<text text-anchor="start" x="210.5" y="-654" font-family="Helvetica,sans-Serif" font-size="10.00">SystemModel::SystemModel</text>
<text text-anchor="middle" x="274" y="-643" font-family="Helvetica,sans-Serif" font-size="10.00">::addBus</text>
</a>
</g>
</g>
<!-- Node2&#45;&gt;Node3 -->
<g id="edge2" class="edge">
<title>Node2&#45;&gt;Node3</title>
<path fill="none" stroke="midnightblue" d="M118.95,-439.84C122.56,-471.77 138.29,-573.46 196,-627 197.27,-628.18 198.6,-629.3 199.97,-630.36"/>
<polygon fill="midnightblue" stroke="midnightblue" points="198.05,-633.29 208.33,-635.89 201.91,-627.45 198.05,-633.29"/>
</g>
<!-- Node4 -->
<g id="node4" class="node">
<title>Node4</title>
<g id="a_node4"><a xlink:href="class_system_model_1_1_system_model.html#ab3ef26563cd9f4a7761b6a7d37d80579" target="_top" xlink:title="Adds a capacitor bank to a bus">
<polygon fill="none" stroke="black" points="202.5,-587 202.5,-617 345.5,-617 345.5,-587 202.5,-587"/>
<text text-anchor="start" x="210.5" y="-605" font-family="Helvetica,sans-Serif" font-size="10.00">SystemModel::SystemModel</text>
<text text-anchor="middle" x="274" y="-594" font-family="Helvetica,sans-Serif" font-size="10.00">::addCapacitorBank</text>
</a>
</g>
</g>
<!-- Node2&#45;&gt;Node4 -->
<g id="edge3" class="edge">
<title>Node2&#45;&gt;Node4</title>
<path fill="none" stroke="midnightblue" d="M120.3,-439.58C127.09,-465.81 149.56,-539.36 196,-578 197.53,-579.28 199.14,-580.48 200.79,-581.63"/>
<polygon fill="midnightblue" stroke="midnightblue" points="199.11,-584.7 209.48,-586.83 202.7,-578.69 199.11,-584.7"/>
</g>
<!-- Node5 -->
<g id="node5" class="node">
<title>Node5</title>
<g id="a_node5"><a xlink:href="class_system_model_1_1_system_model.html#a6f9a78e32b73d5c8395167b5af8c2183" target="_top" xlink:title="Adds a line between buses">
<polygon fill="none" stroke="black" points="202.5,-538 202.5,-568 345.5,-568 345.5,-538 202.5,-538"/>
<text text-anchor="start" x="210.5" y="-556" font-family="Helvetica,sans-Serif" font-size="10.00">SystemModel::SystemModel</text>
<text text-anchor="middle" x="274" y="-545" font-family="Helvetica,sans-Serif" font-size="10.00">::addLine</text>
</a>
</g>
</g>
<!-- Node2&#45;&gt;Node5 -->
<g id="edge4" class="edge">
<title>Node2&#45;&gt;Node5</title>
<path fill="none" stroke="midnightblue" d="M123.02,-439.76C133.72,-459.57 160.67,-504.68 196,-529 198.25,-530.55 200.6,-532 203.03,-533.36"/>
<polygon fill="midnightblue" stroke="midnightblue" points="201.58,-536.55 212.09,-537.89 204.71,-530.29 201.58,-536.55"/>
</g>
<!-- Node6 -->
<g id="node6" class="node">
<title>Node6</title>
<g id="a_node6"><a xlink:href="class_system_model_1_1_system_model.html#a2173148573d8333b7f70367c2f6929c0" target="_top" xlink:title="Adds a transformer between buses">
<polygon fill="none" stroke="black" points="202.5,-489 202.5,-519 345.5,-519 345.5,-489 202.5,-489"/>
<text text-anchor="start" x="210.5" y="-507" font-family="Helvetica,sans-Serif" font-size="10.00">SystemModel::SystemModel</text>
<text text-anchor="middle" x="274" y="-496" font-family="Helvetica,sans-Serif" font-size="10.00">::addTransformer</text>
</a>
</g>
</g>
<!-- Node2&#45;&gt;Node6 -->
<g id="edge5" class="edge">
<title>Node2&#45;&gt;Node6</title>
<path fill="none" stroke="midnightblue" d="M130.63,-439.62C145.57,-450.62 171.51,-468.59 196,-480 200.04,-481.88 204.26,-483.66 208.55,-485.35"/>
<polygon fill="midnightblue" stroke="midnightblue" points="207.45,-488.67 218.05,-488.86 209.88,-482.11 207.45,-488.67"/>
</g>
<!-- Node7 -->
<g id="node7" class="node">
<title>Node7</title>
<g id="a_node7"><a xlink:href="class_system_model_1_1_system_model.html#abff800354c4ef998f396f313de1e6e70" target="_top" xlink:title="Gets the bus with the given bus number">
<polygon fill="none" stroke="black" points="202.5,-440 202.5,-470 345.5,-470 345.5,-440 202.5,-440"/>
<text text-anchor="start" x="210.5" y="-458" font-family="Helvetica,sans-Serif" font-size="10.00">SystemModel::SystemModel</text>
<text text-anchor="middle" x="274" y="-447" font-family="Helvetica,sans-Serif" font-size="10.00">::getBus</text>
</a>
</g>
</g>
<!-- Node2&#45;&gt;Node7 -->
<g id="edge6" class="edge">
<title>Node2&#45;&gt;Node7</title>
<path fill="none" stroke="midnightblue" d="M157.11,-436.31C167.83,-438.04 179.86,-439.98 192.01,-441.94"/>
<polygon fill="midnightblue" stroke="midnightblue" points="191.78,-445.45 202.21,-443.58 192.9,-438.53 191.78,-445.45"/>
</g>
<!-- Node8 -->
<g id="node8" class="node">
<title>Node8</title>
<g id="a_node8"><a xlink:href="class_system_model_1_1_bus.html#a1c76cf1637e5ae9418e16841204edd17" target="_top" xlink:title="Sets the value at which the active power for the given bus should be maintained.">
<polygon fill="none" stroke="black" points="201,-391 201,-421 347,-421 347,-391 201,-391"/>
<text text-anchor="start" x="209" y="-409" font-family="Helvetica,sans-Serif" font-size="10.00">SystemModel::Bus::setActive</text>
<text text-anchor="middle" x="274" y="-398" font-family="Helvetica,sans-Serif" font-size="10.00">Power</text>
</a>
</g>
</g>
<!-- Node2&#45;&gt;Node8 -->
<g id="edge7" class="edge">
<title>Node2&#45;&gt;Node8</title>
<path fill="none" stroke="midnightblue" d="M157.11,-423.94C167.55,-422.33 179.24,-420.52 191.06,-418.69"/>
<polygon fill="midnightblue" stroke="midnightblue" points="191.65,-422.14 200.99,-417.15 190.58,-415.22 191.65,-422.14"/>
</g>
<!-- Node9 -->
<g id="node9" class="node">
<title>Node9</title>
<g id="a_node9"><a xlink:href="class_system_model_1_1_bus.html#a745e78bff5f75e376f5878e5ebb13a16" target="_top" xlink:title="Sets the value at which the rective power for the given bus should be maintained.">
<polygon fill="none" stroke="black" points="196,-342 196,-372 352,-372 352,-342 196,-342"/>
<text text-anchor="start" x="204" y="-360" font-family="Helvetica,sans-Serif" font-size="10.00">SystemModel::Bus::setReactive</text>
<text text-anchor="middle" x="274" y="-349" font-family="Helvetica,sans-Serif" font-size="10.00">Power</text>
</a>
</g>
</g>
<!-- Node2&#45;&gt;Node9 -->
<g id="edge8" class="edge">
<title>Node2&#45;&gt;Node9</title>
<path fill="none" stroke="midnightblue" d="M131.26,-420.48C146.36,-409.97 172.04,-393.07 196,-382 200.94,-379.72 206.16,-377.55 211.44,-375.52"/>
<polygon fill="midnightblue" stroke="midnightblue" points="212.81,-378.75 220.99,-372.01 210.4,-372.17 212.81,-378.75"/>
</g>
<!-- Node10 -->
<g id="node10" class="node">
<title>Node10</title>
<g id="a_node10"><a xlink:href="class_system_model_1_1_bus.html#ac8f1b4d9404014e3b2fc917f87c86787" target="_top" xlink:title="Sets the value at which the voltage amplitude for the given bus should be maintained.">
<polygon fill="none" stroke="black" points="198,-293 198,-323 350,-323 350,-293 198,-293"/>
<text text-anchor="start" x="206" y="-311" font-family="Helvetica,sans-Serif" font-size="10.00">SystemModel::Bus::setVoltage</text>
<text text-anchor="middle" x="274" y="-300" font-family="Helvetica,sans-Serif" font-size="10.00">Magnitude</text>
</a>
</g>
</g>
<!-- Node2&#45;&gt;Node10 -->
<g id="edge9" class="edge">
<title>Node2&#45;&gt;Node10</title>
<path fill="none" stroke="midnightblue" d="M123.1,-420.48C133.93,-401.13 161.13,-357.05 196,-333 198.86,-331.03 201.89,-329.2 205.03,-327.51"/>
<polygon fill="midnightblue" stroke="midnightblue" points="206.64,-330.62 214.1,-323.11 203.58,-324.32 206.64,-330.62"/>
</g>
<!-- Node11 -->
<g id="node11" class="node">
<title>Node11</title>
<g id="a_node11"><a xlink:href="class_system_model_1_1_bus.html#a58934af7e72174885c70bb948af5d08a" target="_top" xlink:title="Sets the value at which the voltage phase for the given bus should be maintained.">
<polygon fill="none" stroke="black" points="198,-244 198,-274 350,-274 350,-244 198,-244"/>
<text text-anchor="start" x="206" y="-262" font-family="Helvetica,sans-Serif" font-size="10.00">SystemModel::Bus::setVoltage</text>
<text text-anchor="middle" x="274" y="-251" font-family="Helvetica,sans-Serif" font-size="10.00">Phase</text>
</a>
</g>
</g>
<!-- Node2&#45;&gt;Node11 -->
<g id="edge10" class="edge">
<title>Node2&#45;&gt;Node11</title>
<path fill="none" stroke="midnightblue" d="M120.47,-420.2C127.54,-394.08 150.39,-322.19 196,-284 198.03,-282.3 200.17,-280.72 202.41,-279.24"/>
<polygon fill="midnightblue" stroke="midnightblue" points="204.49,-282.08 211.41,-274.06 201,-276.02 204.49,-282.08"/>
</g>
<!-- Node13 -->
<g id="node13" class="node">
<title>Node13</title>
<g id="a_node13"><a xlink:href="newton_raphson_8cpp.html#ac30ec09778ce9767047746ef83448ea3" target="_top" xlink:title="Absolute value of vector">
<polygon fill="none" stroke="black" points="243.5,-205.5 243.5,-224.5 304.5,-224.5 304.5,-205.5 243.5,-205.5"/>
<text text-anchor="middle" x="274" y="-212.5" font-family="Helvetica,sans-Serif" font-size="10.00">absVector</text>
</a>
</g>
</g>
<!-- Node12&#45;&gt;Node13 -->
<g id="edge12" class="edge">
<title>Node12&#45;&gt;Node13</title>
<path fill="none" stroke="midnightblue" d="M130.55,-156.67C145.41,-167.68 171.27,-185.5 196,-196 207.78,-201 221.16,-204.88 233.43,-207.78"/>
<polygon fill="midnightblue" stroke="midnightblue" points="232.88,-211.25 243.4,-210 234.4,-204.41 232.88,-211.25"/>
</g>
<!-- Node14 -->
<g id="node14" class="node">
<title>Node14</title>
<g id="a_node14"><a xlink:href="class_system_model_1_1_system_model.html#a90ff4abab59174a08aaa153bbf6bd238" target="_top" xlink:title="Gets the bus functions (fi_P and fi_Q) for the desired bus">
<polygon fill="none" stroke="black" points="202.5,-156 202.5,-186 345.5,-186 345.5,-156 202.5,-156"/>
<text text-anchor="start" x="210.5" y="-174" font-family="Helvetica,sans-Serif" font-size="10.00">SystemModel::SystemModel</text>
<text text-anchor="middle" x="274" y="-163" font-family="Helvetica,sans-Serif" font-size="10.00">::getBusFunctions</text>
</a>
</g>
</g>
<!-- Node12&#45;&gt;Node14 -->
<g id="edge13" class="edge">
<title>Node12&#45;&gt;Node14</title>
<path fill="none" stroke="midnightblue" d="M160.35,-153.56C170.31,-155.1 181.24,-156.79 192.26,-158.5"/>
<polygon fill="midnightblue" stroke="midnightblue" points="191.96,-161.99 202.37,-160.06 193.03,-155.08 191.96,-161.99"/>
</g>
<!-- Node15 -->
<g id="node15" class="node">
<title>Node15</title>
<g id="a_node15"><a xlink:href="class_system_model_1_1_system_model.html#a48ce61bfa627080bf8d9edf0c2d07091" target="_top" xlink:title="Gets the derivates of the bus functions (dfi_P/dx and dfi_Q/dx) for the desired bus (two rows of the ...">
<polygon fill="none" stroke="black" points="198,-107 198,-137 350,-137 350,-107 198,-107"/>
<text text-anchor="start" x="206" y="-125" font-family="Helvetica,sans-Serif" font-size="10.00">SystemModel::SystemModel</text>
<text text-anchor="middle" x="274" y="-114" font-family="Helvetica,sans-Serif" font-size="10.00">::getDerivativesOfBusFunctions</text>
</a>
</g>
</g>
<!-- Node12&#45;&gt;Node15 -->
<g id="edge14" class="edge">
<title>Node12&#45;&gt;Node15</title>
<path fill="none" stroke="midnightblue" d="M160.35,-140.17C169,-138.77 178.39,-137.26 187.94,-135.72"/>
<polygon fill="midnightblue" stroke="midnightblue" points="188.6,-139.16 197.91,-134.11 187.48,-132.25 188.6,-139.16"/>
</g>
<!-- Node16 -->
<g id="node16" class="node">
<title>Node16</title>
<g id="a_node16"><a xlink:href="class_system_model_1_1_system_model.html#a33c3e50a81ee0a32624237515f111b09" target="_top" xlink:title=" ">
<polygon fill="none" stroke="black" points="202.5,-58 202.5,-88 345.5,-88 345.5,-58 202.5,-58"/>
<text text-anchor="start" x="210.5" y="-76" font-family="Helvetica,sans-Serif" font-size="10.00">SystemModel::SystemModel</text>
<text text-anchor="middle" x="274" y="-65" font-family="Helvetica,sans-Serif" font-size="10.00">::getNumberOfBuses</text>
</a>
</g>
</g>
<!-- Node12&#45;&gt;Node16 -->
<g id="edge15" class="edge">
<title>Node12&#45;&gt;Node16</title>
<path fill="none" stroke="midnightblue" d="M130.96,-137.45C145.99,-126.72 171.81,-109.31 196,-98 200.85,-95.73 205.97,-93.58 211.16,-91.57"/>
<polygon fill="midnightblue" stroke="midnightblue" points="212.39,-94.85 220.55,-88.1 209.96,-88.28 212.39,-94.85"/>
</g>
<!-- Node17 -->
<g id="node17" class="node">
<title>Node17</title>
<g id="a_node17"><a xlink:href="newton_raphson_8cpp.html#ab7adec5a98f13e19c121f8cf74e29682" target="_top" xlink:title="Inverse matrix">
<polygon fill="none" stroke="black" points="237,-19.5 237,-38.5 311,-38.5 311,-19.5 237,-19.5"/>
<text text-anchor="middle" x="274" y="-26.5" font-family="Helvetica,sans-Serif" font-size="10.00">inverseMatrix</text>
</a>
</g>
</g>
<!-- Node12&#45;&gt;Node17 -->
<g id="edge16" class="edge">
<title>Node12&#45;&gt;Node17</title>
<path fill="none" stroke="midnightblue" d="M122.96,-137.2C133.53,-117.33 160.26,-72.23 196,-49 205.31,-42.95 216.37,-38.73 227.15,-35.78"/>
<polygon fill="midnightblue" stroke="midnightblue" points="228.03,-39.17 236.93,-33.42 226.38,-32.37 228.03,-39.17"/>
</g>
<!-- Node18 -->
<g id="node18" class="node">
<title>Node18</title>
<g id="a_node18"><a xlink:href="newton_raphson_8cpp.html#a63129f00109f367f324037fe32e501e5" target="_top" xlink:title="Adjoint matrix">
<polygon fill="none" stroke="black" points="388,-38.5 388,-57.5 433,-57.5 433,-38.5 388,-38.5"/>
<text text-anchor="middle" x="410.5" y="-45.5" font-family="Helvetica,sans-Serif" font-size="10.00">adjoint</text>
</a>
</g>
</g>
<!-- Node17&#45;&gt;Node18 -->
<g id="edge17" class="edge">
<title>Node17&#45;&gt;Node18</title>
<path fill="none" stroke="midnightblue" d="M311.04,-34.09C331.75,-37.02 357.54,-40.66 377.53,-43.48"/>
<polygon fill="midnightblue" stroke="midnightblue" points="377.29,-46.98 387.68,-44.92 378.27,-40.05 377.29,-46.98"/>
</g>
<!-- Node20 -->
<g id="node20" class="node">
<title>Node20</title>
<g id="a_node20"><a xlink:href="newton_raphson_8cpp.html#ad049f67ee0cec615720c3e6c31b0ed9a" target="_top" xlink:title="Determinant of matrix">
<polygon fill="none" stroke="black" points="469,-0.5 469,-19.5 537,-19.5 537,-0.5 469,-0.5"/>
<text text-anchor="middle" x="503" y="-7.5" font-family="Helvetica,sans-Serif" font-size="10.00">determinant</text>
</a>
</g>
</g>
<!-- Node17&#45;&gt;Node20 -->
<g id="edge22" class="edge">
<title>Node17&#45;&gt;Node20</title>
<path fill="none" stroke="midnightblue" d="M311.22,-25.97C351.35,-22.61 416.01,-17.2 458.76,-13.62"/>
<polygon fill="midnightblue" stroke="midnightblue" points="459.19,-17.1 468.86,-12.77 458.61,-10.12 459.19,-17.1"/>
</g>
<!-- Node19 -->
<g id="node19" class="node">
<title>Node19</title>
<g id="a_node19"><a xlink:href="newton_raphson_8cpp.html#a59fbc7ab4e906c283c231d973da3041c" target="_top" xlink:title="Cofactor of the matrix">
<polygon fill="none" stroke="black" points="573,-28.5 573,-47.5 624,-47.5 624,-28.5 573,-28.5"/>
<text text-anchor="middle" x="598.5" y="-35.5" font-family="Helvetica,sans-Serif" font-size="10.00">cofactor</text>
</a>
</g>
</g>
<!-- Node18&#45;&gt;Node19 -->
<g id="edge18" class="edge">
<title>Node18&#45;&gt;Node19</title>
<path fill="none" stroke="midnightblue" d="M433.3,-48.75C458.37,-49.39 500.72,-49.83 537,-47 545.43,-46.34 554.47,-45.22 562.92,-43.99"/>
<polygon fill="midnightblue" stroke="midnightblue" points="563.51,-47.44 572.86,-42.46 562.45,-40.53 563.51,-47.44"/>
</g>
<!-- Node18&#45;&gt;Node20 -->
<g id="edge19" class="edge">
<title>Node18&#45;&gt;Node20</title>
<path fill="none" stroke="midnightblue" d="M433.41,-38.8C444.39,-34.19 457.89,-28.52 470.01,-23.43"/>
<polygon fill="midnightblue" stroke="midnightblue" points="471.48,-26.61 479.35,-19.51 468.77,-20.16 471.48,-26.61"/>
</g>
<!-- Node20&#45;&gt;Node19 -->
<g id="edge20" class="edge">
<title>Node20&#45;&gt;Node19</title>
<path fill="none" stroke="midnightblue" d="M535.92,-19.56C544.68,-22.18 554.22,-25.04 563.12,-27.7"/>
<polygon fill="midnightblue" stroke="midnightblue" points="562.23,-31.09 572.81,-30.61 564.23,-24.38 562.23,-31.09"/>
</g>
<!-- Node20&#45;&gt;Node20 -->
<g id="edge21" class="edge">
<title>Node20&#45;&gt;Node20</title>
<path fill="none" stroke="midnightblue" d="M488.82,-19.76C481.92,-28.57 486.65,-38 503,-38 513.22,-38 518.9,-34.31 520.04,-29.4"/>
<polygon fill="midnightblue" stroke="midnightblue" points="523.38,-28.35 517.18,-19.76 516.66,-30.34 523.38,-28.35"/>
</g>
</g>
</svg>
