<?xml version="1.0" encoding="UTF-8" standalone="no"?>
<!DOCTYPE svg PUBLIC "-//W3C//DTD SVG 1.1//EN"
 "http://www.w3.org/Graphics/SVG/1.1/DTD/svg11.dtd">
<!-- Generated by graphviz version 4.0.0 (20220529.0937)
 -->
<!-- Title: main.cpp Pages: 1 -->
<svg width="484pt" height="196pt"
 viewBox="0.00 0.00 483.50 196.00" xmlns="http://www.w3.org/2000/svg" xmlns:xlink="http://www.w3.org/1999/xlink">
<g id="graph0" class="graph" transform="scale(1 1) rotate(0) translate(4 192)">
<title>main.cpp</title>
<!-- Node1 -->
<g id="node1" class="node">
<title>Node1</title>
<g id="a_node1"><a xlink:title=" ">
<polygon fill="#bfbfbf" stroke="black" points="173.5,-168.5 173.5,-187.5 229.5,-187.5 229.5,-168.5 173.5,-168.5"/>
<text text-anchor="middle" x="201.5" y="-175.5" font-family="Helvetica,sans-Serif" font-size="10.00">main.cpp</text>
</a>
</g>
</g>
<!-- Node2 -->
<g id="node2" class="node">
<title>Node2</title>
<g id="a_node2"><a xlink:title=" ">
<polygon fill="none" stroke="#bfbfbf" points="54.5,-56.5 54.5,-75.5 108.5,-75.5 108.5,-56.5 54.5,-56.5"/>
<text text-anchor="middle" x="81.5" y="-63.5" font-family="Helvetica,sans-Serif" font-size="10.00">iostream</text>
</a>
</g>
</g>
<!-- Node1&#45;&gt;Node2 -->
<g id="edge1" class="edge">
<title>Node1&#45;&gt;Node2</title>
<path fill="none" stroke="midnightblue" d="M174.09,-168.49C154.83,-161.34 129.56,-149.46 112.5,-132 99.69,-118.89 91.38,-99.47 86.62,-85.28"/>
<polygon fill="midnightblue" stroke="midnightblue" points="89.94,-84.16 83.66,-75.63 83.25,-86.22 89.94,-84.16"/>
</g>
<!-- Node3 -->
<g id="node3" class="node">
<title>Node3</title>
<g id="a_node3"><a xlink:href="system_model_8h.html" target="_top" xlink:title=" ">
<polygon fill="none" stroke="black" points="194,-56.5 194,-75.5 277,-75.5 277,-56.5 194,-56.5"/>
<text text-anchor="middle" x="235.5" y="-63.5" font-family="Helvetica,sans-Serif" font-size="10.00">systemModel.h</text>
</a>
</g>
</g>
<!-- Node1&#45;&gt;Node3 -->
<g id="edge2" class="edge">
<title>Node1&#45;&gt;Node3</title>
<path fill="none" stroke="midnightblue" d="M203.98,-168.14C207.51,-155.6 214.25,-131.97 220.5,-112 223.27,-103.15 226.5,-93.37 229.26,-85.2"/>
<polygon fill="midnightblue" stroke="midnightblue" points="232.62,-86.19 232.53,-75.6 225.99,-83.94 232.62,-86.19"/>
</g>
<!-- Node10 -->
<g id="node10" class="node">
<title>Node10</title>
<g id="a_node10"><a xlink:href="newton_raphson_8h.html" target="_top" xlink:title=" ">
<polygon fill="none" stroke="black" points="299.5,-112.5 299.5,-131.5 393.5,-131.5 393.5,-112.5 299.5,-112.5"/>
<text text-anchor="middle" x="346.5" y="-119.5" font-family="Helvetica,sans-Serif" font-size="10.00">newtonRaphson.h</text>
</a>
</g>
</g>
<!-- Node1&#45;&gt;Node10 -->
<g id="edge9" class="edge">
<title>Node1&#45;&gt;Node10</title>
<path fill="none" stroke="midnightblue" d="M224.48,-168.44C248.66,-159.44 286.92,-145.19 314.15,-135.05"/>
<polygon fill="midnightblue" stroke="midnightblue" points="315.48,-138.29 323.63,-131.52 313.04,-131.73 315.48,-138.29"/>
</g>
<!-- Node13 -->
<g id="node13" class="node">
<title>Node13</title>
<g id="a_node13"><a xlink:href="export_8h.html" target="_top" xlink:title=" ">
<polygon fill="none" stroke="black" points="121.5,-112.5 121.5,-131.5 173.5,-131.5 173.5,-112.5 121.5,-112.5"/>
<text text-anchor="middle" x="147.5" y="-119.5" font-family="Helvetica,sans-Serif" font-size="10.00">export.h</text>
</a>
</g>
</g>
<!-- Node1&#45;&gt;Node13 -->
<g id="edge14" class="edge">
<title>Node1&#45;&gt;Node13</title>
<path fill="none" stroke="midnightblue" d="M192.58,-168.08C184.72,-160.22 173.07,-148.57 163.58,-139.08"/>
<polygon fill="midnightblue" stroke="midnightblue" points="165.8,-136.35 156.25,-131.75 160.85,-141.3 165.8,-136.35"/>
</g>
<!-- Node15 -->
<g id="node15" class="node">
<title>Node15</title>
<g id="a_node15"><a xlink:href="import_8h.html" target="_top" xlink:title=" ">
<polygon fill="none" stroke="black" points="229.5,-112.5 229.5,-131.5 281.5,-131.5 281.5,-112.5 229.5,-112.5"/>
<text text-anchor="middle" x="255.5" y="-119.5" font-family="Helvetica,sans-Serif" font-size="10.00">import.h</text>
</a>
</g>
</g>
<!-- Node1&#45;&gt;Node15 -->
<g id="edge18" class="edge">
<title>Node1&#45;&gt;Node15</title>
<path fill="none" stroke="midnightblue" d="M210.42,-168.08C218.28,-160.22 229.93,-148.57 239.42,-139.08"/>
<polygon fill="midnightblue" stroke="midnightblue" points="242.15,-141.3 246.75,-131.75 237.2,-136.35 242.15,-141.3"/>
</g>
<!-- Node4 -->
<g id="node4" class="node">
<title>Node4</title>
<g id="a_node4"><a xlink:title=" ">
<polygon fill="none" stroke="#bfbfbf" points="329.5,-0.5 329.5,-19.5 371.5,-19.5 371.5,-0.5 329.5,-0.5"/>
<text text-anchor="middle" x="350.5" y="-7.5" font-family="Helvetica,sans-Serif" font-size="10.00">vector</text>
</a>
</g>
</g>
<!-- Node3&#45;&gt;Node4 -->
<g id="edge3" class="edge">
<title>Node3&#45;&gt;Node4</title>
<path fill="none" stroke="midnightblue" d="M253.72,-56.44C272.4,-47.68 301.66,-33.94 323.12,-23.86"/>
<polygon fill="midnightblue" stroke="midnightblue" points="324.8,-26.93 332.36,-19.52 321.82,-20.6 324.8,-26.93"/>
</g>
<!-- Node5 -->
<g id="node5" class="node">
<title>Node5</title>
<g id="a_node5"><a xlink:title=" ">
<polygon fill="none" stroke="#bfbfbf" points="0,-0.5 0,-19.5 53,-19.5 53,-0.5 0,-0.5"/>
<text text-anchor="middle" x="26.5" y="-7.5" font-family="Helvetica,sans-Serif" font-size="10.00">complex</text>
</a>
</g>
</g>
<!-- Node3&#45;&gt;Node5 -->
<g id="edge4" class="edge">
<title>Node3&#45;&gt;Node5</title>
<path fill="none" stroke="midnightblue" d="M202.38,-56.44C164.37,-46.62 102.22,-30.56 62.88,-20.4"/>
<polygon fill="midnightblue" stroke="midnightblue" points="63.72,-17 53.16,-17.89 61.97,-23.78 63.72,-17"/>
</g>
<!-- Node6 -->
<g id="node6" class="node">
<title>Node6</title>
<g id="a_node6"><a xlink:title=" ">
<polygon fill="none" stroke="#bfbfbf" points="71.5,-0.5 71.5,-19.5 121.5,-19.5 121.5,-0.5 71.5,-0.5"/>
<text text-anchor="middle" x="96.5" y="-7.5" font-family="Helvetica,sans-Serif" font-size="10.00">optional</text>
</a>
</g>
</g>
<!-- Node3&#45;&gt;Node6 -->
<g id="edge5" class="edge">
<title>Node3&#45;&gt;Node6</title>
<path fill="none" stroke="midnightblue" d="M213.48,-56.44C190.4,-47.48 153.94,-33.31 127.86,-23.18"/>
<polygon fill="midnightblue" stroke="midnightblue" points="129.01,-19.88 118.42,-19.52 126.48,-26.4 129.01,-19.88"/>
</g>
<!-- Node7 -->
<g id="node7" class="node">
<title>Node7</title>
<g id="a_node7"><a xlink:title=" ">
<polygon fill="none" stroke="#bfbfbf" points="139.5,-0.5 139.5,-19.5 197.5,-19.5 197.5,-0.5 139.5,-0.5"/>
<text text-anchor="middle" x="168.5" y="-7.5" font-family="Helvetica,sans-Serif" font-size="10.00">functional</text>
</a>
</g>
</g>
<!-- Node3&#45;&gt;Node7 -->
<g id="edge6" class="edge">
<title>Node3&#45;&gt;Node7</title>
<path fill="none" stroke="midnightblue" d="M224.74,-56.32C214.73,-48.26 199.61,-36.08 187.57,-26.37"/>
<polygon fill="midnightblue" stroke="midnightblue" points="189.44,-23.38 179.46,-19.83 185.05,-28.83 189.44,-23.38"/>
</g>
<!-- Node8 -->
<g id="node8" class="node">
<title>Node8</title>
<g id="a_node8"><a xlink:title=" ">
<polygon fill="none" stroke="#bfbfbf" points="215.5,-0.5 215.5,-19.5 255.5,-19.5 255.5,-0.5 215.5,-0.5"/>
<text text-anchor="middle" x="235.5" y="-7.5" font-family="Helvetica,sans-Serif" font-size="10.00">utility</text>
</a>
</g>
</g>
<!-- Node3&#45;&gt;Node8 -->
<g id="edge7" class="edge">
<title>Node3&#45;&gt;Node8</title>
<path fill="none" stroke="midnightblue" d="M235.5,-56.08C235.5,-49.01 235.5,-38.86 235.5,-29.99"/>
<polygon fill="midnightblue" stroke="midnightblue" points="239,-29.75 235.5,-19.75 232,-29.75 239,-29.75"/>
</g>
<!-- Node9 -->
<g id="node9" class="node">
<title>Node9</title>
<g id="a_node9"><a xlink:title=" ">
<polygon fill="none" stroke="#bfbfbf" points="273.5,-0.5 273.5,-19.5 311.5,-19.5 311.5,-0.5 273.5,-0.5"/>
<text text-anchor="middle" x="292.5" y="-7.5" font-family="Helvetica,sans-Serif" font-size="10.00">tuple</text>
</a>
</g>
</g>
<!-- Node3&#45;&gt;Node9 -->
<g id="edge8" class="edge">
<title>Node3&#45;&gt;Node9</title>
<path fill="none" stroke="midnightblue" d="M244.66,-56.32C253,-48.42 265.53,-36.55 275.68,-26.94"/>
<polygon fill="midnightblue" stroke="midnightblue" points="278.32,-29.25 283.18,-19.83 273.51,-24.17 278.32,-29.25"/>
</g>
<!-- Node10&#45;&gt;Node3 -->
<g id="edge10" class="edge">
<title>Node10&#45;&gt;Node3</title>
<path fill="none" stroke="midnightblue" d="M328.67,-112.32C310.78,-103.62 283.02,-90.12 262.45,-80.11"/>
<polygon fill="midnightblue" stroke="midnightblue" points="263.81,-76.88 253.29,-75.65 260.75,-83.18 263.81,-76.88"/>
</g>
<!-- Node10&#45;&gt;Node4 -->
<g id="edge11" class="edge">
<title>Node10&#45;&gt;Node4</title>
<path fill="none" stroke="midnightblue" d="M345.97,-112.16C345.31,-99.65 344.39,-76.06 345.5,-56 345.98,-47.36 346.97,-37.83 347.95,-29.77"/>
<polygon fill="midnightblue" stroke="midnightblue" points="351.45,-29.97 349.26,-19.6 344.51,-29.07 351.45,-29.97"/>
</g>
<!-- Node11 -->
<g id="node11" class="node">
<title>Node11</title>
<g id="a_node11"><a xlink:title=" ">
<polygon fill="none" stroke="#bfbfbf" points="354,-56.5 354,-75.5 401,-75.5 401,-56.5 354,-56.5"/>
<text text-anchor="middle" x="377.5" y="-63.5" font-family="Helvetica,sans-Serif" font-size="10.00">math.h</text>
</a>
</g>
</g>
<!-- Node10&#45;&gt;Node11 -->
<g id="edge12" class="edge">
<title>Node10&#45;&gt;Node11</title>
<path fill="none" stroke="midnightblue" d="M351.62,-112.08C355.91,-104.61 362.16,-93.72 367.44,-84.52"/>
<polygon fill="midnightblue" stroke="midnightblue" points="370.53,-86.17 372.48,-75.75 364.46,-82.68 370.53,-86.17"/>
</g>
<!-- Node12 -->
<g id="node12" class="node">
<title>Node12</title>
<g id="a_node12"><a xlink:title=" ">
<polygon fill="none" stroke="#bfbfbf" points="419.5,-56.5 419.5,-75.5 475.5,-75.5 475.5,-56.5 419.5,-56.5"/>
<text text-anchor="middle" x="447.5" y="-63.5" font-family="Helvetica,sans-Serif" font-size="10.00">algorithm</text>
</a>
</g>
</g>
<!-- Node10&#45;&gt;Node12 -->
<g id="edge13" class="edge">
<title>Node10&#45;&gt;Node12</title>
<path fill="none" stroke="midnightblue" d="M362.73,-112.32C378.85,-103.7 403.8,-90.36 422.46,-80.39"/>
<polygon fill="midnightblue" stroke="midnightblue" points="424.14,-83.46 431.31,-75.65 420.84,-77.28 424.14,-83.46"/>
</g>
<!-- Node13&#45;&gt;Node2 -->
<g id="edge16" class="edge">
<title>Node13&#45;&gt;Node2</title>
<path fill="none" stroke="midnightblue" d="M136.9,-112.32C127.04,-104.26 112.15,-92.08 100.28,-82.37"/>
<polygon fill="midnightblue" stroke="midnightblue" points="102.25,-79.46 92.3,-75.83 97.82,-84.88 102.25,-79.46"/>
</g>
<!-- Node13&#45;&gt;Node3 -->
<g id="edge17" class="edge">
<title>Node13&#45;&gt;Node3</title>
<path fill="none" stroke="midnightblue" d="M161.64,-112.32C175.37,-103.9 196.44,-90.97 212.56,-81.07"/>
<polygon fill="midnightblue" stroke="midnightblue" points="214.7,-83.87 221.4,-75.65 211.04,-77.9 214.7,-83.87"/>
</g>
<!-- Node14 -->
<g id="node14" class="node">
<title>Node14</title>
<g id="a_node14"><a xlink:title=" ">
<polygon fill="none" stroke="#bfbfbf" points="127,-56.5 127,-75.5 176,-75.5 176,-56.5 127,-56.5"/>
<text text-anchor="middle" x="151.5" y="-63.5" font-family="Helvetica,sans-Serif" font-size="10.00">fstream</text>
</a>
</g>
</g>
<!-- Node13&#45;&gt;Node14 -->
<g id="edge15" class="edge">
<title>Node13&#45;&gt;Node14</title>
<path fill="none" stroke="midnightblue" d="M148.16,-112.08C148.68,-105.01 149.44,-94.86 150.09,-85.99"/>
<polygon fill="midnightblue" stroke="midnightblue" points="153.6,-85.98 150.85,-75.75 146.62,-85.47 153.6,-85.98"/>
</g>
<!-- Node15&#45;&gt;Node3 -->
<g id="edge19" class="edge">
<title>Node15&#45;&gt;Node3</title>
<path fill="none" stroke="midnightblue" d="M252.2,-112.08C249.52,-104.85 245.65,-94.41 242.31,-85.4"/>
<polygon fill="midnightblue" stroke="midnightblue" points="245.5,-83.91 238.74,-75.75 238.93,-86.34 245.5,-83.91"/>
</g>
</g>
</svg>
