<?xml version="1.0" encoding="UTF-8" standalone="no"?>
<!DOCTYPE svg PUBLIC "-//W3C//DTD SVG 1.1//EN"
 "http://www.w3.org/Graphics/SVG/1.1/DTD/svg11.dtd">
<!-- Generated by graphviz version 4.0.0 (20220529.0937)
 -->
<!-- Title: SystemModel::operator&lt;&lt; Pages: 1 -->
<svg width="317pt" height="88pt"
 viewBox="0.00 0.00 317.00 88.00" xmlns="http://www.w3.org/2000/svg" xmlns:xlink="http://www.w3.org/1999/xlink">
<g id="graph0" class="graph" transform="scale(1 1) rotate(0) translate(4 84)">
<title>SystemModel::operator&lt;&lt;</title>
<!-- Node1 -->
<g id="node1" class="node">
<title>Node1</title>
<g id="a_node1"><a xlink:title="Output stream operator overload">
<polygon fill="#bfbfbf" stroke="black" points="0,-30 0,-49 130,-49 130,-30 0,-30"/>
<text text-anchor="middle" x="65" y="-37" font-family="Helvetica,sans-Serif" font-size="10.00">SystemModel::operator&lt;&lt;</text>
</a>
</g>
</g>
<!-- Node2 -->
<g id="node2" class="node">
<title>Node2</title>
<g id="a_node2"><a xlink:href="class_system_model_1_1_system_model.html#a6dcd8db16543251dfc280b489a39d3db" target="_top" xlink:title=" ">
<polygon fill="none" stroke="black" points="166,-49.5 166,-79.5 309,-79.5 309,-49.5 166,-49.5"/>
<text text-anchor="start" x="174" y="-67.5" font-family="Helvetica,sans-Serif" font-size="10.00">SystemModel::SystemModel</text>
<text text-anchor="middle" x="237.5" y="-56.5" font-family="Helvetica,sans-Serif" font-size="10.00">::getBranches</text>
</a>
</g>
</g>
<!-- Node1&#45;&gt;Node2 -->
<g id="edge1" class="edge">
<title>Node1&#45;&gt;Node2</title>
<path fill="none" stroke="midnightblue" d="M130.46,-48.95C138.8,-50.17 147.42,-51.44 155.97,-52.69"/>
<polygon fill="midnightblue" stroke="midnightblue" points="155.56,-56.17 165.96,-54.16 156.58,-49.24 155.56,-56.17"/>
</g>
<!-- Node3 -->
<g id="node3" class="node">
<title>Node3</title>
<g id="a_node3"><a xlink:href="class_system_model_1_1_system_model.html#aeac1243543078dfac02052bc1c94bb21" target="_top" xlink:title=" ">
<polygon fill="none" stroke="black" points="166,-0.5 166,-30.5 309,-30.5 309,-0.5 166,-0.5"/>
<text text-anchor="start" x="174" y="-18.5" font-family="Helvetica,sans-Serif" font-size="10.00">SystemModel::SystemModel</text>
<text text-anchor="middle" x="237.5" y="-7.5" font-family="Helvetica,sans-Serif" font-size="10.00">::getCapacitorBanks</text>
</a>
</g>
</g>
<!-- Node1&#45;&gt;Node3 -->
<g id="edge2" class="edge">
<title>Node1&#45;&gt;Node3</title>
<path fill="none" stroke="midnightblue" d="M130.46,-30.43C138.8,-29.25 147.42,-28.04 155.97,-26.84"/>
<polygon fill="midnightblue" stroke="midnightblue" points="156.55,-30.29 165.96,-25.43 155.57,-23.36 156.55,-30.29"/>
</g>
</g>
</svg>
