<?xml version="1.0" encoding="UTF-8" standalone="no"?>
<!DOCTYPE svg PUBLIC "-//W3C//DTD SVG 1.1//EN"
 "http://www.w3.org/Graphics/SVG/1.1/DTD/svg11.dtd">
<!-- Generated by graphviz version 4.0.0 (20220529.0937)
 -->
<!-- Title: inverseMatrix Pages: 1 -->
<svg width="354pt" height="66pt"
 viewBox="0.00 0.00 354.00 66.00" xmlns="http://www.w3.org/2000/svg" xmlns:xlink="http://www.w3.org/1999/xlink">
<g id="graph0" class="graph" transform="scale(1 1) rotate(0) translate(4 62)">
<title>inverseMatrix</title>
<!-- Node1 -->
<g id="node1" class="node">
<title>Node1</title>
<g id="a_node1"><a xlink:title="Inverse matrix">
<polygon fill="#bfbfbf" stroke="black" points="0,-19.5 0,-38.5 74,-38.5 74,-19.5 0,-19.5"/>
<text text-anchor="middle" x="37" y="-26.5" font-family="Helvetica,sans-Serif" font-size="10.00">inverseMatrix</text>
</a>
</g>
</g>
<!-- Node2 -->
<g id="node2" class="node">
<title>Node2</title>
<g id="a_node2"><a xlink:href="newton_raphson_8cpp.html#a63129f00109f367f324037fe32e501e5" target="_top" xlink:title="Adjoint matrix">
<polygon fill="none" stroke="black" points="110,-38.5 110,-57.5 155,-57.5 155,-38.5 110,-38.5"/>
<text text-anchor="middle" x="132.5" y="-45.5" font-family="Helvetica,sans-Serif" font-size="10.00">adjoint</text>
</a>
</g>
</g>
<!-- Node1&#45;&gt;Node2 -->
<g id="edge1" class="edge">
<title>Node1&#45;&gt;Node2</title>
<path fill="none" stroke="midnightblue" d="M74.15,-36.35C82.6,-38.06 91.55,-39.88 99.79,-41.56"/>
<polygon fill="midnightblue" stroke="midnightblue" points="99.28,-45.02 109.77,-43.58 100.67,-38.16 99.28,-45.02"/>
</g>
<!-- Node4 -->
<g id="node4" class="node">
<title>Node4</title>
<g id="a_node4"><a xlink:href="newton_raphson_8cpp.html#ad049f67ee0cec615720c3e6c31b0ed9a" target="_top" xlink:title="Determinant of matrix">
<polygon fill="none" stroke="black" points="191,-0.5 191,-19.5 259,-19.5 259,-0.5 191,-0.5"/>
<text text-anchor="middle" x="225" y="-7.5" font-family="Helvetica,sans-Serif" font-size="10.00">determinant</text>
</a>
</g>
</g>
<!-- Node1&#45;&gt;Node4 -->
<g id="edge6" class="edge">
<title>Node1&#45;&gt;Node4</title>
<path fill="none" stroke="midnightblue" d="M74.3,-25.29C104.83,-22.17 148.54,-17.71 180.85,-14.41"/>
<polygon fill="midnightblue" stroke="midnightblue" points="181.32,-17.88 190.91,-13.38 180.6,-10.91 181.32,-17.88"/>
</g>
<!-- Node3 -->
<g id="node3" class="node">
<title>Node3</title>
<g id="a_node3"><a xlink:href="newton_raphson_8cpp.html#a59fbc7ab4e906c283c231d973da3041c" target="_top" xlink:title="Cofactor of the matrix">
<polygon fill="none" stroke="black" points="295,-28.5 295,-47.5 346,-47.5 346,-28.5 295,-28.5"/>
<text text-anchor="middle" x="320.5" y="-35.5" font-family="Helvetica,sans-Serif" font-size="10.00">cofactor</text>
</a>
</g>
</g>
<!-- Node2&#45;&gt;Node3 -->
<g id="edge2" class="edge">
<title>Node2&#45;&gt;Node3</title>
<path fill="none" stroke="midnightblue" d="M155.3,-48.75C180.37,-49.39 222.72,-49.83 259,-47 267.43,-46.34 276.47,-45.22 284.92,-43.99"/>
<polygon fill="midnightblue" stroke="midnightblue" points="285.51,-47.44 294.86,-42.46 284.45,-40.53 285.51,-47.44"/>
</g>
<!-- Node2&#45;&gt;Node4 -->
<g id="edge3" class="edge">
<title>Node2&#45;&gt;Node4</title>
<path fill="none" stroke="midnightblue" d="M155.41,-38.8C166.39,-34.19 179.89,-28.52 192.01,-23.43"/>
<polygon fill="midnightblue" stroke="midnightblue" points="193.48,-26.61 201.35,-19.51 190.77,-20.16 193.48,-26.61"/>
</g>
<!-- Node4&#45;&gt;Node3 -->
<g id="edge4" class="edge">
<title>Node4&#45;&gt;Node3</title>
<path fill="none" stroke="midnightblue" d="M257.92,-19.56C266.68,-22.18 276.22,-25.04 285.12,-27.7"/>
<polygon fill="midnightblue" stroke="midnightblue" points="284.23,-31.09 294.81,-30.61 286.23,-24.38 284.23,-31.09"/>
</g>
<!-- Node4&#45;&gt;Node4 -->
<g id="edge5" class="edge">
<title>Node4&#45;&gt;Node4</title>
<path fill="none" stroke="midnightblue" d="M210.82,-19.76C203.92,-28.57 208.65,-38 225,-38 235.22,-38 240.9,-34.31 242.04,-29.4"/>
<polygon fill="midnightblue" stroke="midnightblue" points="245.38,-28.35 239.18,-19.76 238.66,-30.34 245.38,-28.35"/>
</g>
</g>
</svg>
