<?xml version="1.0" encoding="UTF-8" standalone="no"?>
<!DOCTYPE svg PUBLIC "-//W3C//DTD SVG 1.1//EN"
 "http://www.w3.org/Graphics/SVG/1.1/DTD/svg11.dtd">
<!-- Generated by graphviz version 4.0.0 (20220529.0937)
 -->
<!-- Title: adjoint Pages: 1 -->
<svg width="244pt" height="57pt"
 viewBox="0.00 0.00 244.00 56.73" xmlns="http://www.w3.org/2000/svg" xmlns:xlink="http://www.w3.org/1999/xlink">
<g id="graph0" class="graph" transform="scale(1 1) rotate(0) translate(4 52.73)">
<title>adjoint</title>
<!-- Node1 -->
<g id="node1" class="node">
<title>Node1</title>
<g id="a_node1"><a xlink:title="Adjoint matrix">
<polygon fill="#bfbfbf" stroke="black" points="0,-28.5 0,-47.5 45,-47.5 45,-28.5 0,-28.5"/>
<text text-anchor="middle" x="22.5" y="-35.5" font-family="Helvetica,sans-Serif" font-size="10.00">adjoint</text>
</a>
</g>
</g>
<!-- Node2 -->
<g id="node2" class="node">
<title>Node2</title>
<g id="a_node2"><a xlink:href="newton_raphson_8cpp.html#a59fbc7ab4e906c283c231d973da3041c" target="_top" xlink:title="Cofactor of the matrix">
<polygon fill="none" stroke="black" points="185,-28.5 185,-47.5 236,-47.5 236,-28.5 185,-28.5"/>
<text text-anchor="middle" x="210.5" y="-35.5" font-family="Helvetica,sans-Serif" font-size="10.00">cofactor</text>
</a>
</g>
</g>
<!-- Node1&#45;&gt;Node2 -->
<g id="edge1" class="edge">
<title>Node1&#45;&gt;Node2</title>
<path fill="none" stroke="midnightblue" d="M45.25,-42.22C55.97,-44.09 69.11,-46.08 81,-47 111.13,-49.34 118.86,-49.23 149,-47 157.43,-46.38 166.47,-45.27 174.93,-44.04"/>
<polygon fill="midnightblue" stroke="midnightblue" points="175.52,-47.49 184.87,-42.51 174.45,-40.57 175.52,-47.49"/>
</g>
<!-- Node3 -->
<g id="node3" class="node">
<title>Node3</title>
<g id="a_node3"><a xlink:href="newton_raphson_8cpp.html#ad049f67ee0cec615720c3e6c31b0ed9a" target="_top" xlink:title="Determinant of matrix">
<polygon fill="none" stroke="black" points="81,-0.5 81,-19.5 149,-19.5 149,-0.5 81,-0.5"/>
<text text-anchor="middle" x="115" y="-7.5" font-family="Helvetica,sans-Serif" font-size="10.00">determinant</text>
</a>
</g>
</g>
<!-- Node1&#45;&gt;Node3 -->
<g id="edge2" class="edge">
<title>Node1&#45;&gt;Node3</title>
<path fill="none" stroke="midnightblue" d="M45.41,-31.22C53.79,-28.63 63.65,-25.58 73.24,-22.61"/>
<polygon fill="midnightblue" stroke="midnightblue" points="74.54,-25.87 83.06,-19.57 72.47,-19.18 74.54,-25.87"/>
</g>
<!-- Node3&#45;&gt;Node2 -->
<g id="edge3" class="edge">
<title>Node3&#45;&gt;Node2</title>
<path fill="none" stroke="midnightblue" d="M147.92,-19.56C156.68,-22.18 166.22,-25.04 175.12,-27.7"/>
<polygon fill="midnightblue" stroke="midnightblue" points="174.23,-31.09 184.81,-30.61 176.23,-24.38 174.23,-31.09"/>
</g>
<!-- Node3&#45;&gt;Node3 -->
<g id="edge4" class="edge">
<title>Node3&#45;&gt;Node3</title>
<path fill="none" stroke="midnightblue" d="M100.82,-19.76C93.92,-28.57 98.65,-38 115,-38 125.22,-38 130.9,-34.31 132.04,-29.4"/>
<polygon fill="midnightblue" stroke="midnightblue" points="135.38,-28.35 129.18,-19.76 128.66,-30.34 135.38,-28.35"/>
</g>
</g>
</svg>
