<?xml version="1.0" encoding="UTF-8" standalone="no"?>
<!DOCTYPE svg PUBLIC "-//W3C//DTD SVG 1.1//EN"
 "http://www.w3.org/Graphics/SVG/1.1/DTD/svg11.dtd">
<!-- Generated by graphviz version 4.0.0 (20220529.0937)
 -->
<!-- Title: cofactor Pages: 1 -->
<svg width="550pt" height="66pt"
 viewBox="0.00 0.00 550.00 66.00" xmlns="http://www.w3.org/2000/svg" xmlns:xlink="http://www.w3.org/1999/xlink">
<g id="graph0" class="graph" transform="scale(1 1) rotate(0) translate(4 62)">
<title>cofactor</title>
<!-- Node1 -->
<g id="node1" class="node">
<title>Node1</title>
<g id="a_node1"><a xlink:title="Cofactor of the matrix">
<polygon fill="#bfbfbf" stroke="black" points="491,-28.5 491,-47.5 542,-47.5 542,-28.5 491,-28.5"/>
<text text-anchor="middle" x="516.5" y="-35.5" font-family="Helvetica,sans-Serif" font-size="10.00">cofactor</text>
</a>
</g>
</g>
<!-- Node2 -->
<g id="node2" class="node">
<title>Node2</title>
<g id="a_node2"><a xlink:href="newton_raphson_8cpp.html#a63129f00109f367f324037fe32e501e5" target="_top" xlink:title="Adjoint matrix">
<polygon fill="none" stroke="black" points="306,-38.5 306,-57.5 351,-57.5 351,-38.5 306,-38.5"/>
<text text-anchor="middle" x="328.5" y="-45.5" font-family="Helvetica,sans-Serif" font-size="10.00">adjoint</text>
</a>
</g>
</g>
<!-- Node1&#45;&gt;Node2 -->
<g id="edge1" class="edge">
<title>Node1&#45;&gt;Node2</title>
<path fill="none" stroke="midnightblue" d="M480.92,-43.99C472.47,-45.22 463.43,-46.34 455,-47 418.72,-49.83 376.37,-49.39 351.3,-48.75"/>
<polygon fill="midnightblue" stroke="midnightblue" points="481.51,-47.44 490.86,-42.46 480.45,-40.53 481.51,-47.44"/>
</g>
<!-- Node6 -->
<g id="node6" class="node">
<title>Node6</title>
<g id="a_node6"><a xlink:href="newton_raphson_8cpp.html#ad049f67ee0cec615720c3e6c31b0ed9a" target="_top" xlink:title="Determinant of matrix">
<polygon fill="none" stroke="black" points="387,-0.5 387,-19.5 455,-19.5 455,-0.5 387,-0.5"/>
<text text-anchor="middle" x="421" y="-7.5" font-family="Helvetica,sans-Serif" font-size="10.00">determinant</text>
</a>
</g>
</g>
<!-- Node1&#45;&gt;Node6 -->
<g id="edge5" class="edge">
<title>Node1&#45;&gt;Node6</title>
<path fill="none" stroke="midnightblue" d="M481.18,-27.72C472.23,-25.04 462.61,-22.16 453.8,-19.52"/>
<polygon fill="midnightblue" stroke="midnightblue" points="480.35,-31.13 490.93,-30.64 482.36,-24.42 480.35,-31.13"/>
</g>
<!-- Node3 -->
<g id="node3" class="node">
<title>Node3</title>
<g id="a_node3"><a xlink:href="newton_raphson_8cpp.html#ab7adec5a98f13e19c121f8cf74e29682" target="_top" xlink:title="Inverse matrix">
<polygon fill="none" stroke="black" points="196,-19.5 196,-38.5 270,-38.5 270,-19.5 196,-19.5"/>
<text text-anchor="middle" x="233" y="-26.5" font-family="Helvetica,sans-Serif" font-size="10.00">inverseMatrix</text>
</a>
</g>
</g>
<!-- Node2&#45;&gt;Node3 -->
<g id="edge2" class="edge">
<title>Node2&#45;&gt;Node3</title>
<path fill="none" stroke="midnightblue" d="M295.84,-41.57C287.61,-39.89 278.67,-38.08 270.22,-36.36"/>
<polygon fill="midnightblue" stroke="midnightblue" points="295.32,-45.03 305.81,-43.59 296.71,-38.17 295.32,-45.03"/>
</g>
<!-- Node4 -->
<g id="node4" class="node">
<title>Node4</title>
<g id="a_node4"><a xlink:href="newton_raphson_8cpp.html#ab389b0b2ae2bef9ae5c669fdf20a7e75" target="_top" xlink:title="Newton Raphson method">
<polygon fill="none" stroke="black" points="74,-19.5 74,-38.5 160,-38.5 160,-19.5 74,-19.5"/>
<text text-anchor="middle" x="117" y="-26.5" font-family="Helvetica,sans-Serif" font-size="10.00">newtonRaphson</text>
</a>
</g>
</g>
<!-- Node3&#45;&gt;Node4 -->
<g id="edge3" class="edge">
<title>Node3&#45;&gt;Node4</title>
<path fill="none" stroke="midnightblue" d="M185.82,-29C177.35,-29 168.55,-29 160.21,-29"/>
<polygon fill="midnightblue" stroke="midnightblue" points="185.93,-32.5 195.93,-29 185.93,-25.5 185.93,-32.5"/>
</g>
<!-- Node5 -->
<g id="node5" class="node">
<title>Node5</title>
<g id="a_node5"><a xlink:href="main_8cpp.html#ae66f6b31b5ad750f1fe042a706a4e3d4" target="_top" xlink:title=" ">
<polygon fill="none" stroke="black" points="0,-19.5 0,-38.5 38,-38.5 38,-19.5 0,-19.5"/>
<text text-anchor="middle" x="19" y="-26.5" font-family="Helvetica,sans-Serif" font-size="10.00">main</text>
</a>
</g>
</g>
<!-- Node4&#45;&gt;Node5 -->
<g id="edge4" class="edge">
<title>Node4&#45;&gt;Node5</title>
<path fill="none" stroke="midnightblue" d="M63.89,-29C54.68,-29 45.68,-29 38.24,-29"/>
<polygon fill="midnightblue" stroke="midnightblue" points="63.89,-32.5 73.89,-29 63.89,-25.5 63.89,-32.5"/>
</g>
<!-- Node6&#45;&gt;Node2 -->
<g id="edge6" class="edge">
<title>Node6&#45;&gt;Node2</title>
<path fill="none" stroke="midnightblue" d="M387.77,-23.53C375.6,-28.64 362.05,-34.33 351.08,-38.94"/>
<polygon fill="midnightblue" stroke="midnightblue" points="389.3,-26.69 397.16,-19.59 386.59,-20.23 389.3,-26.69"/>
</g>
<!-- Node6&#45;&gt;Node3 -->
<g id="edge8" class="edge">
<title>Node6&#45;&gt;Node3</title>
<path fill="none" stroke="midnightblue" d="M376.67,-14.43C344.32,-17.73 300.62,-22.19 270.14,-25.31"/>
<polygon fill="midnightblue" stroke="midnightblue" points="377.15,-17.9 386.75,-13.4 376.44,-10.93 377.15,-17.9"/>
</g>
<!-- Node6&#45;&gt;Node6 -->
<g id="edge7" class="edge">
<title>Node6&#45;&gt;Node6</title>
<path fill="none" stroke="midnightblue" d="M438.04,-29.4C436.9,-34.31 431.22,-38 421,-38 404.65,-38 399.92,-28.57 406.82,-19.76"/>
<polygon fill="midnightblue" stroke="midnightblue" points="441.38,-28.35 435.18,-19.76 434.66,-30.34 441.38,-28.35"/>
</g>
</g>
</svg>
