<?xml version="1.0" encoding="UTF-8" standalone="no"?>
<!DOCTYPE svg PUBLIC "-//W3C//DTD SVG 1.1//EN"
 "http://www.w3.org/Graphics/SVG/1.1/DTD/svg11.dtd">
<!-- Generated by graphviz version 4.0.0 (20220529.0937)
 -->
<!-- Title: newtonRaphson.h Pages: 1 -->
<svg width="380pt" height="140pt"
 viewBox="0.00 0.00 380.00 140.00" xmlns="http://www.w3.org/2000/svg" xmlns:xlink="http://www.w3.org/1999/xlink">
<g id="graph0" class="graph" transform="scale(1 1) rotate(0) translate(4 136)">
<title>newtonRaphson.h</title>
<!-- Node1 -->
<g id="node1" class="node">
<title>Node1</title>
<g id="a_node1"><a xlink:title=" ">
<polygon fill="#bfbfbf" stroke="black" points="151,-112.5 151,-131.5 245,-131.5 245,-112.5 151,-112.5"/>
<text text-anchor="middle" x="198" y="-119.5" font-family="Helvetica,sans-Serif" font-size="10.00">newtonRaphson.h</text>
</a>
</g>
</g>
<!-- Node2 -->
<g id="node2" class="node">
<title>Node2</title>
<g id="a_node2"><a xlink:href="system_model_8h.html" target="_top" xlink:title=" ">
<polygon fill="none" stroke="black" points="115.5,-56.5 115.5,-75.5 198.5,-75.5 198.5,-56.5 115.5,-56.5"/>
<text text-anchor="middle" x="157" y="-63.5" font-family="Helvetica,sans-Serif" font-size="10.00">systemModel.h</text>
</a>
</g>
</g>
<!-- Node1&#45;&gt;Node2 -->
<g id="edge1" class="edge">
<title>Node1&#45;&gt;Node2</title>
<path fill="none" stroke="midnightblue" d="M191.23,-112.08C185.44,-104.46 176.94,-93.26 169.86,-83.94"/>
<polygon fill="midnightblue" stroke="midnightblue" points="172.48,-81.6 163.64,-75.75 166.9,-85.83 172.48,-81.6"/>
</g>
<!-- Node3 -->
<g id="node3" class="node">
<title>Node3</title>
<g id="a_node3"><a xlink:title=" ">
<polygon fill="none" stroke="#bfbfbf" points="0,-0.5 0,-19.5 42,-19.5 42,-0.5 0,-0.5"/>
<text text-anchor="middle" x="21" y="-7.5" font-family="Helvetica,sans-Serif" font-size="10.00">vector</text>
</a>
</g>
</g>
<!-- Node1&#45;&gt;Node3 -->
<g id="edge8" class="edge">
<title>Node1&#45;&gt;Node3</title>
<path fill="none" stroke="midnightblue" d="M177.9,-112.38C159.07,-104 130.39,-90.45 107,-76 82.32,-60.76 56,-40.15 39.08,-26.26"/>
<polygon fill="midnightblue" stroke="midnightblue" points="41.07,-23.36 31.14,-19.67 36.6,-28.75 41.07,-23.36"/>
</g>
<!-- Node9 -->
<g id="node9" class="node">
<title>Node9</title>
<g id="a_node9"><a xlink:title=" ">
<polygon fill="none" stroke="#bfbfbf" points="216.5,-56.5 216.5,-75.5 263.5,-75.5 263.5,-56.5 216.5,-56.5"/>
<text text-anchor="middle" x="240" y="-63.5" font-family="Helvetica,sans-Serif" font-size="10.00">math.h</text>
</a>
</g>
</g>
<!-- Node1&#45;&gt;Node9 -->
<g id="edge9" class="edge">
<title>Node1&#45;&gt;Node9</title>
<path fill="none" stroke="midnightblue" d="M204.94,-112.08C210.93,-104.38 219.75,-93.03 227.05,-83.65"/>
<polygon fill="midnightblue" stroke="midnightblue" points="229.82,-85.79 233.19,-75.75 224.29,-81.5 229.82,-85.79"/>
</g>
<!-- Node10 -->
<g id="node10" class="node">
<title>Node10</title>
<g id="a_node10"><a xlink:title=" ">
<polygon fill="none" stroke="#bfbfbf" points="282,-56.5 282,-75.5 338,-75.5 338,-56.5 282,-56.5"/>
<text text-anchor="middle" x="310" y="-63.5" font-family="Helvetica,sans-Serif" font-size="10.00">algorithm</text>
</a>
</g>
</g>
<!-- Node1&#45;&gt;Node10 -->
<g id="edge10" class="edge">
<title>Node1&#45;&gt;Node10</title>
<path fill="none" stroke="midnightblue" d="M215.99,-112.32C234.04,-103.62 262.05,-90.12 282.8,-80.11"/>
<polygon fill="midnightblue" stroke="midnightblue" points="284.56,-83.15 292.05,-75.65 281.52,-76.84 284.56,-83.15"/>
</g>
<!-- Node2&#45;&gt;Node3 -->
<g id="edge2" class="edge">
<title>Node2&#45;&gt;Node3</title>
<path fill="none" stroke="midnightblue" d="M135.45,-56.44C112.84,-47.46 77.09,-33.27 51.57,-23.14"/>
<polygon fill="midnightblue" stroke="midnightblue" points="52.59,-19.78 42,-19.34 50,-26.28 52.59,-19.78"/>
</g>
<!-- Node4 -->
<g id="node4" class="node">
<title>Node4</title>
<g id="a_node4"><a xlink:title=" ">
<polygon fill="none" stroke="#bfbfbf" points="60.5,-0.5 60.5,-19.5 113.5,-19.5 113.5,-0.5 60.5,-0.5"/>
<text text-anchor="middle" x="87" y="-7.5" font-family="Helvetica,sans-Serif" font-size="10.00">complex</text>
</a>
</g>
</g>
<!-- Node2&#45;&gt;Node4 -->
<g id="edge3" class="edge">
<title>Node2&#45;&gt;Node4</title>
<path fill="none" stroke="midnightblue" d="M145.75,-56.32C135.2,-48.18 119.2,-35.84 106.56,-26.09"/>
<polygon fill="midnightblue" stroke="midnightblue" points="108.51,-23.17 98.45,-19.83 104.23,-28.71 108.51,-23.17"/>
</g>
<!-- Node5 -->
<g id="node5" class="node">
<title>Node5</title>
<g id="a_node5"><a xlink:title=" ">
<polygon fill="none" stroke="#bfbfbf" points="132,-0.5 132,-19.5 182,-19.5 182,-0.5 132,-0.5"/>
<text text-anchor="middle" x="157" y="-7.5" font-family="Helvetica,sans-Serif" font-size="10.00">optional</text>
</a>
</g>
</g>
<!-- Node2&#45;&gt;Node5 -->
<g id="edge4" class="edge">
<title>Node2&#45;&gt;Node5</title>
<path fill="none" stroke="midnightblue" d="M157,-56.08C157,-49.01 157,-38.86 157,-29.99"/>
<polygon fill="midnightblue" stroke="midnightblue" points="160.5,-29.75 157,-19.75 153.5,-29.75 160.5,-29.75"/>
</g>
<!-- Node6 -->
<g id="node6" class="node">
<title>Node6</title>
<g id="a_node6"><a xlink:title=" ">
<polygon fill="none" stroke="#bfbfbf" points="200,-0.5 200,-19.5 258,-19.5 258,-0.5 200,-0.5"/>
<text text-anchor="middle" x="229" y="-7.5" font-family="Helvetica,sans-Serif" font-size="10.00">functional</text>
</a>
</g>
</g>
<!-- Node2&#45;&gt;Node6 -->
<g id="edge5" class="edge">
<title>Node2&#45;&gt;Node6</title>
<path fill="none" stroke="midnightblue" d="M168.57,-56.32C179.42,-48.18 195.88,-35.84 208.88,-26.09"/>
<polygon fill="midnightblue" stroke="midnightblue" points="211.32,-28.63 217.22,-19.83 207.12,-23.03 211.32,-28.63"/>
</g>
<!-- Node7 -->
<g id="node7" class="node">
<title>Node7</title>
<g id="a_node7"><a xlink:title=" ">
<polygon fill="none" stroke="#bfbfbf" points="276,-0.5 276,-19.5 316,-19.5 316,-0.5 276,-0.5"/>
<text text-anchor="middle" x="296" y="-7.5" font-family="Helvetica,sans-Serif" font-size="10.00">utility</text>
</a>
</g>
</g>
<!-- Node2&#45;&gt;Node7 -->
<g id="edge6" class="edge">
<title>Node2&#45;&gt;Node7</title>
<path fill="none" stroke="midnightblue" d="M179.02,-56.44C202.65,-47.27 240.29,-32.64 266.46,-22.47"/>
<polygon fill="midnightblue" stroke="midnightblue" points="267.83,-25.7 275.88,-18.82 265.29,-19.17 267.83,-25.7"/>
</g>
<!-- Node8 -->
<g id="node8" class="node">
<title>Node8</title>
<g id="a_node8"><a xlink:title=" ">
<polygon fill="none" stroke="#bfbfbf" points="334,-0.5 334,-19.5 372,-19.5 372,-0.5 334,-0.5"/>
<text text-anchor="middle" x="353" y="-7.5" font-family="Helvetica,sans-Serif" font-size="10.00">tuple</text>
</a>
</g>
</g>
<!-- Node2&#45;&gt;Node8 -->
<g id="edge7" class="edge">
<title>Node2&#45;&gt;Node8</title>
<path fill="none" stroke="midnightblue" d="M190.92,-56.44C222.96,-48.23 272.56,-35.24 324.11,-20.16"/>
<polygon fill="midnightblue" stroke="midnightblue" points="325.15,-23.5 333.76,-17.32 323.18,-16.79 325.15,-23.5"/>
</g>
</g>
</svg>
