<?xml version="1.0" encoding="UTF-8" standalone="no"?>
<!DOCTYPE svg PUBLIC "-//W3C//DTD SVG 1.1//EN"
 "http://www.w3.org/Graphics/SVG/1.1/DTD/svg11.dtd">
<!-- Generated by graphviz version 4.0.0 (20220529.0937)
 -->
<!-- Title: newtonRaphson.cpp Pages: 1 -->
<svg width="380pt" height="196pt"
 viewBox="0.00 0.00 380.00 196.00" xmlns="http://www.w3.org/2000/svg" xmlns:xlink="http://www.w3.org/1999/xlink">
<g id="graph0" class="graph" transform="scale(1 1) rotate(0) translate(4 192)">
<title>newtonRaphson.cpp</title>
<!-- Node1 -->
<g id="node1" class="node">
<title>Node1</title>
<g id="a_node1"><a xlink:title=" ">
<polygon fill="#bfbfbf" stroke="black" points="162,-168.5 162,-187.5 266,-187.5 266,-168.5 162,-168.5"/>
<text text-anchor="middle" x="214" y="-175.5" font-family="Helvetica,sans-Serif" font-size="10.00">newtonRaphson.cpp</text>
</a>
</g>
</g>
<!-- Node2 -->
<g id="node2" class="node">
<title>Node2</title>
<g id="a_node2"><a xlink:href="system_model_8h.html" target="_top" xlink:title=" ">
<polygon fill="none" stroke="black" points="111.5,-56.5 111.5,-75.5 194.5,-75.5 194.5,-56.5 111.5,-56.5"/>
<text text-anchor="middle" x="153" y="-63.5" font-family="Helvetica,sans-Serif" font-size="10.00">systemModel.h</text>
</a>
</g>
</g>
<!-- Node1&#45;&gt;Node2 -->
<g id="edge1" class="edge">
<title>Node1&#45;&gt;Node2</title>
<path fill="none" stroke="midnightblue" d="M174.75,-168.48C155,-161.99 132.82,-150.84 121,-132 111.04,-116.12 123.53,-96.69 135.7,-83.24"/>
<polygon fill="midnightblue" stroke="midnightblue" points="138.56,-85.32 143.03,-75.71 133.55,-80.43 138.56,-85.32"/>
</g>
<!-- Node3 -->
<g id="node3" class="node">
<title>Node3</title>
<g id="a_node3"><a xlink:title=" ">
<polygon fill="none" stroke="#bfbfbf" points="0,-0.5 0,-19.5 42,-19.5 42,-0.5 0,-0.5"/>
<text text-anchor="middle" x="21" y="-7.5" font-family="Helvetica,sans-Serif" font-size="10.00">vector</text>
</a>
</g>
</g>
<!-- Node1&#45;&gt;Node3 -->
<g id="edge16" class="edge">
<title>Node1&#45;&gt;Node3</title>
<path fill="none" stroke="midnightblue" d="M185.67,-168.46C164.46,-161.12 135.5,-149.01 114,-132 76.58,-102.4 45.78,-54.56 30.81,-28.8"/>
<polygon fill="midnightblue" stroke="midnightblue" points="33.68,-26.77 25.71,-19.8 27.59,-30.22 33.68,-26.77"/>
</g>
<!-- Node9 -->
<g id="node9" class="node">
<title>Node9</title>
<g id="a_node9"><a xlink:href="newton_raphson_8h.html" target="_top" xlink:title=" ">
<polygon fill="none" stroke="black" points="130,-112.5 130,-131.5 224,-131.5 224,-112.5 130,-112.5"/>
<text text-anchor="middle" x="177" y="-119.5" font-family="Helvetica,sans-Serif" font-size="10.00">newtonRaphson.h</text>
</a>
</g>
</g>
<!-- Node1&#45;&gt;Node9 -->
<g id="edge8" class="edge">
<title>Node1&#45;&gt;Node9</title>
<path fill="none" stroke="midnightblue" d="M207.89,-168.08C202.72,-160.53 195.15,-149.49 188.81,-140.23"/>
<polygon fill="midnightblue" stroke="midnightblue" points="191.54,-138.02 183,-131.75 185.76,-141.98 191.54,-138.02"/>
</g>
<!-- Node10 -->
<g id="node10" class="node">
<title>Node10</title>
<g id="a_node10"><a xlink:title=" ">
<polygon fill="none" stroke="#bfbfbf" points="212.5,-56.5 212.5,-75.5 259.5,-75.5 259.5,-56.5 212.5,-56.5"/>
<text text-anchor="middle" x="236" y="-63.5" font-family="Helvetica,sans-Serif" font-size="10.00">math.h</text>
</a>
</g>
</g>
<!-- Node1&#45;&gt;Node10 -->
<g id="edge13" class="edge">
<title>Node1&#45;&gt;Node10</title>
<path fill="none" stroke="midnightblue" d="M218.75,-168.34C223.33,-159.5 230,-145.23 233,-132 236.48,-116.66 237.06,-98.78 236.87,-85.66"/>
<polygon fill="midnightblue" stroke="midnightblue" points="240.36,-85.43 236.55,-75.54 233.36,-85.65 240.36,-85.43"/>
</g>
<!-- Node11 -->
<g id="node11" class="node">
<title>Node11</title>
<g id="a_node11"><a xlink:title=" ">
<polygon fill="none" stroke="#bfbfbf" points="278,-56.5 278,-75.5 334,-75.5 334,-56.5 278,-56.5"/>
<text text-anchor="middle" x="306" y="-63.5" font-family="Helvetica,sans-Serif" font-size="10.00">algorithm</text>
</a>
</g>
</g>
<!-- Node1&#45;&gt;Node11 -->
<g id="edge14" class="edge">
<title>Node1&#45;&gt;Node11</title>
<path fill="none" stroke="midnightblue" d="M221.22,-168.37C236.54,-150.05 272.5,-107.05 292.32,-83.36"/>
<polygon fill="midnightblue" stroke="midnightblue" points="295.08,-85.51 298.81,-75.59 289.71,-81.02 295.08,-85.51"/>
</g>
<!-- Node12 -->
<g id="node12" class="node">
<title>Node12</title>
<g id="a_node12"><a xlink:title=" ">
<polygon fill="none" stroke="#bfbfbf" points="318,-112.5 318,-131.5 372,-131.5 372,-112.5 318,-112.5"/>
<text text-anchor="middle" x="345" y="-119.5" font-family="Helvetica,sans-Serif" font-size="10.00">iostream</text>
</a>
</g>
</g>
<!-- Node1&#45;&gt;Node12 -->
<g id="edge15" class="edge">
<title>Node1&#45;&gt;Node12</title>
<path fill="none" stroke="midnightblue" d="M234.76,-168.44C256.32,-159.56 290.26,-145.56 314.79,-135.45"/>
<polygon fill="midnightblue" stroke="midnightblue" points="316.43,-138.56 324.34,-131.52 313.76,-132.09 316.43,-138.56"/>
</g>
<!-- Node2&#45;&gt;Node3 -->
<g id="edge2" class="edge">
<title>Node2&#45;&gt;Node3</title>
<path fill="none" stroke="midnightblue" d="M132.08,-56.44C110.26,-47.52 75.85,-33.44 51.11,-23.32"/>
<polygon fill="midnightblue" stroke="midnightblue" points="52.4,-20.06 41.82,-19.52 49.75,-26.54 52.4,-20.06"/>
</g>
<!-- Node4 -->
<g id="node4" class="node">
<title>Node4</title>
<g id="a_node4"><a xlink:title=" ">
<polygon fill="none" stroke="#bfbfbf" points="60.5,-0.5 60.5,-19.5 113.5,-19.5 113.5,-0.5 60.5,-0.5"/>
<text text-anchor="middle" x="87" y="-7.5" font-family="Helvetica,sans-Serif" font-size="10.00">complex</text>
</a>
</g>
</g>
<!-- Node2&#45;&gt;Node4 -->
<g id="edge3" class="edge">
<title>Node2&#45;&gt;Node4</title>
<path fill="none" stroke="midnightblue" d="M142.4,-56.32C132.54,-48.26 117.65,-36.08 105.78,-26.37"/>
<polygon fill="midnightblue" stroke="midnightblue" points="107.75,-23.46 97.8,-19.83 103.32,-28.88 107.75,-23.46"/>
</g>
<!-- Node5 -->
<g id="node5" class="node">
<title>Node5</title>
<g id="a_node5"><a xlink:title=" ">
<polygon fill="none" stroke="#bfbfbf" points="132,-0.5 132,-19.5 182,-19.5 182,-0.5 132,-0.5"/>
<text text-anchor="middle" x="157" y="-7.5" font-family="Helvetica,sans-Serif" font-size="10.00">optional</text>
</a>
</g>
</g>
<!-- Node2&#45;&gt;Node5 -->
<g id="edge4" class="edge">
<title>Node2&#45;&gt;Node5</title>
<path fill="none" stroke="midnightblue" d="M153.66,-56.08C154.18,-49.01 154.94,-38.86 155.59,-29.99"/>
<polygon fill="midnightblue" stroke="midnightblue" points="159.1,-29.98 156.35,-19.75 152.12,-29.47 159.1,-29.98"/>
</g>
<!-- Node6 -->
<g id="node6" class="node">
<title>Node6</title>
<g id="a_node6"><a xlink:title=" ">
<polygon fill="none" stroke="#bfbfbf" points="200,-0.5 200,-19.5 258,-19.5 258,-0.5 200,-0.5"/>
<text text-anchor="middle" x="229" y="-7.5" font-family="Helvetica,sans-Serif" font-size="10.00">functional</text>
</a>
</g>
</g>
<!-- Node2&#45;&gt;Node6 -->
<g id="edge5" class="edge">
<title>Node2&#45;&gt;Node6</title>
<path fill="none" stroke="midnightblue" d="M165.21,-56.32C176.78,-48.11 194.38,-35.6 208.16,-25.81"/>
<polygon fill="midnightblue" stroke="midnightblue" points="210.44,-28.48 216.57,-19.83 206.39,-22.77 210.44,-28.48"/>
</g>
<!-- Node7 -->
<g id="node7" class="node">
<title>Node7</title>
<g id="a_node7"><a xlink:title=" ">
<polygon fill="none" stroke="#bfbfbf" points="276,-0.5 276,-19.5 316,-19.5 316,-0.5 276,-0.5"/>
<text text-anchor="middle" x="296" y="-7.5" font-family="Helvetica,sans-Serif" font-size="10.00">utility</text>
</a>
</g>
</g>
<!-- Node2&#45;&gt;Node7 -->
<g id="edge6" class="edge">
<title>Node2&#45;&gt;Node7</title>
<path fill="none" stroke="midnightblue" d="M175.66,-56.44C200.1,-47.21 239.13,-32.48 266.08,-22.3"/>
<polygon fill="midnightblue" stroke="midnightblue" points="267.64,-25.45 275.76,-18.64 265.17,-18.9 267.64,-25.45"/>
</g>
<!-- Node8 -->
<g id="node8" class="node">
<title>Node8</title>
<g id="a_node8"><a xlink:title=" ">
<polygon fill="none" stroke="#bfbfbf" points="334,-0.5 334,-19.5 372,-19.5 372,-0.5 334,-0.5"/>
<text text-anchor="middle" x="353" y="-7.5" font-family="Helvetica,sans-Serif" font-size="10.00">tuple</text>
</a>
</g>
</g>
<!-- Node2&#45;&gt;Node8 -->
<g id="edge7" class="edge">
<title>Node2&#45;&gt;Node8</title>
<path fill="none" stroke="midnightblue" d="M188.07,-56.43C220.9,-48.27 271.51,-35.35 323.95,-20.19"/>
<polygon fill="midnightblue" stroke="midnightblue" points="325.14,-23.49 333.76,-17.34 323.18,-16.77 325.14,-23.49"/>
</g>
<!-- Node9&#45;&gt;Node2 -->
<g id="edge9" class="edge">
<title>Node9&#45;&gt;Node2</title>
<path fill="none" stroke="midnightblue" d="M173.04,-112.08C169.79,-104.77 165.08,-94.18 161.05,-85.1"/>
<polygon fill="midnightblue" stroke="midnightblue" points="164.15,-83.47 156.89,-75.75 157.75,-86.31 164.15,-83.47"/>
</g>
<!-- Node9&#45;&gt;Node3 -->
<g id="edge10" class="edge">
<title>Node9&#45;&gt;Node3</title>
<path fill="none" stroke="midnightblue" d="M161.39,-112.46C145.95,-103.82 121.81,-89.8 102,-76 79.53,-60.35 55.21,-40.39 39.15,-26.75"/>
<polygon fill="midnightblue" stroke="midnightblue" points="41.01,-23.73 31.14,-19.88 36.45,-29.05 41.01,-23.73"/>
</g>
<!-- Node9&#45;&gt;Node10 -->
<g id="edge11" class="edge">
<title>Node9&#45;&gt;Node10</title>
<path fill="none" stroke="midnightblue" d="M186.48,-112.32C195.2,-104.34 208.34,-92.31 218.9,-82.65"/>
<polygon fill="midnightblue" stroke="midnightblue" points="221.33,-85.17 226.35,-75.83 216.61,-80 221.33,-85.17"/>
</g>
<!-- Node9&#45;&gt;Node11 -->
<g id="edge12" class="edge">
<title>Node9&#45;&gt;Node11</title>
<path fill="none" stroke="midnightblue" d="M197.44,-112.44C218.67,-103.56 252.1,-89.56 276.25,-79.45"/>
<polygon fill="midnightblue" stroke="midnightblue" points="277.78,-82.61 285.66,-75.52 275.08,-76.15 277.78,-82.61"/>
</g>
</g>
</svg>
