<?xml version="1.0" encoding="UTF-8" standalone="no"?>
<!DOCTYPE svg PUBLIC "-//W3C//DTD SVG 1.1//EN"
 "http://www.w3.org/Graphics/SVG/1.1/DTD/svg11.dtd">
<!-- Generated by graphviz version 4.0.0 (20220529.0937)
 -->
<!-- Title: determinant Pages: 1 -->
<svg width="163pt" height="46pt"
 viewBox="0.00 0.00 163.00 46.00" xmlns="http://www.w3.org/2000/svg" xmlns:xlink="http://www.w3.org/1999/xlink">
<g id="graph0" class="graph" transform="scale(1 1) rotate(0) translate(4 42)">
<title>determinant</title>
<!-- Node1 -->
<g id="node1" class="node">
<title>Node1</title>
<g id="a_node1"><a xlink:title="Determinant of matrix">
<polygon fill="#bfbfbf" stroke="black" points="0,-0.5 0,-19.5 68,-19.5 68,-0.5 0,-0.5"/>
<text text-anchor="middle" x="34" y="-7.5" font-family="Helvetica,sans-Serif" font-size="10.00">determinant</text>
</a>
</g>
</g>
<!-- Node1&#45;&gt;Node1 -->
<g id="edge2" class="edge">
<title>Node1&#45;&gt;Node1</title>
<path fill="none" stroke="midnightblue" d="M19.51,-19.76C12.46,-28.57 17.29,-38 34,-38 44.44,-38 50.24,-34.31 51.41,-29.4"/>
<polygon fill="midnightblue" stroke="midnightblue" points="54.73,-28.31 48.49,-19.76 48.03,-30.34 54.73,-28.31"/>
</g>
<!-- Node2 -->
<g id="node2" class="node">
<title>Node2</title>
<g id="a_node2"><a xlink:href="newton_raphson_8cpp.html#a59fbc7ab4e906c283c231d973da3041c" target="_top" xlink:title="Cofactor of the matrix">
<polygon fill="none" stroke="black" points="104,-0.5 104,-19.5 155,-19.5 155,-0.5 104,-0.5"/>
<text text-anchor="middle" x="129.5" y="-7.5" font-family="Helvetica,sans-Serif" font-size="10.00">cofactor</text>
</a>
</g>
</g>
<!-- Node1&#45;&gt;Node2 -->
<g id="edge1" class="edge">
<title>Node1&#45;&gt;Node2</title>
<path fill="none" stroke="midnightblue" d="M68.23,-10C76.49,-10 85.38,-10 93.72,-10"/>
<polygon fill="midnightblue" stroke="midnightblue" points="93.9,-13.5 103.9,-10 93.9,-6.5 93.9,-13.5"/>
</g>
</g>
</svg>
