<?xml version="1.0" encoding="UTF-8" standalone="no"?>
<!DOCTYPE svg PUBLIC "-//W3C//DTD SVG 1.1//EN"
 "http://www.w3.org/Graphics/SVG/1.1/DTD/svg11.dtd">
<!-- Generated by graphviz version 4.0.0 (20220529.0937)
 -->
<!-- Title: newtonRaphson Pages: 1 -->
<svg width="554pt" height="233pt"
 viewBox="0.00 0.00 554.00 233.00" xmlns="http://www.w3.org/2000/svg" xmlns:xlink="http://www.w3.org/1999/xlink">
<g id="graph0" class="graph" transform="scale(1 1) rotate(0) translate(4 229)">
<title>newtonRaphson</title>
<!-- Node1 -->
<g id="node1" class="node">
<title>Node1</title>
<g id="a_node1"><a xlink:title="Newton Raphson method">
<polygon fill="#bfbfbf" stroke="black" points="0,-112.5 0,-131.5 86,-131.5 86,-112.5 0,-112.5"/>
<text text-anchor="middle" x="43" y="-119.5" font-family="Helvetica,sans-Serif" font-size="10.00">newtonRaphson</text>
</a>
</g>
</g>
<!-- Node2 -->
<g id="node2" class="node">
<title>Node2</title>
<g id="a_node2"><a xlink:href="newton_raphson_8cpp.html#ac30ec09778ce9767047746ef83448ea3" target="_top" xlink:title="Absolute value of vector">
<polygon fill="none" stroke="black" points="167.5,-205.5 167.5,-224.5 228.5,-224.5 228.5,-205.5 167.5,-205.5"/>
<text text-anchor="middle" x="198" y="-212.5" font-family="Helvetica,sans-Serif" font-size="10.00">absVector</text>
</a>
</g>
</g>
<!-- Node1&#45;&gt;Node2 -->
<g id="edge1" class="edge">
<title>Node1&#45;&gt;Node2</title>
<path fill="none" stroke="midnightblue" d="M51.28,-131.56C63.9,-147.43 91.43,-179.16 122,-196 132.74,-201.92 145.35,-206.03 157.14,-208.87"/>
<polygon fill="midnightblue" stroke="midnightblue" points="156.7,-212.36 167.22,-211.06 158.19,-205.52 156.7,-212.36"/>
</g>
<!-- Node3 -->
<g id="node3" class="node">
<title>Node3</title>
<g id="a_node3"><a xlink:href="class_system_model_1_1_system_model.html#a90ff4abab59174a08aaa153bbf6bd238" target="_top" xlink:title="Gets the bus functions (fi_P and fi_Q) for the desired bus">
<polygon fill="none" stroke="black" points="126.5,-156 126.5,-186 269.5,-186 269.5,-156 126.5,-156"/>
<text text-anchor="start" x="134.5" y="-174" font-family="Helvetica,sans-Serif" font-size="10.00">SystemModel::SystemModel</text>
<text text-anchor="middle" x="198" y="-163" font-family="Helvetica,sans-Serif" font-size="10.00">::getBusFunctions</text>
</a>
</g>
</g>
<!-- Node1&#45;&gt;Node3 -->
<g id="edge2" class="edge">
<title>Node1&#45;&gt;Node3</title>
<path fill="none" stroke="midnightblue" d="M73.63,-131.5C88.2,-136.17 106.02,-141.88 122,-147 127.9,-148.89 134.05,-150.86 140.19,-152.82"/>
<polygon fill="midnightblue" stroke="midnightblue" points="139.2,-156.18 149.79,-155.9 141.33,-149.51 139.2,-156.18"/>
</g>
<!-- Node4 -->
<g id="node4" class="node">
<title>Node4</title>
<g id="a_node4"><a xlink:href="class_system_model_1_1_system_model.html#a48ce61bfa627080bf8d9edf0c2d07091" target="_top" xlink:title="Gets the derivates of the bus functions (dfi_P/dx and dfi_Q/dx) for the desired bus (two rows of the ...">
<polygon fill="none" stroke="black" points="122,-107 122,-137 274,-137 274,-107 122,-107"/>
<text text-anchor="start" x="130" y="-125" font-family="Helvetica,sans-Serif" font-size="10.00">SystemModel::SystemModel</text>
<text text-anchor="middle" x="198" y="-114" font-family="Helvetica,sans-Serif" font-size="10.00">::getDerivativesOfBusFunctions</text>
</a>
</g>
</g>
<!-- Node1&#45;&gt;Node4 -->
<g id="edge3" class="edge">
<title>Node1&#45;&gt;Node4</title>
<path fill="none" stroke="midnightblue" d="M86.21,-122C94.25,-122 102.92,-122 111.74,-122"/>
<polygon fill="midnightblue" stroke="midnightblue" points="111.75,-125.5 121.75,-122 111.75,-118.5 111.75,-125.5"/>
</g>
<!-- Node5 -->
<g id="node5" class="node">
<title>Node5</title>
<g id="a_node5"><a xlink:href="class_system_model_1_1_system_model.html#a33c3e50a81ee0a32624237515f111b09" target="_top" xlink:title=" ">
<polygon fill="none" stroke="black" points="126.5,-58 126.5,-88 269.5,-88 269.5,-58 126.5,-58"/>
<text text-anchor="start" x="134.5" y="-76" font-family="Helvetica,sans-Serif" font-size="10.00">SystemModel::SystemModel</text>
<text text-anchor="middle" x="198" y="-65" font-family="Helvetica,sans-Serif" font-size="10.00">::getNumberOfBuses</text>
</a>
</g>
</g>
<!-- Node1&#45;&gt;Node5 -->
<g id="edge4" class="edge">
<title>Node1&#45;&gt;Node5</title>
<path fill="none" stroke="midnightblue" d="M73.86,-112.44C92.73,-106.39 117.71,-98.39 140.23,-91.18"/>
<polygon fill="midnightblue" stroke="midnightblue" points="141.59,-94.42 150.05,-88.04 139.46,-87.75 141.59,-94.42"/>
</g>
<!-- Node6 -->
<g id="node6" class="node">
<title>Node6</title>
<g id="a_node6"><a xlink:href="newton_raphson_8cpp.html#ab7adec5a98f13e19c121f8cf74e29682" target="_top" xlink:title="Inverse matrix">
<polygon fill="none" stroke="black" points="161,-19.5 161,-38.5 235,-38.5 235,-19.5 161,-19.5"/>
<text text-anchor="middle" x="198" y="-26.5" font-family="Helvetica,sans-Serif" font-size="10.00">inverseMatrix</text>
</a>
</g>
</g>
<!-- Node1&#45;&gt;Node6 -->
<g id="edge5" class="edge">
<title>Node1&#45;&gt;Node6</title>
<path fill="none" stroke="midnightblue" d="M51.54,-112.36C64.33,-96.69 91.83,-65.73 122,-49 130.93,-44.05 141.14,-40.28 151.09,-37.42"/>
<polygon fill="midnightblue" stroke="midnightblue" points="152.11,-40.77 160.9,-34.86 150.34,-34 152.11,-40.77"/>
</g>
<!-- Node7 -->
<g id="node7" class="node">
<title>Node7</title>
<g id="a_node7"><a xlink:href="newton_raphson_8cpp.html#a63129f00109f367f324037fe32e501e5" target="_top" xlink:title="Adjoint matrix">
<polygon fill="none" stroke="black" points="310,-38.5 310,-57.5 355,-57.5 355,-38.5 310,-38.5"/>
<text text-anchor="middle" x="332.5" y="-45.5" font-family="Helvetica,sans-Serif" font-size="10.00">adjoint</text>
</a>
</g>
</g>
<!-- Node6&#45;&gt;Node7 -->
<g id="edge6" class="edge">
<title>Node6&#45;&gt;Node7</title>
<path fill="none" stroke="midnightblue" d="M235.21,-34.19C255.38,-37.08 280.26,-40.65 299.68,-43.44"/>
<polygon fill="midnightblue" stroke="midnightblue" points="299.45,-46.94 309.84,-44.89 300.44,-40.01 299.45,-46.94"/>
</g>
<!-- Node9 -->
<g id="node9" class="node">
<title>Node9</title>
<g id="a_node9"><a xlink:href="newton_raphson_8cpp.html#ad049f67ee0cec615720c3e6c31b0ed9a" target="_top" xlink:title="Determinant of matrix">
<polygon fill="none" stroke="black" points="391,-0.5 391,-19.5 459,-19.5 459,-0.5 391,-0.5"/>
<text text-anchor="middle" x="425" y="-7.5" font-family="Helvetica,sans-Serif" font-size="10.00">determinant</text>
</a>
</g>
</g>
<!-- Node6&#45;&gt;Node9 -->
<g id="edge11" class="edge">
<title>Node6&#45;&gt;Node9</title>
<path fill="none" stroke="midnightblue" d="M235.15,-25.95C274.86,-22.59 338.59,-17.21 380.88,-13.64"/>
<polygon fill="midnightblue" stroke="midnightblue" points="381.2,-17.13 390.87,-12.8 380.61,-10.15 381.2,-17.13"/>
</g>
<!-- Node8 -->
<g id="node8" class="node">
<title>Node8</title>
<g id="a_node8"><a xlink:href="newton_raphson_8cpp.html#a59fbc7ab4e906c283c231d973da3041c" target="_top" xlink:title="Cofactor of the matrix">
<polygon fill="none" stroke="black" points="495,-28.5 495,-47.5 546,-47.5 546,-28.5 495,-28.5"/>
<text text-anchor="middle" x="520.5" y="-35.5" font-family="Helvetica,sans-Serif" font-size="10.00">cofactor</text>
</a>
</g>
</g>
<!-- Node7&#45;&gt;Node8 -->
<g id="edge7" class="edge">
<title>Node7&#45;&gt;Node8</title>
<path fill="none" stroke="midnightblue" d="M355.3,-48.75C380.37,-49.39 422.72,-49.83 459,-47 467.43,-46.34 476.47,-45.22 484.92,-43.99"/>
<polygon fill="midnightblue" stroke="midnightblue" points="485.51,-47.44 494.86,-42.46 484.45,-40.53 485.51,-47.44"/>
</g>
<!-- Node7&#45;&gt;Node9 -->
<g id="edge8" class="edge">
<title>Node7&#45;&gt;Node9</title>
<path fill="none" stroke="midnightblue" d="M355.41,-38.8C366.39,-34.19 379.89,-28.52 392.01,-23.43"/>
<polygon fill="midnightblue" stroke="midnightblue" points="393.48,-26.61 401.35,-19.51 390.77,-20.16 393.48,-26.61"/>
</g>
<!-- Node9&#45;&gt;Node8 -->
<g id="edge9" class="edge">
<title>Node9&#45;&gt;Node8</title>
<path fill="none" stroke="midnightblue" d="M457.92,-19.56C466.68,-22.18 476.22,-25.04 485.12,-27.7"/>
<polygon fill="midnightblue" stroke="midnightblue" points="484.23,-31.09 494.81,-30.61 486.23,-24.38 484.23,-31.09"/>
</g>
<!-- Node9&#45;&gt;Node9 -->
<g id="edge10" class="edge">
<title>Node9&#45;&gt;Node9</title>
<path fill="none" stroke="midnightblue" d="M410.82,-19.76C403.92,-28.57 408.65,-38 425,-38 435.22,-38 440.9,-34.31 442.04,-29.4"/>
<polygon fill="midnightblue" stroke="midnightblue" points="445.38,-28.35 439.18,-19.76 438.66,-30.34 445.38,-28.35"/>
</g>
</g>
</svg>
