<?xml version="1.0" encoding="UTF-8" standalone="no"?>
<!DOCTYPE svg PUBLIC "-//W3C//DTD SVG 1.1//EN"
 "http://www.w3.org/Graphics/SVG/1.1/DTD/svg11.dtd">
<!-- Generated by graphviz version 4.0.0 (20220529.0937)
 -->
<!-- Title: systemModel.h Pages: 1 -->
<svg width="554pt" height="140pt"
 viewBox="0.00 0.00 554.00 140.00" xmlns="http://www.w3.org/2000/svg" xmlns:xlink="http://www.w3.org/1999/xlink">
<g id="graph0" class="graph" transform="scale(1 1) rotate(0) translate(4 136)">
<title>systemModel.h</title>
<!-- Node1 -->
<g id="node1" class="node">
<title>Node1</title>
<g id="a_node1"><a xlink:title=" ">
<polygon fill="#bfbfbf" stroke="black" points="178.5,-112.5 178.5,-131.5 261.5,-131.5 261.5,-112.5 178.5,-112.5"/>
<text text-anchor="middle" x="220" y="-119.5" font-family="Helvetica,sans-Serif" font-size="10.00">systemModel.h</text>
</a>
</g>
</g>
<!-- Node2 -->
<g id="node2" class="node">
<title>Node2</title>
<g id="a_node2"><a xlink:href="export_8cpp.html" target="_top" xlink:title=" ">
<polygon fill="none" stroke="black" points="0,-0.5 0,-19.5 62,-19.5 62,-0.5 0,-0.5"/>
<text text-anchor="middle" x="31" y="-7.5" font-family="Helvetica,sans-Serif" font-size="10.00">export.cpp</text>
</a>
</g>
</g>
<!-- Node1&#45;&gt;Node2 -->
<g id="edge1" class="edge">
<title>Node1&#45;&gt;Node2</title>
<path fill="none" stroke="midnightblue" d="M168.3,-115.27C119.69,-108.73 51.93,-96.23 35,-76 21.65,-60.05 25.42,-33.45 28.6,-19.75"/>
<polygon fill="midnightblue" stroke="midnightblue" points="167.99,-118.76 178.36,-116.58 168.89,-111.82 167.99,-118.76"/>
</g>
<!-- Node3 -->
<g id="node3" class="node">
<title>Node3</title>
<g id="a_node3"><a xlink:href="export_8h.html" target="_top" xlink:title=" ">
<polygon fill="none" stroke="black" points="44,-56.5 44,-75.5 96,-75.5 96,-56.5 44,-56.5"/>
<text text-anchor="middle" x="70" y="-63.5" font-family="Helvetica,sans-Serif" font-size="10.00">export.h</text>
</a>
</g>
</g>
<!-- Node1&#45;&gt;Node3 -->
<g id="edge2" class="edge">
<title>Node1&#45;&gt;Node3</title>
<path fill="none" stroke="midnightblue" d="M186.78,-109.04C158.55,-98.88 118.74,-84.55 93.66,-75.52"/>
<polygon fill="midnightblue" stroke="midnightblue" points="185.64,-112.35 196.23,-112.44 188.01,-105.76 185.64,-112.35"/>
</g>
<!-- Node4 -->
<g id="node4" class="node">
<title>Node4</title>
<g id="a_node4"><a xlink:href="main_8cpp.html" target="_top" xlink:title=" ">
<polygon fill="none" stroke="black" points="159,-0.5 159,-19.5 215,-19.5 215,-0.5 159,-0.5"/>
<text text-anchor="middle" x="187" y="-7.5" font-family="Helvetica,sans-Serif" font-size="10.00">main.cpp</text>
</a>
</g>
</g>
<!-- Node1&#45;&gt;Node4 -->
<g id="edge8" class="edge">
<title>Node1&#45;&gt;Node4</title>
<path fill="none" stroke="midnightblue" d="M182.43,-108.54C167.39,-101.5 151.62,-91.01 143,-76 130.93,-54.96 156.92,-31.75 173.87,-19.57"/>
<polygon fill="midnightblue" stroke="midnightblue" points="181.06,-111.76 191.63,-112.49 183.82,-105.33 181.06,-111.76"/>
</g>
<!-- Node5 -->
<g id="node5" class="node">
<title>Node5</title>
<g id="a_node5"><a xlink:href="import_8cpp.html" target="_top" xlink:title=" ">
<polygon fill="none" stroke="black" points="152,-56.5 152,-75.5 214,-75.5 214,-56.5 152,-56.5"/>
<text text-anchor="middle" x="183" y="-63.5" font-family="Helvetica,sans-Serif" font-size="10.00">import.cpp</text>
</a>
</g>
</g>
<!-- Node1&#45;&gt;Node5 -->
<g id="edge5" class="edge">
<title>Node1&#45;&gt;Node5</title>
<path fill="none" stroke="midnightblue" d="M208.05,-103.57C201.69,-94.27 194.13,-83.25 189,-75.75"/>
<polygon fill="midnightblue" stroke="midnightblue" points="205.35,-105.81 213.89,-112.08 211.13,-101.86 205.35,-105.81"/>
</g>
<!-- Node6 -->
<g id="node6" class="node">
<title>Node6</title>
<g id="a_node6"><a xlink:href="import_8h.html" target="_top" xlink:title=" ">
<polygon fill="none" stroke="black" points="232,-56.5 232,-75.5 284,-75.5 284,-56.5 232,-56.5"/>
<text text-anchor="middle" x="258" y="-63.5" font-family="Helvetica,sans-Serif" font-size="10.00">import.h</text>
</a>
</g>
</g>
<!-- Node1&#45;&gt;Node6 -->
<g id="edge6" class="edge">
<title>Node1&#45;&gt;Node6</title>
<path fill="none" stroke="midnightblue" d="M232.06,-103.86C238.64,-94.5 246.51,-83.33 251.84,-75.75"/>
<polygon fill="midnightblue" stroke="midnightblue" points="229.17,-101.89 226.27,-112.08 234.89,-105.92 229.17,-101.89"/>
</g>
<!-- Node7 -->
<g id="node7" class="node">
<title>Node7</title>
<g id="a_node7"><a xlink:href="newton_raphson_8cpp.html" target="_top" xlink:title=" ">
<polygon fill="none" stroke="black" points="334,-0.5 334,-19.5 438,-19.5 438,-0.5 334,-0.5"/>
<text text-anchor="middle" x="386" y="-7.5" font-family="Helvetica,sans-Serif" font-size="10.00">newtonRaphson.cpp</text>
</a>
</g>
</g>
<!-- Node1&#45;&gt;Node7 -->
<g id="edge9" class="edge">
<title>Node1&#45;&gt;Node7</title>
<path fill="none" stroke="midnightblue" d="M271.97,-115.49C320.78,-109.12 388.7,-96.74 405,-76 418.22,-59.18 403.04,-33.42 393.16,-19.94"/>
<polygon fill="midnightblue" stroke="midnightblue" points="271.35,-112.04 261.87,-116.76 272.22,-118.99 271.35,-112.04"/>
</g>
<!-- Node8 -->
<g id="node8" class="node">
<title>Node8</title>
<g id="a_node8"><a xlink:href="newton_raphson_8h.html" target="_top" xlink:title=" ">
<polygon fill="none" stroke="black" points="302,-56.5 302,-75.5 396,-75.5 396,-56.5 302,-56.5"/>
<text text-anchor="middle" x="349" y="-63.5" font-family="Helvetica,sans-Serif" font-size="10.00">newtonRaphson.h</text>
</a>
</g>
</g>
<!-- Node1&#45;&gt;Node8 -->
<g id="edge10" class="edge">
<title>Node1&#45;&gt;Node8</title>
<path fill="none" stroke="midnightblue" d="M249.85,-108.5C274.04,-98.38 307.46,-84.39 328.66,-75.52"/>
<polygon fill="midnightblue" stroke="midnightblue" points="248.31,-105.35 240.44,-112.44 251.02,-111.81 248.31,-105.35"/>
</g>
<!-- Node9 -->
<g id="node9" class="node">
<title>Node9</title>
<g id="a_node9"><a xlink:href="system_model_8cpp.html" target="_top" xlink:title=" ">
<polygon fill="none" stroke="black" points="452,-56.5 452,-75.5 546,-75.5 546,-56.5 452,-56.5"/>
<text text-anchor="middle" x="499" y="-63.5" font-family="Helvetica,sans-Serif" font-size="10.00">systemModel.cpp</text>
</a>
</g>
</g>
<!-- Node1&#45;&gt;Node9 -->
<g id="edge13" class="edge">
<title>Node1&#45;&gt;Node9</title>
<path fill="none" stroke="midnightblue" d="M271.9,-110.96C324.47,-100.78 404.94,-85.21 454.64,-75.59"/>
<polygon fill="midnightblue" stroke="midnightblue" points="270.92,-107.58 261.77,-112.92 272.25,-114.45 270.92,-107.58"/>
</g>
<!-- Node3&#45;&gt;Node2 -->
<g id="edge3" class="edge">
<title>Node3&#45;&gt;Node2</title>
<path fill="none" stroke="midnightblue" d="M57.62,-47.86C50.86,-38.5 42.79,-27.33 37.32,-19.75"/>
<polygon fill="midnightblue" stroke="midnightblue" points="54.87,-50.03 63.56,-56.08 60.54,-45.93 54.87,-50.03"/>
</g>
<!-- Node3&#45;&gt;Node4 -->
<g id="edge4" class="edge">
<title>Node3&#45;&gt;Node4</title>
<path fill="none" stroke="midnightblue" d="M97.66,-52.23C119.55,-42.13 149.5,-28.31 168.55,-19.52"/>
<polygon fill="midnightblue" stroke="midnightblue" points="96.15,-49.08 88.54,-56.44 99.09,-55.43 96.15,-49.08"/>
</g>
<!-- Node6&#45;&gt;Node4 -->
<g id="edge7" class="edge">
<title>Node6&#45;&gt;Node4</title>
<path fill="none" stroke="midnightblue" d="M238.41,-50.1C225.63,-40.38 209.39,-28.03 198.61,-19.83"/>
<polygon fill="midnightblue" stroke="midnightblue" points="236.51,-53.06 246.59,-56.32 240.75,-47.48 236.51,-53.06"/>
</g>
<!-- Node8&#45;&gt;Node4 -->
<g id="edge11" class="edge">
<title>Node8&#45;&gt;Node4</title>
<path fill="none" stroke="midnightblue" d="M313.52,-53.17C283.01,-43 239.76,-28.59 212.55,-19.52"/>
<polygon fill="midnightblue" stroke="midnightblue" points="312.74,-56.6 323.33,-56.44 314.95,-49.96 312.74,-56.6"/>
</g>
<!-- Node8&#45;&gt;Node7 -->
<g id="edge12" class="edge">
<title>Node8&#45;&gt;Node7</title>
<path fill="none" stroke="midnightblue" d="M360.95,-47.57C367.31,-38.27 374.87,-27.25 380,-19.75"/>
<polygon fill="midnightblue" stroke="midnightblue" points="357.87,-45.86 355.11,-56.08 363.65,-49.81 357.87,-45.86"/>
</g>
</g>
</svg>
